<svg xmlns="http://www.w3.org/2000/svg">
    <g fill="none" fill-rule="evenodd">
        <path fill="#000" fill-rule="nonzero" d="M31.051 13.58l-.074-.033L18.87.482c-.26-.282-.557-.425-.882-.425-.696 0-1.368.662-1.411 1.39l-.022.111c-.012.05-.026.1-.031.154-.178 1.665-.215 3.29-.227 4.662l-.004.372H1.618c-.82 0-1.128.522-1.238.833l-.025.07-.05.055A1.215 1.215 0 0 0 0 8.546v12.956c0 .334.103.617.305.841l.05.056.024.07c.11.311.418.833 1.238.833h14.677l.004.373c.012 1.37.05 2.997.227 4.66.005.055.019.105.031.155l.022.112c.042.727.715 1.389 1.41 1.389.325 0 .622-.143.883-.425L30.977 16.5l.074-.032c.569-.248.956-.846.922-1.423l-.002-.021.002-.022c.034-.576-.353-1.174-.922-1.422zM19.09 25.325l-.016-.956c-.014-.802-.019-1.605-.019-2.41 0-.887-.694-1.285-1.382-1.285V20.3l-.01.374-.047.001-.047-.011a1.554 1.554 0 0 0-.367-.047H2.764V9.43H17.2c.118 0 .234-.014.367-.046l.047-.01h.047c.698 0 1.392-.398 1.392-1.286 0-.803.006-1.607.02-2.41l.015-.956 9.545 10.302-9.545 10.301z"/>
        <path fill="#FFF" d="M19.09 25.325l-.017-.956c-.014-.802-.019-1.605-.019-2.41 0-.887-.694-1.285-1.382-1.285V20.3l-.01.374-.047.001-.047-.011a1.554 1.554 0 0 0-.367-.047H2.764V9.43H17.2c.118 0 .234-.014.367-.046l.047-.01h.047c.698 0 1.392-.398 1.392-1.286 0-.803.006-1.607.02-2.41l.015-.956 9.545 10.302-9.545 10.301z"/>
    </g>
</svg>
