<svg xmlns="http://www.w3.org/2000/svg" xmlns:xlink="http://www.w3.org/1999/xlink" width="353" height="387" viewBox="0 0 353 387">
    <defs>
        <path id="a" d="M.696 102.94c-2.947 59.292 43.302 58.573 100.789 73.383 73.94 19.046 110.972-3.425 113.92-62.716C218.347 54.32 172.672 3.868 113.384.921c-1.817-.09-3.624-.135-5.423-.135C51.049.79 3.552 45.47.696 102.941z"/>
        <linearGradient id="c" x1="100%" x2="0%" y1="50%" y2="50%">
            <stop offset="0%" stop-color="#D4FC79"/>
            <stop offset="100%" stop-color="#96E6A1"/>
        </linearGradient>
        <linearGradient id="e" x1="0%" x2="102%" y1="0%" y2="101%">
            <stop offset="0%" stop-color="#84FAB0"/>
            <stop offset="100%" stop-color="#8FD3F4"/>
        </linearGradient>
        <path id="d" d="M0 387V13.494c28.986 1.088 65.442-.033 96.457 22.85 26.985 19.906-8.493 59.469 7.579 79.352 35 43.296 78.127 62.195 88.873 140.021 7.744 56.102-6.88 100.337-24.341 131.283H0z"/>
    </defs>
    <g fill="none" fill-rule="evenodd">
        <g transform="translate(1.813 93.135)">
            <mask id="b" fill="#fff">
                <use xlink:href="#a"/>
            </mask>
            <use fill="#FFF" xlink:href="#a"/>
            <path fill="#000" d="M10.43-142.312l4.52-7.11L372.365 77.826l-4.518 7.112L10.43-142.312zM.885-127.3l4.52-7.112L362.82 92.838l-4.519 7.11L.885-127.3zm-9.544 15.011l4.52-7.11L353.277 107.85l-4.523 7.112-357.413-227.25zm-9.904 16.807l4.52-7.11 357.414 227.248-4.518 7.112-357.416-227.25zm-9.186 13.215l4.52-7.11 357.414 227.248-4.518 7.112-357.416-227.25zm-9.544 15.012l4.52-7.11 357.417 227.249-4.524 7.112-357.413-227.25zm-9.544 15.012l4.52-7.11 357.414 227.248-4.518 7.112-357.416-227.25zm-9.545 15.01l4.52-7.109 357.414 227.248-4.518 7.112-357.416-227.25zm-9.544 15.013l4.52-7.11L296.01 197.918l-4.523 7.112L-65.926-22.22zm-9.545 15.01l4.521-7.109L286.463 212.93l-4.518 7.112L-75.47-7.21zm-9.545 15.013l4.52-7.112 357.414 227.25-4.518 7.11L-85.016 7.803zm-9.544 15.011l4.52-7.11 357.417 227.248-4.524 7.11L-94.56 22.814zm-9.544 15.011l4.52-7.11L257.83 257.964l-4.518 7.112-357.416-227.25zm-9.545 15.011l4.52-7.11 357.414 227.248-4.518 7.112-357.416-227.25zm-9.545 15.012l4.521-7.11 357.416 227.248-4.52 7.11-357.417-227.248zm-9.543 15.012l4.52-7.11 357.414 227.248-4.519 7.112-357.415-227.25zm-9.546 15.01l4.52-7.11L219.655 318.01l-4.521 7.112-357.416-227.25zm-9.544 15.013l4.52-7.11L210.11 333.021l-4.521 7.11-357.416-227.248zm-9.544 15.01l4.52-7.109 357.414 227.248-4.518 7.11-357.416-227.248z" mask="url(#b)"/>
        </g>
        <path fill="#8BE1DC" d="M163.465 308.167a1.73 1.73 0 0 1 0 3.46 1.731 1.731 0 0 1 0-3.46zm-12.138-90.697a1.728 1.728 0 1 1 0 3.456 1.728 1.728 0 0 1 0-3.456zm82.154 27.767a1.728 1.728 0 1 1 0 3.455 1.728 1.728 0 0 1 0-3.456zm-106.167 95.135a1.728 1.728 0 0 1 0 3.455 1.73 1.73 0 0 1-1.73-1.733c0-.95.772-1.722 1.73-1.722zm72.232-50.268c.953 0 1.728.777 1.728 1.727a1.729 1.729 0 1 1-1.728-1.728zm-15.936-73.559c.958 0 1.728.775 1.728 1.728a1.726 1.726 0 1 1-3.453 0c0-.953.772-1.728 1.725-1.728zm-74.019-33.506c.953 0 1.728.777 1.728 1.727a1.73 1.73 0 0 1-1.728 1.73 1.73 1.73 0 0 1-1.73-1.73c0-.95.775-1.727 1.73-1.727zm58.155-8.539a1.726 1.726 0 1 1 0 3.453 1.726 1.726 0 1 1 0-3.453zm-41.475 77.324a1.73 1.73 0 0 1 0 3.458 1.729 1.729 0 0 1 0-3.458zm-63.236 35.15a1.728 1.728 0 1 1 0 3.458 1.728 1.728 0 0 1-1.725-1.73c0-.953.77-1.728 1.725-1.728zm172.554-60.736a1.728 1.728 0 1 1 0 3.455 1.728 1.728 0 0 1 0-3.455zm-55.368-23.813a1.73 1.73 0 0 1 0 3.458 1.729 1.729 0 0 1 0-3.458zm-51.722-14.606c.955 0 1.725.776 1.725 1.726a1.727 1.727 0 1 1-1.725-1.725zm.249 34.999c.955 0 1.725.775 1.725 1.725a1.727 1.727 0 1 1-1.725-1.725zm24.396 90.762a1.729 1.729 0 1 1-.002 3.453 1.729 1.729 0 0 1 .002-3.453zm88.662-56.658a1.73 1.73 0 0 1 0 3.46 1.732 1.732 0 0 1-1.728-1.73c0-.952.775-1.73 1.728-1.73zm-125.883 84.304a1.73 1.73 0 0 1 0 3.46 1.731 1.731 0 0 1 0-3.46zm82.954-96.207a1.73 1.73 0 0 1 0 3.46 1.73 1.73 0 0 1 0-3.46zm-35.61 80.183a1.725 1.725 0 1 1 0 3.453 1.727 1.727 0 1 1 0-3.453zm28.96-16.823a1.73 1.73 0 0 1 0 3.46 1.73 1.73 0 0 1 0-3.46zM88.46 315.028a1.726 1.726 0 1 1-.001 3.452 1.726 1.726 0 0 1 .001-3.452zm11.991 18.507a1.726 1.726 0 1 1 .002 3.453 1.726 1.726 0 0 1-.002-3.453zm85.764-157.829a1.73 1.73 0 0 1 0 3.458 1.728 1.728 0 1 1 0-3.458zm-57.52 120.804a1.728 1.728 0 1 1-.001 3.457 1.728 1.728 0 0 1 0-3.457zm34.972-68.524c.953 0 1.728.778 1.728 1.728 0 .953-.775 1.73-1.728 1.73a1.732 1.732 0 0 1-1.728-1.73c0-.95.775-1.728 1.728-1.728zm-43.674-8.601c.955 0 1.725.772 1.725 1.725a1.724 1.724 0 1 1-3.45 0c0-.953.77-1.725 1.725-1.725zm42.695 20.116a1.73 1.73 0 0 1 1.728 1.728 1.728 1.728 0 1 1-1.728-1.728zm22.358-41.127a1.726 1.726 0 1 1 0 3.453 1.724 1.724 0 0 1-1.723-1.73c0-.95.77-1.723 1.723-1.723zm-123.999 71.16c.955 0 1.725.772 1.725 1.724a1.726 1.726 0 1 1-1.725-1.725zm95.52-16.697c.955 0 1.73.773 1.73 1.725a1.729 1.729 0 0 1-3.455 0c0-.952.772-1.725 1.725-1.725zm18.84 74.985c.954 0 1.724.773 1.724 1.728 0 .952-.77 1.73-1.725 1.73a1.728 1.728 0 0 1-1.725-1.73c0-.955.77-1.728 1.725-1.728zm-35.855-25.991a1.726 1.726 0 1 1-1.728 1.723c0-.95.773-1.723 1.728-1.723zm42.023-6.973a1.728 1.728 0 1 1 0 3.455 1.728 1.728 0 0 1 0-3.455zM137.38 263.97a1.728 1.728 0 1 1 0 3.455 1.728 1.728 0 0 1 0-3.455zm-55.753-47.553c.955 0 1.725.775 1.725 1.725a1.725 1.725 0 1 1-3.45 0c0-.95.77-1.725 1.725-1.725zm48.744-49.975c.955 0 1.725.778 1.725 1.728 0 .955-.77 1.73-1.725 1.73a1.726 1.726 0 0 1-1.726-1.73c0-.95.77-1.728 1.726-1.728zm-33.658 44.288a1.73 1.73 0 0 1 0 3.458 1.73 1.73 0 0 1-1.728-1.73c0-.95.775-1.728 1.728-1.728zm-6.715 70.214c.955 0 1.725.775 1.725 1.73 0 .95-.77 1.728-1.725 1.728a1.728 1.728 0 0 1-1.725-1.728c0-.955.77-1.73 1.725-1.73zm105.607-20.81a1.728 1.728 0 1 1 0 3.455 1.728 1.728 0 0 1 0-3.455zm-74.708-52.692c.953 0 1.723.775 1.723 1.725a1.726 1.726 0 1 1-3.45 0c0-.95.77-1.725 1.727-1.725zm57.046 45.421a1.73 1.73 0 0 1 0 3.458 1.729 1.729 0 0 1 0-3.458zm-83.92-27.849c.952 0 1.722.773 1.722 1.728a1.724 1.724 0 1 1-3.45 0c0-.955.77-1.728 1.727-1.728zm23.202 29.702c.955 0 1.725.775 1.725 1.728s-.77 1.73-1.725 1.73a1.728 1.728 0 0 1-1.725-1.73c0-.953.77-1.728 1.725-1.728zm37.675-48.703a1.727 1.727 0 1 1-.003 3.454 1.727 1.727 0 0 1 .003-3.454zm68.278 20.586a1.728 1.728 0 1 1-1.728 1.728c0-.956.77-1.728 1.728-1.728zm-35.857-36.3c.958 0 1.728.775 1.728 1.728a1.727 1.727 0 1 1-3.453 0c0-.953.773-1.728 1.725-1.728zM67.308 240.344a1.728 1.728 0 1 1 0 3.455 1.728 1.728 0 0 1 0-3.455zm138.01-18.989a1.727 1.727 0 1 1-.005 3.454 1.727 1.727 0 0 1 .004-3.454zm18.514 36.136c.955 0 1.725.773 1.725 1.728a1.726 1.726 0 1 1-3.45 0c0-.955.77-1.728 1.725-1.728zM84.469 255.25a1.726 1.726 0 1 1 .003 3.453 1.726 1.726 0 0 1-.003-3.453zm86.397 82.517c.952 0 1.727.772 1.727 1.727a1.728 1.728 0 1 1-1.727-1.727zm22.624-134.404c.955 0 1.725.775 1.725 1.728a1.726 1.726 0 1 1-3.45 0c0-.953.77-1.728 1.725-1.728zm-48.862 138.064c.955 0 1.728.772 1.728 1.727a1.73 1.73 0 0 1-1.728 1.73 1.728 1.728 0 1 1 0-3.458zm43.676-57.374c.955 0 1.725.773 1.725 1.726a1.724 1.724 0 1 1-3.45 0c0-.953.77-1.726 1.725-1.726zm48.287-12.227a1.73 1.73 0 0 1 0 3.458 1.729 1.729 0 0 1 0-3.458zm-95.868-64.667c.958 0 1.728.776 1.728 1.726a1.728 1.728 0 1 1-3.456 0c0-.95.775-1.726 1.728-1.726zm-49.06 29.888c.954 0 1.724.773 1.724 1.728a1.726 1.726 0 1 1-3.45 0c0-.955.77-1.728 1.725-1.728zm45.41-6.646a1.728 1.728 0 0 1 0 3.456 1.728 1.728 0 1 1 0-3.455zm62.447 68.366a1.73 1.73 0 0 1 0 3.457 1.728 1.728 0 1 1 0-3.458zm-95.38-123.039a1.727 1.727 0 1 1-.004 3.454 1.727 1.727 0 0 1 .004-3.454zM75.078 276.123a1.728 1.728 0 1 1-.005 3.455 1.728 1.728 0 0 1 .005-3.455zm88.028-19.953a1.726 1.726 0 1 1 .004 3.452 1.726 1.726 0 0 1-.004-3.452zm50.999-55.068a1.726 1.726 0 1 1 0 3.455 1.728 1.728 0 0 1 0-3.455zm-14.876 104.662a1.726 1.726 0 1 1 0 3.453 1.726 1.726 0 1 1 0-3.453zM71.36 263.392c.955 0 1.725.775 1.725 1.725a1.725 1.725 0 1 1-3.45 0c0-.95.77-1.725 1.725-1.725zm55.269 47.697c.952 0 1.722.778 1.722 1.728 0 .953-.77 1.73-1.722 1.73a1.729 1.729 0 0 1 0-3.458zm77.31 15.786a1.726 1.726 0 1 1 0 3.452 1.728 1.728 0 1 1 0-3.452zm-64.561-134.73a1.728 1.728 0 1 1 0 3.456 1.728 1.728 0 0 1 0-3.455zm20.995 142.167c.955 0 1.728.772 1.728 1.722a1.73 1.73 0 0 1-1.728 1.733 1.729 1.729 0 0 1 0-3.455zm51.928-24.807a1.726 1.726 0 1 1-.001 3.452 1.726 1.726 0 0 1 .001-3.452zM59.16 253.626c.958 0 1.728.775 1.728 1.725a1.725 1.725 0 1 1-3.453 0c0-.95.773-1.725 1.725-1.725zm125.51 12.005a1.726 1.726 0 1 1 .003 3.452 1.726 1.726 0 0 1-.004-3.452zm-71.314-68.997a1.73 1.73 0 0 1 0 3.458 1.73 1.73 0 0 1 0-3.458zm18.234-21.701a1.729 1.729 0 1 1-.002 3.453 1.729 1.729 0 0 1 .002-3.453zm89.365 65.086a1.726 1.726 0 1 1 0 3.455 1.728 1.728 0 0 1 0-3.455zm-131.753 59.25a1.726 1.726 0 1 1 0 3.453 1.728 1.728 0 1 1 0-3.453zm119.32-34.16a1.73 1.73 0 0 1 0 3.458 1.728 1.728 0 0 1 0-3.458zm-80.04 9.412a1.728 1.728 0 1 1 .001 3.455 1.728 1.728 0 0 1 0-3.455zm90-2.99a1.726 1.726 0 1 1-.001 3.451 1.726 1.726 0 0 1 .001-3.452zm-116.148 36.252a1.73 1.73 0 0 1 0 3.458 1.73 1.73 0 0 1 0-3.458zm68.823-107.834a1.728 1.728 0 1 1 0 3.454 1.728 1.728 0 0 1 0-3.454zm-87.36 87.781a1.728 1.728 0 1 1-.005 3.456 1.728 1.728 0 0 1 .004-3.456zm51.69 46.953c.952 0 1.722.772 1.722 1.727 0 .953-.77 1.73-1.722 1.73a1.729 1.729 0 0 1 0-3.457zm23.879-101.76a1.726 1.726 0 1 1 .003 3.452 1.726 1.726 0 0 1-.003-3.452zm50.056 20.442a1.728 1.728 0 1 1-.004 3.455 1.728 1.728 0 0 1 .004-3.455zm-4.049-63.045a1.73 1.73 0 0 1 0 3.458 1.729 1.729 0 1 1 0-3.458zm-104.092 9.82a1.73 1.73 0 1 1 0 3.46 1.73 1.73 0 1 1 0-3.46zm7.307 16.41a1.73 1.73 0 0 1 0 3.458 1.73 1.73 0 0 1 0-3.458zm-51.65 19.364a1.726 1.726 0 1 1 .003 3.452 1.726 1.726 0 0 1-.004-3.452zm111.59 5.584a1.728 1.728 0 1 1-1.728 1.728c0-.955.77-1.728 1.728-1.728zm-1.087-23.144c.958 0 1.728.773 1.728 1.726a1.726 1.726 0 1 1-1.728-1.725zm-49.566 104.091c.958 0 1.728.776 1.728 1.726a1.729 1.729 0 1 1-1.728-1.725zM81.31 246.152a1.728 1.728 0 1 1-.001 3.456 1.728 1.728 0 0 1 0-3.456zm102.452 72.777a1.725 1.725 0 1 1 0 3.453 1.726 1.726 0 0 1 0-3.453zm-33.126-86.272c.955 0 1.725.775 1.725 1.726a1.725 1.725 0 1 1-3.45 0c0-.95.77-1.726 1.725-1.726zm26.156-65.501a1.728 1.728 0 1 1-.005 3.455 1.728 1.728 0 0 1 .005-3.455zm3.68 61.136c.957 0 1.727.772 1.727 1.725a1.726 1.726 0 1 1-1.728-1.725zm-73.914 94.779a1.725 1.725 0 1 1 0 3.452 1.727 1.727 0 0 1 0-3.453zm41.395 6.397a1.727 1.727 0 1 1-1.728 1.722c0-.95.773-1.722 1.728-1.722zM102.94 253.14c.955 0 1.725.775 1.725 1.725 0 .955-.77 1.73-1.725 1.73a1.726 1.726 0 0 1-1.725-1.73c0-.95.77-1.725 1.725-1.725zm95.113-23.85a1.725 1.725 0 0 1 0 3.453 1.726 1.726 0 1 1 0-3.453zM177.17 346.757a1.728 1.728 0 1 1 0 3.456 1.728 1.728 0 0 1 0-3.456zm31.17-107.876a1.726 1.726 0 1 1-.002 3.452 1.726 1.726 0 0 1 .002-3.452zm-33.245 43.641a1.728 1.728 0 1 1-1.728 1.728c0-.955.773-1.728 1.728-1.728zM84.19 264.994a1.728 1.728 0 1 1-1.728 1.728c0-.955.772-1.728 1.728-1.728zm14.857-.7a1.728 1.728 0 1 1 0 3.454 1.728 1.728 0 0 1 0-3.455zm-9.149-66.261a1.726 1.726 0 1 1-1.725 1.728c0-.953.773-1.728 1.725-1.728zm28.026 98.665a1.727 1.727 0 1 1 0 3.455 1.726 1.726 0 0 1-1.722-1.73c0-.95.77-1.725 1.722-1.725zm12.007-96.927a1.725 1.725 0 1 1 0 3.453 1.726 1.726 0 0 1 0-3.453zm52.07 107.019c.957 0 1.727.772 1.727 1.728A1.725 1.725 0 1 1 182 306.79zm29.136-24.907c.952 0 1.723.775 1.723 1.725a1.724 1.724 0 1 1-3.45 0c0-.95.77-1.725 1.727-1.725zm-68.66 38.087c.955 0 1.725.772 1.725 1.727 0 .953-.77 1.725-1.725 1.725a1.724 1.724 0 0 1-1.725-1.725c0-.955.77-1.727 1.725-1.727zm65.1-5.233a1.73 1.73 0 0 1 0 3.458 1.729 1.729 0 0 1 0-3.458zm-61.159-54.482a1.73 1.73 0 0 1 1.728 1.73c0 .95-.775 1.728-1.728 1.728a1.731 1.731 0 0 1-1.728-1.728c0-.955.775-1.73 1.728-1.73zm18.688 31.429a1.725 1.725 0 0 1 0 3.452 1.726 1.726 0 1 1 0-3.452zm-25.871-10.285a1.728 1.728 0 1 1-.001 3.457 1.728 1.728 0 0 1 0-3.457zm1.788 11.903a1.73 1.73 0 0 1 0 3.458 1.73 1.73 0 0 1-1.727-1.73c0-.95.775-1.728 1.727-1.728zm-48.039 29.546c.955 0 1.725.773 1.725 1.723a1.725 1.725 0 1 1-3.45 0c0-.95.77-1.723 1.725-1.723zm39.959-73.131a1.728 1.728 0 1 1 0 3.455 1.728 1.728 0 0 1 0-3.455zm-3.476 97.035a1.726 1.726 0 1 1-.002 3.451 1.726 1.726 0 0 1 .002-3.451zm18.63-159.558c.956 0 1.726.778 1.726 1.728 0 .955-.77 1.73-1.725 1.73a1.726 1.726 0 0 1-1.725-1.73c0-.95.77-1.728 1.725-1.728zm-3.58-17.59c.958 0 1.728.776 1.728 1.729a1.725 1.725 0 0 1-3.45 0c0-.953.77-1.728 1.722-1.728zm92.25 119.799c.958 0 1.728.775 1.728 1.725a1.725 1.725 0 1 1-3.453 0c0-.95.773-1.725 1.726-1.725zm-164.3.256a1.728 1.728 0 1 1-.004 3.455 1.728 1.728 0 0 1 .005-3.455zm39.312-24.086a1.728 1.728 0 0 1 0 3.455 1.726 1.726 0 0 1-1.725-1.728c0-.952.77-1.727 1.725-1.727zM69.965 252.61c.955 0 1.725.773 1.725 1.723a1.727 1.727 0 1 1-1.725-1.723zm143.656-39.825c.955 0 1.725.775 1.725 1.725 0 .958-.77 1.733-1.725 1.733a1.727 1.727 0 0 1-1.725-1.733c0-.95.77-1.725 1.725-1.725zm-98.165-38.8c.955 0 1.73.775 1.73 1.725a1.726 1.726 0 1 1-3.455 0c0-.95.772-1.725 1.725-1.725zm61.128 9.991a1.726 1.726 0 1 1 0 3.453 1.728 1.728 0 0 1 0-3.453zm-65.96 123.77c.955 0 1.725.774 1.725 1.724a1.727 1.727 0 1 1-1.725-1.723zm54.57-28.871a1.725 1.725 0 0 1 0 3.452 1.725 1.725 0 0 1-1.728-1.727c0-.953.77-1.725 1.728-1.725zm-4.549-81.9c.958 0 1.728.776 1.728 1.728a1.726 1.726 0 1 1-3.453 0c0-.952.773-1.727 1.725-1.727zm17.03 78.745a1.727 1.727 0 1 1-.004 3.454 1.727 1.727 0 0 1 .003-3.454zm-84.124-89.4a1.726 1.726 0 1 1 0 3.453 1.728 1.728 0 0 1 0-3.453zm-17.67 42.506a1.728 1.728 0 1 1 0 3.455 1.728 1.728 0 0 1 0-3.455zm1.782-23.586c.953 0 1.725.775 1.725 1.728a1.727 1.727 0 0 1-3.453 0c0-.953.77-1.728 1.728-1.728zm109.173 40.336a1.73 1.73 0 0 1 0 3.458 1.728 1.728 0 1 1 0-3.458zm27.707 76.686c.957 0 1.728.773 1.728 1.728 0 .952-.77 1.725-1.728 1.725a1.725 1.725 0 0 1 0-3.453zM84.086 191.31c.955 0 1.725.772 1.725 1.725a1.724 1.724 0 1 1-3.45 0c0-.953.77-1.725 1.725-1.725zm38.946 50.685c.958 0 1.728.775 1.728 1.725 0 .958-.77 1.733-1.728 1.733a1.729 1.729 0 0 1 0-3.458zm68.62 85.662a1.726 1.726 0 1 1 0 3.452 1.726 1.726 0 0 1 0-3.452zm-38.13-149.01a1.73 1.73 0 0 1 1.727 1.728 1.728 1.728 0 1 1-1.728-1.728zm-40.812 55.115a1.728 1.728 0 0 1 0 3.458 1.73 1.73 0 0 1 0-3.458zm-5.398 46.596a1.727 1.727 0 1 1-.004 3.454 1.727 1.727 0 0 1 .004-3.454zm66.32 34.2c.955 0 1.725.772 1.725 1.722a1.725 1.725 0 1 1-3.45 0c0-.95.77-1.722 1.725-1.722zM69.254 214.609a1.727 1.727 0 1 1-1.727 1.722c0-.95.772-1.722 1.727-1.722zm75.377 29.228c.955 0 1.725.773 1.725 1.728 0 .953-.77 1.725-1.725 1.725a1.724 1.724 0 0 1-1.725-1.725c0-.955.77-1.728 1.725-1.728zm-35.762 47.41a1.73 1.73 0 0 1 0 3.457 1.73 1.73 0 0 1-1.727-1.732 1.73 1.73 0 0 1 1.727-1.725zm91.409-109.554a1.73 1.73 0 0 1 1.727 1.728 1.73 1.73 0 0 1-1.727 1.728 1.73 1.73 0 0 1-1.728-1.728 1.73 1.73 0 0 1 1.728-1.728zM65.263 224.956c.955 0 1.726.776 1.726 1.726a1.726 1.726 0 0 1-3.45 0c0-.95.77-1.726 1.724-1.726zm55.144 55.58a1.726 1.726 0 1 1 0 3.454 1.728 1.728 0 0 1 0-3.455zm33.785 19.139a1.729 1.729 0 1 1-1.728 1.725c0-.95.776-1.725 1.728-1.725zm70.941 8.655a1.726 1.726 0 1 1 0 3.453 1.728 1.728 0 1 1 0-3.453zm-68.392-141.902a1.73 1.73 0 0 1 0 3.46 1.73 1.73 0 0 1 0-3.46zm74.004 50.342a1.727 1.727 0 1 1-.003 3.454 1.727 1.727 0 0 1 .003-3.454zm5.829 62.864a1.726 1.726 0 1 1 .002 3.453 1.726 1.726 0 0 1-.002-3.453zM73.207 302.358a1.726 1.726 0 1 1 0 3.453 1.728 1.728 0 1 1 0-3.453zm82.139-30.796c.955 0 1.725.773 1.725 1.723a1.725 1.725 0 1 1-3.45 0c0-.95.77-1.723 1.725-1.723zm85.957-32.383a1.726 1.726 0 1 1 0 3.453 1.728 1.728 0 0 1 0-3.453zm-16.793 43.58a1.728 1.728 0 1 1 0 0zm-1.315 16.63a1.728 1.728 0 1 1-1.728 1.728c0-.955.773-1.728 1.728-1.728zm-17.704-90.786c.955 0 1.725.775 1.725 1.725 0 .955-.77 1.73-1.725 1.73a1.726 1.726 0 0 1-1.726-1.73c0-.95.77-1.725 1.726-1.725zm-52.803 76.881c.955 0 1.725.775 1.725 1.725 0 .955-.77 1.73-1.725 1.73a1.726 1.726 0 0 1-1.725-1.73c0-.95.77-1.725 1.725-1.725z"/>
        <use fill="url(#c)" xlink:href="#d"/>
        <use fill="url(#e)" xlink:href="#d"/>
        <path fill="#1A1A1A" d="M0 387h170.839c19.513-19.87 41.163-41.217 60.212-56.916 24.577-20.252 34.06-54.106 23.059-82.32-10.83-27.78-38.677-43.127-74.493-41.058-33.423 1.935-58.712-25.422-85.484-54.382-18.25-19.744-37.123-40.16-60.248-53.863C21.279 90.99 9.609 87.268 0 86.01V387zm260.713-114.758c-.002 22.153-10.142 44.44-28.349 59.445-18.651 15.37-27.086 22.876-59.006 55.313H0V83.982c10.104 1.105 21.703 4.851 34.936 12.694 23.385 13.859 42.361 34.385 60.714 54.238 26.431 28.592 51.398 55.6 83.85 53.725 36.753-2.126 65.363 13.713 76.535 42.37 3.16 8.107 4.678 16.656 4.678 25.233z"/>
        <path fill="#FFF" d="M6.454 359.516a1.728 1.728 0 1 1 0 3.456 1.728 1.728 0 0 1 0-3.456zm32.284-.926c.957 0 1.727.775 1.727 1.728a1.726 1.726 0 1 1-3.453 0c0-.953.773-1.728 1.726-1.728zm-15.865-42.044a1.726 1.726 0 1 1 0 3.452 1.726 1.726 0 1 1 0-3.452zm67.844 51.738a1.728 1.728 0 1 1 0 3.455 1.728 1.728 0 0 1 0-3.455zM35.348 344.47a1.73 1.73 0 0 1 0 3.457 1.729 1.729 0 0 1 0-3.457zm5.996-26.72a1.73 1.73 0 0 1 0 3.459 1.728 1.728 0 1 1 0-3.458zm-22.548 52.28c.952 0 1.727.778 1.727 1.728 0 .953-.775 1.73-1.727 1.73a1.732 1.732 0 0 1-1.728-1.73c0-.95.775-1.727 1.728-1.727zm-.98 11.516a1.73 1.73 0 0 1 1.728 1.727 1.728 1.728 0 1 1-1.728-1.728zm22.358-41.127a1.726 1.726 0 1 1 0 3.452 1.724 1.724 0 0 1-1.722-1.73c0-.95.77-1.722 1.722-1.722zm-30.146 7.64a1.727 1.727 0 1 1-.004 3.454 1.727 1.727 0 0 1 .004-3.454zm68.277 20.585a1.728 1.728 0 1 1-1.728 1.728c0-.956.77-1.728 1.728-1.728zm-35.856-36.3c.957 0 1.728.776 1.728 1.728a1.727 1.727 0 1 1-3.453 0c0-.952.772-1.728 1.725-1.728zM60.445 363.4a1.727 1.727 0 1 1-.004 3.454 1.727 1.727 0 0 1 .004-3.454zm-11.827-17.992c.955 0 1.725.775 1.725 1.728a1.726 1.726 0 1 1-3.45 0c0-.953.77-1.728 1.725-1.728zm20.614-2.26a1.726 1.726 0 1 1 0 3.454 1.728 1.728 0 0 1 0-3.455zm6.85 38.916a1.726 1.726 0 1 1 0 3.455 1.728 1.728 0 0 1 0-3.455zm-49.798-40.07a1.728 1.728 0 1 1 0 3.454 1.728 1.728 0 0 1 0-3.453zM14.492 374.97a1.726 1.726 0 1 1 .004 3.452 1.726 1.726 0 0 1-.004-3.452zM60.5 332.365a1.73 1.73 0 0 1 0 3.458 1.729 1.729 0 1 1 0-3.458zm-36.846 51.179a1.728 1.728 0 1 1-1.728 1.728c0-.956.77-1.728 1.728-1.728zM22.568 360.4c.957 0 1.728.772 1.728 1.725a1.726 1.726 0 1 1-1.728-1.725zM5.763 374.703c.955 0 1.726.775 1.726 1.725a1.725 1.725 0 1 1-3.45 0c0-.95.77-1.725 1.724-1.725zM31.92 309.2a1.728 1.728 0 1 1-.005 3.455 1.728 1.728 0 0 1 .005-3.455zm3.68 61.136c.957 0 1.727.773 1.727 1.725a1.726 1.726 0 1 1-1.728-1.725zm17.583.999a1.725 1.725 0 0 1 0 3.452 1.726 1.726 0 1 1 0-3.452zm10.285 9.59a1.726 1.726 0 1 1-.001 3.452 1.726 1.726 0 0 1 .001-3.452zM3.225 329.24c.956 0 1.726.777 1.726 1.727a1.726 1.726 0 0 1-3.45 0c0-.95.77-1.727 1.724-1.727zm65.524 25.59c.955 0 1.725.775 1.725 1.725 0 .958-.77 1.733-1.725 1.733a1.727 1.727 0 0 1-1.726-1.733c0-.95.77-1.725 1.726-1.725zm-37.037-28.808a1.726 1.726 0 1 1 0 3.452 1.728 1.728 0 0 1 0-3.453zm-15.94 12.999a1.726 1.726 0 1 1-1.725 1.728c0-.953.773-1.728 1.726-1.728zM8.65 320.69a1.73 1.73 0 0 1 1.728 1.728 1.728 1.728 0 1 1-1.728-1.728zm46.756 3.048a1.73 1.73 0 0 1 1.728 1.727 1.73 1.73 0 0 1-1.728 1.728 1.73 1.73 0 0 1-1.727-1.728 1.73 1.73 0 0 1 1.727-1.727zM11.87 308.474a1.73 1.73 0 0 1 0 3.46 1.73 1.73 0 0 1 0-3.46zm74.004 50.341a1.727 1.727 0 1 1-.004 3.454 1.727 1.727 0 0 1 .004-3.454zm10.558 22.41a1.726 1.726 0 1 1 0 3.452 1.728 1.728 0 0 1 0-3.453zm-35.813-30.577c.955 0 1.725.775 1.725 1.725 0 .955-.77 1.73-1.725 1.73a1.726 1.726 0 0 1-1.725-1.73c0-.95.77-1.725 1.725-1.725z"/>
    </g>
</svg>
