<svg xmlns="http://www.w3.org/2000/svg" xmlns:xlink="http://www.w3.org/1999/xlink" width="435" height="331" viewBox="0 0 435 331">
    <defs>
        <path id="a" d="M148.021 162.337c-26.707 42.72-56.193 103.198-103.414 85.63C-2.613 230.4-8.428 155.001 9.143 107.781 26.711 60.563 98.045-14.75 145.262 2.82c47.223 17.568 37.11 104.563 2.76 159.516"/>
        <linearGradient id="c" x1="100%" x2="0%" y1="50%" y2="50%">
            <stop offset="0%" stop-color="#D4FC79"/>
            <stop offset="100%" stop-color="#96E6A1"/>
        </linearGradient>
        <linearGradient id="e" x1="0%" x2="102%" y1="0%" y2="101%">
            <stop offset="0%" stop-color="#84FAB0"/>
            <stop offset="100%" stop-color="#8FD3F4"/>
        </linearGradient>
        <path id="d" d="M171.49 0c-5.654 15.44-6.017 37.213 11.016 66.04 38.292 64.806 124.246 100.877 120.691 162.53C297.985 318.97 386.435 341.543 435 295V0H171.49z"/>
    </defs>
    <g fill="none" fill-rule="evenodd">
        <g transform="rotate(119 185.087 218.245)">
            <mask id="b" fill="#fff">
                <use xlink:href="#a"/>
            </mask>
            <use fill="#FFF" xlink:href="#a"/>
            <path fill="#000" d="M-133.125 154.404l-4.595-5.483L137.701-82.074l4.598 5.48-275.424 230.998zm9.703 11.567l-4.595-5.483L147.404-70.507l4.598 5.48-275.424 230.998zm9.701 11.568l-4.595-5.483L157.105-58.94l4.598 5.48-275.424 230.998zm9.703 11.567l-4.595-5.48 275.42-230.998 4.599 5.48-275.424 230.998zm9.7 11.568l-4.594-5.48 275.42-230.998 4.599 5.48-275.424 230.998zm9.704 11.567l-4.595-5.48 275.42-230.998 4.598 5.48-275.423 230.998zm9.7 11.567l-4.594-5.48 275.42-230.995 4.598 5.477-275.423 230.998zm9.704 11.568l-4.595-5.48L205.615-1.099l4.598 5.477L-65.21 235.376zm9.7 11.567l-4.594-5.48 275.42-230.995 4.598 5.48-275.423 230.995zm9.704 11.57l-4.595-5.482 275.42-230.995 4.598 5.48-275.423 230.998zm9.7 11.568l-4.594-5.483L234.72 33.603l4.598 5.48-275.423 230.998zm9.703 11.568l-4.594-5.48L244.423 45.17l4.598 5.48-275.424 230.998zm9.701 11.567l-4.594-5.48 275.42-230.998 4.598 5.48-275.424 230.998zm9.703 11.567l-4.594-5.48 275.42-230.997 4.598 5.48L-6.999 304.782zm9.701 11.568l-4.594-5.48 275.42-230.998 4.598 5.48L2.702 316.35zm9.703 11.568l-4.595-5.48L283.231 91.44l4.598 5.482L12.405 327.92zm9.701 11.567l-4.595-5.48 275.421-230.998 4.598 5.483L22.106 339.486zm9.703 11.57l-4.595-5.483 275.42-230.995 4.598 5.48L31.81 351.056zm9.701 11.568l-4.595-5.483 275.421-230.995 4.598 5.48L41.51 362.624z" mask="url(#b)"/>
        </g>
        <path fill="#8CDFE0" d="M122.23 0c-5.275 14.376-5.56 34.924 10.508 62.119 14.533 24.597 36.185 44.673 57.124 64.085 30.712 28.477 59.725 55.376 57.673 90.928-2.194 38.097 14.082 67.718 43.544 79.237 29.922 11.702 65.824 1.615 87.303-24.528 15.723-19.135 36.621-40.74 56.618-60.565V0H122.23zm168.048 298.417c-30.391-11.884-47.189-42.317-44.935-81.41 1.988-34.518-26.654-61.075-56.977-89.19-21.054-19.521-42.823-39.706-57.521-64.58-16.221-27.453-15.92-48.3-10.534-63.237H435v214.221c-19.51 19.396-39.609 40.384-54.918 59.017-15.914 19.367-39.55 30.152-63.043 30.154-9.096 0-18.164-1.615-26.761-4.975z"/>
        <use fill="url(#c)" xlink:href="#d"/>
        <use fill="url(#e)" xlink:href="#d"/>
        <path fill="#FDE44F" d="M435 201.394c-14.585-1.996-27.83-7.7-39.43-17.348-38.22-31.785-48.774-111.797-11.033-157.18C403.586 3.96 419.41 8.716 435 23.132v178.262z"/>
        <path fill="#1A1A1A" d="M236.585 76.667a2.07 2.07 0 0 1 0 4.142 2.076 2.076 0 0 1-2.068-2.074c0-1.137.928-2.068 2.068-2.068zm83.812-75.33a2.068 2.068 0 1 1 0 4.136 2.069 2.069 0 0 1 0-4.136zM193.31 115.218a2.069 2.069 0 0 1 0 4.136 2.07 2.07 0 0 1-2.071-2.074c0-1.137.924-2.062 2.07-2.062zm86.465-60.173c1.14 0 2.069.93 2.069 2.068a2.07 2.07 0 1 1-2.068-2.068zM192.062 9.222a2.07 2.07 0 0 1 0 4.14 2.07 2.07 0 0 1 0-4.14zm-75.696 42.076c1.143 0 2.065.928 2.065 2.068 0 1.14-.922 2.071-2.065 2.071a2.069 2.069 0 0 1-2.065-2.07c0-1.141.922-2.069 2.065-2.069zm107.863 31.849a2.07 2.07 0 1 1-2.068 2.065c0-1.14.928-2.065 2.068-2.065zm106.133-67.822a2.071 2.071 0 0 1 0 4.142c-1.14 0-2.068-.93-2.068-2.071 0-1.14.928-2.071 2.068-2.071zM179.675 116.24a2.071 2.071 0 0 1 0 4.142 2.069 2.069 0 0 1-2.065-2.071c0-1.137.925-2.071 2.065-2.071zm99.3-115.164a2.07 2.07 0 0 1 0 4.142 2.071 2.071 0 0 1 0-4.142zm-42.628 95.982a2.065 2.065 0 1 1 0 4.133 2.067 2.067 0 1 1 0-4.133zm34.666-20.138a2.07 2.07 0 0 1 0 4.143 2.076 2.076 0 0 1-2.07-2.071c0-1.144.927-2.072 2.07-2.072zm-124.211 7.96a2.066 2.066 0 1 1-.002 4.131 2.066 2.066 0 0 1 .002-4.132zm14.353 22.153a2.067 2.067 0 1 1 .003 4.134 2.067 2.067 0 0 1-.003-4.134zm33.809-44.32a2.069 2.069 0 1 1-.001 4.137 2.069 2.069 0 0 1 0-4.137zm-80.977-32.293c1.143 0 2.065.925 2.065 2.065a2.067 2.067 0 1 1-2.065-2.065zm114.341-19.986c1.144 0 2.071.925 2.071 2.065a2.07 2.07 0 0 1-4.136 0c0-1.14.925-2.065 2.065-2.065zm22.552 89.76c1.143 0 2.065.925 2.065 2.068 0 1.14-.922 2.071-2.065 2.071a2.069 2.069 0 0 1-2.065-2.07c0-1.144.922-2.069 2.065-2.069zM207.96 69.083a2.067 2.067 0 1 1-2.068 2.062c0-1.137.925-2.062 2.068-2.062zm50.303-8.348a2.068 2.068 0 1 1 0 4.137A2.067 2.067 0 0 1 256.2 62.8c0-1.138.925-2.066 2.065-2.066zM205.36 23.763a2.068 2.068 0 1 1 0 4.136 2.068 2.068 0 0 1 0-4.136zm-56.718 20.319c1.143 0 2.065.927 2.065 2.07a2.068 2.068 0 0 1-2.065 2.069 2.068 2.068 0 0 1-2.065-2.068c0-1.144.921-2.071 2.065-2.071zm126.415-24.91c1.14 0 2.068.924 2.068 2.064a2.069 2.069 0 0 1-4.136 0c0-1.14.928-2.065 2.068-2.065zm-21.142-8.705a2.071 2.071 0 0 1 0 4.14 2.07 2.07 0 0 1 0-4.14zm-72.682 2.219c1.143 0 2.065.928 2.065 2.068 0 1.14-.922 2.07-2.065 2.07a2.069 2.069 0 0 1-2.065-2.07c0-1.14.922-2.068 2.065-2.068zm127.613 3.32c1.144 0 2.066.925 2.066 2.068a2.066 2.066 0 1 1-4.13 0c0-1.143.921-2.068 2.064-2.068zm-166.823-2.683a2.067 2.067 0 1 1 .003 4.133 2.067 2.067 0 0 1-.003-4.133zm103.42 98.776c1.14 0 2.069.925 2.069 2.068a2.068 2.068 0 0 1-4.136 0c0-1.143.924-2.068 2.068-2.068zm-31.407 4.382c1.143 0 2.068.924 2.068 2.068 0 1.14-.925 2.07-2.068 2.07a2.069 2.069 0 1 1 0-4.14zm52.282-68.679c1.143 0 2.065.925 2.065 2.065a2.064 2.064 0 1 1-4.13 0c0-1.14.921-2.065 2.065-2.065zm57.801-14.637a2.07 2.07 0 0 1 0 4.14 2.07 2.07 0 0 1 0-4.14zm-44.376 32.25a2.07 2.07 0 0 1 0 4.139 2.069 2.069 0 1 1 0-4.14zM130.781 38.309a2.068 2.068 0 0 1 0 4.136 2.069 2.069 0 0 1 0-4.136zm105.374-23.884a2.066 2.066 0 1 1 0 4.133 2.064 2.064 0 0 1-2.065-2.068c0-1.14.922-2.065 2.065-2.065zm43.24 59.366a2.067 2.067 0 1 1 0 4.133 2.066 2.066 0 1 1 0-4.133zm-153.064-50.72c1.143 0 2.065.927 2.065 2.064a2.065 2.065 0 1 1-4.13 0c0-1.137.922-2.065 2.065-2.065zm66.159 57.095c1.14 0 2.062.93 2.062 2.068 0 1.14-.922 2.07-2.062 2.07a2.07 2.07 0 0 1 0-4.138zm92.544 18.895a2.067 2.067 0 1 1 0 4.133 2.068 2.068 0 0 1-2.068-2.065c0-1.143.927-2.068 2.068-2.068zm-52.15 8.903c1.143 0 2.068.925 2.068 2.062a2.07 2.07 0 0 1-2.069 2.074 2.07 2.07 0 0 1 0-4.136zm62.16-29.695a2.066 2.066 0 0 1 0 4.133 2.064 2.064 0 0 1-2.068-2.065c0-1.143.922-2.068 2.068-2.068zm-183.318-66.89c1.146 0 2.068.928 2.068 2.065a2.065 2.065 0 1 1-4.133 0c0-1.137.925-2.065 2.065-2.065zm150.24 14.371a2.066 2.066 0 1 1 .004 4.132 2.066 2.066 0 0 1-.004-4.132zM147.687 66.017a2.067 2.067 0 1 1 0 4.133 2.068 2.068 0 0 1-2.068-2.065c0-1.144.928-2.068 2.068-2.068zM290.52 25.125a2.07 2.07 0 0 1 0 4.14 2.07 2.07 0 0 1 0-4.14zm-95.812 11.267c1.14 0 2.068.925 2.068 2.065a2.069 2.069 0 0 1-4.136 0c0-1.14.928-2.065 2.068-2.065zm107.733-3.58a2.066 2.066 0 1 1-.001 4.132 2.066 2.066 0 0 1 .001-4.132zM163.407 76.208c1.144 0 2.068.925 2.068 2.068 0 1.14-.924 2.071-2.068 2.071a2.07 2.07 0 0 1 0-4.139zm-22.19-24.004a2.068 2.068 0 0 1 0 4.136 2.069 2.069 0 0 1 0-4.136zm61.875 56.204c1.14 0 2.062.925 2.062 2.068 0 1.14-.922 2.071-2.062 2.071a2.07 2.07 0 0 1 0-4.139zm88.504-97.341a2.068 2.068 0 0 1 0 4.136 2.067 2.067 0 0 1-2.068-2.068c0-1.14.922-2.068 2.068-2.068zM182.01 93.759c1.147 0 2.068.928 2.068 2.065a2.07 2.07 0 1 1-2.068-2.065zM138.241 2.433a2.069 2.069 0 1 1 0 4.137 2.069 2.069 0 0 1 0-4.137zm122.64 87.117a2.065 2.065 0 1 1 0 4.134 2.067 2.067 0 0 1 0-4.134zm-92.416 4.958a2.065 2.065 0 1 1 0 4.133 2.067 2.067 0 0 1 0-4.133zm49.55 7.657a2.067 2.067 0 1 1-2.068 2.062c0-1.137.925-2.062 2.068-2.062zm-53.88-91.367c1.143 0 2.065.927 2.065 2.065a2.067 2.067 0 0 1-2.065 2.07 2.067 2.067 0 0 1-2.065-2.07c0-1.138.922-2.065 2.065-2.065zM252.99 122.86a2.069 2.069 0 1 1 0 4.137 2.069 2.069 0 0 1 0-4.137zm-2.484-76.891a2.068 2.068 0 1 1 0 4.136 2.069 2.069 0 0 1 0-4.136zM141.688 24.988a2.068 2.068 0 1 1 0 4.136 2.069 2.069 0 0 1 0-4.136zm17.785-.84a2.068 2.068 0 1 1 0 4.137 2.067 2.067 0 0 1-2.065-2.071c0-1.137.925-2.065 2.065-2.065zM182.07 62.94a2.067 2.067 0 1 1 0 4.136 2.066 2.066 0 0 1-2.062-2.07c0-1.138.922-2.066 2.062-2.066zm76.703 12.08c1.146 0 2.068.925 2.068 2.068 0 1.14-.922 2.065-2.068 2.065a2.066 2.066 0 1 1 0-4.133zm34.877-29.815c1.14 0 2.062.928 2.062 2.065a2.064 2.064 0 1 1-4.13 0c0-1.137.922-2.065 2.068-2.065zM211.46 90.796c1.143 0 2.065.924 2.065 2.068 0 1.14-.922 2.065-2.065 2.065a2.063 2.063 0 0 1-2.065-2.065c0-1.144.922-2.068 2.065-2.068zm77.927-6.264a2.07 2.07 0 0 1 0 4.14 2.07 2.07 0 0 1 0-4.14zm-73.21-65.218c1.14 0 2.069.928 2.069 2.071a2.072 2.072 0 0 1-2.069 2.069 2.071 2.071 0 0 1 0-4.14zm22.371 37.622a2.066 2.066 0 1 1-2.068 2.065c0-1.14.925-2.065 2.068-2.065zm-30.97-12.31a2.069 2.069 0 1 1 0 4.137 2.069 2.069 0 0 1 0-4.138zm2.142 14.248a2.07 2.07 0 0 1 0 4.139 2.071 2.071 0 0 1-2.068-2.071c0-1.138.927-2.068 2.068-2.068zm-57.505 35.368c1.143 0 2.065.924 2.065 2.062a2.065 2.065 0 1 1-4.13 0c0-1.138.922-2.062 2.065-2.062zM200.048 6.7c1.14 0 2.068.925 2.068 2.065a2.069 2.069 0 0 1-4.136 0c0-1.14.925-2.065 2.068-2.065zm-4.16 116.155a2.066 2.066 0 0 1 0 4.133 2.064 2.064 0 0 1-2.069-2.065c0-1.143.922-2.068 2.068-2.068zm128.443-68.65c1.146 0 2.068.929 2.068 2.066a2.065 2.065 0 1 1-4.133 0c0-1.137.925-2.065 2.065-2.065zm-196.675.308a2.068 2.068 0 0 1 0 4.136 2.069 2.069 0 0 1 0-4.136zm47.058-28.833a2.069 2.069 0 0 1 0 4.136 2.066 2.066 0 0 1-2.065-2.068c0-1.14.921-2.068 2.065-2.068zM124.66 10.163c1.143 0 2.065.925 2.065 2.062a2.067 2.067 0 1 1-2.065-2.062zm48.67 66.002c1.144 0 2.065.924 2.065 2.062a2.067 2.067 0 1 1-2.065-2.062zm65.323-34.562a2.066 2.066 0 1 1-2.068 2.065c0-1.14.922-2.065 2.068-2.065zm14.94-3.776a2.067 2.067 0 1 1-.005 4.135 2.067 2.067 0 0 1 .005-4.135zM264.56 1.743a2.07 2.07 0 0 1 0 4.14 2.069 2.069 0 1 1 0-4.14zm33.166 91.797c1.146 0 2.068.925 2.068 2.068 0 1.14-.922 2.065-2.068 2.065a2.066 2.066 0 1 1 0-4.133zm-27.4 6.457a2.066 2.066 0 0 1 0 4.133 2.064 2.064 0 0 1-2.069-2.065c0-1.144.922-2.068 2.068-2.068zm-100.96-56.62a2.067 2.067 0 1 1-.005 4.135 2.067 2.067 0 0 1 .005-4.135zm79.388 40.939c1.144 0 2.065.925 2.065 2.062a2.065 2.065 0 1 1-4.13 0c0-1.137.922-2.062 2.065-2.062zM214.04-.338c1.143 0 2.065.925 2.065 2.068 0 1.14-.922 2.065-2.065 2.065a2.063 2.063 0 0 1-2.065-2.065c0-1.143.922-2.068 2.065-2.068zm-42.808 56.75a2.07 2.07 0 0 1 0 4.14 2.072 2.072 0 0 1-2.068-2.074c0-1.134.928-2.065 2.068-2.065zm13.812-12.821a2.069 2.069 0 1 1-.001 4.135 2.069 2.069 0 0 1 0-4.135zm40.441 22.91a2.07 2.07 0 1 1-2.068 2.065 2.07 2.07 0 0 1 2.068-2.064zm84.92 10.362a2.067 2.067 0 1 1 0 4.133 2.068 2.068 0 0 1-2.068-2.065c0-1.143.928-2.068 2.068-2.068zm13.695-34.35a2.067 2.067 0 1 1 .003 4.132 2.067 2.067 0 0 1-.003-4.133zM128.542 69.713a2.067 2.067 0 1 1 0 4.133 2.068 2.068 0 0 1-2.068-2.065c0-1.143.928-2.068 2.068-2.068zm98.323-36.864c1.144 0 2.065.924 2.065 2.062a2.065 2.065 0 1 1-4.13 0c0-1.138.922-2.062 2.065-2.062zm82.793 13.403c1.14 0 2.068.925 2.068 2.068a2.068 2.068 0 0 1-4.137 0c0-1.143.925-2.068 2.069-2.068zm-1.574 19.907a2.068 2.068 0 1 1 0 4.136 2.069 2.069 0 0 1 0-4.136zm-84.4-16.645c1.143 0 2.065.928 2.065 2.065a2.067 2.067 0 0 1-2.065 2.071 2.067 2.067 0 0 1-2.065-2.07c0-1.138.922-2.066 2.065-2.066z"/>
        <path fill="#FFF" d="M112.437 0c-8.65 15.071-13.225 39.059 7.11 73.475 15.283 25.863 38.048 46.969 60.062 67.382 32.294 29.942 62.8 58.225 60.642 95.606-2.307 40.054 14.807 71.199 45.784 83.312 31.461 12.305 69.21 1.697 91.794-25.79 15.98-19.447 36.81-41.32 57.171-61.586V0H112.437zm172.756 321.929c-31.957-12.495-49.617-44.493-47.247-85.598 2.09-36.294-28.025-64.217-59.91-93.78-22.135-20.524-45.026-41.747-60.48-67.9C97.439 40.603 101.493 15.816 109.979 0H435v235.546c-19.826 19.79-39.85 41.002-55.384 59.909-16.734 20.363-41.584 31.703-66.286 31.705-9.564 0-19.098-1.698-28.137-5.231z"/>
        <path fill="#FFF" d="M431.366 131.298c1.143 0 2.065.928 2.065 2.068 0 1.14-.922 2.071-2.065 2.071a2.069 2.069 0 0 1-2.065-2.07c0-1.141.922-2.069 2.065-2.069zm-2.38-20.877c1.144 0 2.066.925 2.066 2.065a2.067 2.067 0 1 1-2.065-2.065zm-2.26-19.042c1.146 0 2.068.928 2.068 2.065a2.065 2.065 0 1 1-4.133 0c0-1.137.925-2.065 2.065-2.065zm-2.66-21.201a2.066 2.066 0 1 1 .003 4.132 2.066 2.066 0 0 1-.004-4.132zm9.967-13.117c1.143 0 2.065.928 2.065 2.065a2.067 2.067 0 0 1-2.065 2.07 2.067 2.067 0 0 1-2.065-2.07c0-1.137.922-2.065 2.065-2.065z"/>
    </g>
</svg>
