<svg xmlns="http://www.w3.org/2000/svg" xmlns:xlink="http://www.w3.org/1999/xlink" width="100" height="100" viewBox="0 0 100 100">
    <defs>
        <path id="a" d="M50 100c27.614 0 50-22.386 50-50S77.614 0 50 0 0 22.386 0 50s22.386 50 50 50z"/>
        <path id="c" d="M0 .444h137.292V132H0z"/>
    </defs>
    <g fill="none" fill-rule="evenodd">
        <mask id="b" fill="#fff">
            <use xlink:href="#a"/>
        </mask>
        <use fill="#FDE44F" fill-rule="nonzero" xlink:href="#a"/>
        <path fill="#FFF" d="M7.832 78.269l15.17-11.194 3.891-3.27c-1.803-1.672-2.705-4.592-2.705-8.76v-6.98c-3.086-.888-4.995-3.401-5.727-7.54-1.098-6.208-.336-10.642 1.558-10.642 1.893 0 5.45 3.046 5.45 4.434 0 .926 1.298-4.694 3.896-16.86l6.18-5.606 39.537 4.937 4.721 20.524c.383-4.594 1.428-6.891 3.137-6.891 2.564 0 3.495 3.647 3.495 5.27 0 1.621-2.793 8.268-4.266 10.045-.982 1.185-1.458 1.43-1.43.735.623 4.974.623 8.595 0 10.863-.624 2.268-1.735 4.78-3.333 7.538.975 2.493 1.774 3.897 2.397 4.21.936.472 11.056 4.478 12.747 7.781 1.128 2.202-2.075 8.42-9.61 18.653L50 102.166h-5.885c-5.714 0-15.83-3.011-30.351-9.031L7.832 78.269z" mask="url(#b)"/>
        <g mask="url(#b)">
            <path fill="#000" d="M32.728 31.248c-.062.083-.049.227.076.253 2.628.531 5.758.196 8.356-.457 1.97-.494 3.498-1.692 3.46-3.896-.023-1.39-.762-4.19-2.563-4.212-1.434-.015-1.88 1.503-2.023 2.85-.489-.83-1.228-1.514-2.234-1.094-.944.395-1.015 1.576-.883 2.648-.693-.591-1.663-.768-2.638-.341-1.636.716-2.123 2.59-1.586 4.188.009.024.025.04.035.06M57.9 26.922c.832 4.656 7.933 6.06 11.699 4.686a.397.397 0 0 0 .26-.493.498.498 0 0 0 .072-.148c.398-1.38.838-4.888-.944-5.628-.923-.384-1.71.272-2.252 1.136-.108-1.39-.574-2.794-1.874-3.097-1.223-.286-2.084.628-2.53 1.732-.391-1.332-1.188-2.51-2.691-2.073-1.59.462-2.233 2.267-1.706 3.726a.202.202 0 0 0-.034.159M42.483 35.848c-.012-.514-.773-.514-.788 0-.05 1.852-.453 4.687-2.825 4.818-2.373.132-3.077-3.108-3.116-4.894-.001-.098-.146-.122-.171-.023-.531 2.103.614 5.477 3.102 5.622 2.906.169 3.854-3.185 3.798-5.523M68.143 35.5c-.063-.518-.87-.533-.814 0 .218 2.069-.237 6.445-3.266 5.643-2.501-.663-2.813-4-2.786-6.123.002-.205-.306-.251-.355-.049-.631 2.621.22 6.585 3.336 7.065 3.471.535 4.201-3.973 3.885-6.536M62.14 51.898c-.937 2.648-2.91 4.714-5.452 5.833-3.056 1.346-5.999.898-9.152.302-.268-.05-.476.335-.199.477 5.886 3.01 13.553-.147 15.783-6.338.225-.623-.76-.896-.98-.274"/>
            <g transform="translate(-19 -2.444)">
                <mask id="d" fill="#fff">
                    <use xlink:href="#c"/>
                </mask>
                <path fill="#000" d="M119.318 113.76c4.563-2.326 8.935-5.088 13.358-7.675.732 1.07 1.459 2.141 2.184 3.213a.563.563 0 0 0-.17.08c-4.537 3.14-9.34 5.663-14.134 8.337-.3-1.33-.72-2.654-1.238-3.956M4.834 108.392c.058-.108.122-.213.18-.32 1.708 2.015 4.398 3.24 6.639 4.48 2.79 1.545 5.645 2.85 8.715 3.67-.5.935-.994 1.872-1.477 2.816-5.52-1.469-11.194-3.56-15.755-7.1a41.023 41.023 0 0 1 1.698-3.546m4.157-6.64c.597-.872 1.207-1.734 1.82-2.594 2.893 4.808 8.923 7.25 14.083 8.67-.681 1.04-1.26 2.213-1.802 3.303-3.025-.779-5.651-2.466-8.322-4.059-2.13-1.27-4.32-3.136-6.663-4.014.293-.437.586-.874.884-1.307m7.846-10.419c10.757 8.555 25.785 11.49 39.112 12.016 8.334.328 16.652-.326 24.93-1.255 7.308-.82 14.707-1.6 21.93-3.018 6.794-1.333 13.4-3.743 18.535-8.582a195.852 195.852 0 0 1 3.36 4.377c-11.633 8.495-26.55 9.721-40.413 10.593-15.721.988-31.737 1.703-47.24-1.715-8.194-1.807-15.678-4.946-23.074-8.853.93-1.207 1.885-2.393 2.86-3.563m8.27-8.727c8.45 9.545 23.1 8.615 34.413 11.175.13.03.243.001.337-.052a48.18 48.18 0 0 0 2.023 2.095c.614.594 1.41 1.364 2.292 2.096-7.533-.208-14.938-1.658-22.2-3.692-3.813-1.068-7.587-2.274-11.346-3.52-3.372-1.119-6.701-2.118-9.772-3.93a82.298 82.298 0 0 1 4.254-4.172m16.874-1.297c1.829.922 4.488 2.506 6.693 2.055a107.626 107.626 0 0 0 4.923 4.797c-4.166-.4-8.224-1.21-12.185-2.687a45.535 45.535 0 0 1-6.53-3.052c-1.493-.847-3.033-2.204-4.664-2.907-.267-.137-.682-.308-.796-.575a82.072 82.072 0 0 1 3.916-2.905c2.437 2.221 5.746 3.815 8.643 5.274m-1.697-9.632c.249-.125.493-.267.734-.417.016.037.03.075.049.112.036.076.07.153.11.226 1.624 3.423 3.808 6.442 6.277 9.231a89.694 89.694 0 0 1-7.206-9.112c.006-.004.023-.025.036-.04m2.369-1.036c.199-.413.483-.815.806-1.203a11.696 11.696 0 0 0 1.556-1.575c.248-.222.496-.445.748-.663.004-.003.004-.006.007-.009 2.17 3.515 5.337 6.394 9.163 8.321 7.622 3.84 17.075 4.257 25.288 2.384 6.22-1.418 12.254-4.744 16.057-9.963a26 26 0 0 0 1.483 3.502c-.02.022-.04.043-.058.07-3.854 5.615-8.496 10.59-13.388 15.283-4.505 4.321-9.118 9.255-14.602 12.305-.212-.235-.616-.327-.831-.05-.188.241-1.177-.295-2.198-.952a9.657 9.657 0 0 0-.48-.424 514.503 514.503 0 0 1-3.056-2.467c-.472-.384-.94-.773-1.41-1.16-.393-.407-.782-.82-1.163-1.239-2.192-2.412-4.321-4.813-6.734-7.006a59.764 59.764 0 0 1-4.86-4.959c-.668-1.282-1.827-2.34-2.7-3.46-1.343-1.726-2.377-3.679-3.588-5.512-.161-.45-.21-.873-.04-1.223m1.05-10.869c-.492-2.929-.513-6.004-.274-9.043.077-.099.08-.24.029-.367.167-1.959.439-3.9.76-5.776a66.456 66.456 0 0 1 1.099-5.146.832.832 0 0 0 .213-.24c2.668-4.498 4.635-9.476 6.112-14.497a73.338 73.338 0 0 0 1.763-7.392c1.784 1.988 4.715 3.267 7.019 4.256a46.1 46.1 0 0 0 15.505 3.657c.825.048 1.163-.883.867-1.53-.017-.038-.038-.07-.056-.107 4.14.246 8.364-.4 12.306-1.833 4.803 4.715 6.62 11.855 8.01 18.311.097.444.44.68.818.723 1.637 6.663 3.57 13.438.804 19.708-2.93 6.644-6.985 12.125-15.734 15.606-13.555 5.393-36.298 1.127-39.24-16.33m-4.588-14.126c-1.088-2.267-1.907-4.716-1.993-7.256-.081-2.385 1.344-7.704 4.73-4.85.895.755 1.566 1.775 2.04 2.846.024.796.05 1.591.082 2.387a.856.856 0 0 0 .647.804c-.087.313-.177.626-.26.941-.612-1.612-2.057-4.683-3.762-3.622-.767.477-.696 1.914-.6 2.674.18 1.398.793 2.858 1.737 3.898.225.25.548-.066.429-.335-.381-.866-.903-1.654-1.2-2.56a5.91 5.91 0 0 1-.254-1.149 3.333 3.333 0 0 1-.05-.76c-.153-.607.055-.892.626-.855.645-.164.793-.016 1.203.454.268.307.504.687.709 1.042.352.608.633 1.251 1 1.848a55.465 55.465 0 0 0-1.473 8.747c-1.84-.89-2.688-2.328-3.611-4.254m60.659-6.405c.42-.89.474-1.048 1.475-.702 1.037.36.946.47.748 1.58-.278 1.558-1.147 2.86-1.837 4.245-.221.445.38.798.656.39 1.004-1.485 3.533-6.128 1.254-7.58-.797-.509-1.655.046-2.218.672a14.86 14.86 0 0 0 .257-2.09l.058-1.114c.557-.623 1.259-1.045 2.182-1.014 2.987.098 2.699 4.228 2.289 6.2a16.3 16.3 0 0 1-1.711 4.61c-.78 1.402-1.84 2.503-2.828 3.72a84.067 84.067 0 0 0-.885-6.265c.088-.903.17-1.827.56-2.652m-1.42 33.308c.054.097.105.196.159.292-4.642 8.028-11.728 14.05-18.863 19.757l-.153.015a284.03 284.03 0 0 0 5.234-4.829c4.948-4.705 9.597-9.694 13.623-15.235m10.306 6.1c.306-.12.352-.462.219-.674.114.08.228.155.34.237a44.941 44.941 0 0 1 2.974 2.37c-7.921 3.404-16.053 5.222-24.498 6.53.128-.116.259-.23.388-.348a72.2 72.2 0 0 0 5.178-5.173c4.893.444 10.89-1.172 15.399-2.942m6.82 5.038a68.248 68.248 0 0 1 3.74 4.18.556.556 0 0 0-.087.044c-3.214 2.051-6.853 3.028-10.485 4.03a236.33 236.33 0 0 1-11.574 2.898c-7.572 1.682-15.058 2.382-22.725 3.03.357-.259.687-.504.975-.71a121.926 121.926 0 0 0 5.105-3.865c5.809.102 11.92-1.835 17.445-3.216 5.976-1.494 11.958-3.33 17.425-6.242a.546.546 0 0 0 .18-.149m14.25 18.136c-4.17 2.395-8.556 4.575-12.588 7.177a.353.353 0 0 0-.1.1c-.182-.316-.368-.63-.557-.94a.522.522 0 0 0-.225-.359c-.394-.632-.8-1.252-1.218-1.858 4.608-1.183 9-3.96 12.767-6.834.646.901 1.284 1.806 1.92 2.714m-19.014 5.713c.63-.085 1.254-.248 1.872-.382.582-.127 1.205-.177 1.735-.43.255.452.5.91.745 1.37-1.494.566-3.076 1.25-4.373 2.132.028-.934.032-1.84.02-2.69m-.738 9.016c.872.315 2.154-.566 2.946-.877a94.719 94.719 0 0 0 4.716-2.024c.38 1.012.736 2.032 1.099 3.05-3.391 1.692-6.9 3.02-10.455 4.303.782-1.279 1.325-2.812 1.694-4.452m-13.922 4.271c.11-.389-.187-.916-.697-.849-1.034-1.402-1.793-3.11-2.365-4.909a.675.675 0 0 0-.077-.244c-.522-1.696-.884-3.464-1.163-5.125 5.317 2.69 12.318 2.273 17.89.638-.194 6.134-1.527 13.53-8.01 13.15a8.602 8.602 0 0 1-1.777-.287.498.498 0 0 0-.265-.083c-1.416-.442-2.578-1.246-3.536-2.29m-67.244-2.437a201.54 201.54 0 0 0 9.526 3.102c5.97 1.771 12.1 3.137 18.332 3.426 6.523.302 13.166-.484 19.66-1.05 6.33-.552 12.613-1.359 18.85-2.58.756.888 1.632 1.635 2.646 2.188-6.29 1.311-12.69 1.893-19.08 2.48-6.953.64-13.921 1.16-20.907 1.161-13.208.004-25.622-2.437-37.552-8.167a275.08 275.08 0 0 1 1.852-3.63c1.938 1.548 4.363 2.258 6.673 3.07m62.559-11.212c6.062.616 12.348-.33 18.252-1.723a95.63 95.63 0 0 1 .047 3.754c-2.923.896-5.926 1.363-8.985 1.294-3.145-.07-6.011-.924-9.052-1.548-.096-.615-.182-1.21-.262-1.777m.51 7.427c-5.656 1.077-11.497 1.291-17.227 1.685-5.796.398-11.603.698-17.414.647-10.864-.094-23.097-.7-32.91-5.903.623-1.217 1.279-2.42 2.015-3.54 2.354.982 4.873 1.995 7.386 2.405 2.7.442 5.332.446 8.003 1.203 5.179 1.468 10.004 2.36 15.392 2.587 11.33.477 22.677-.136 33.91-1.693a.494.494 0 0 0 .196-.069c.179.891.394 1.791.65 2.678m45.07-4.026c-5.311-8.153-11.004-16.212-17.222-23.68-5.044-6.058-11.701-11.918-19.217-14.728-1.022-.776-1.68-1.415-2.236-2.619-.452-.982-.735-2.01-1.063-3.03.435-.709.839-1.442 1.19-2.213 2.01-4.41 2.306-9.366 1.89-14.144-.026-.307-.054-.615-.084-.925.02-.01.04-.02.062-.034 3.616-2.452 6.834-9.568 5.189-13.92-.591-1.562-2.018-2.712-3.72-2.396a3.554 3.554 0 0 0-1.524.683c.06-1.505.09-3.013.096-4.517.012-4.3-.327-8.596-1.507-12.742a1.114 1.114 0 0 0-.103-.245c2.152-1.9 4.019-4.126 5.475-6.654.129-.223.169-.437.148-.632.192-.39.145-.89-.346-1.157C94.977 2.723 84.783-.237 74.5.578 69.73.956 65.038 2.088 60.66 4.06c-3.027 1.363-7.058 3.446-8.295 6.844-1.021-.812-2.76-.33-3.804.526-2.044 1.678-3.2 4.314-3.803 6.847-.703 2.943-.8 6.016-.891 9.03-.075 2.445-.067 4.89-.015 7.332-.685-1.002-1.534-1.845-2.286-2.256-2.454-1.339-4.558.951-5.065 3.258-.737 3.348.219 6.847 1.565 9.9.792 1.798 2.24 5.205 4.583 5.334a48.398 48.398 0 0 0 .02 6.823c.167 2.232.462 3.81 1.265 5.788.275.516.496 1.01.645 1.523.174.373.362.737.557 1.098-.035.03-.071.055-.1.097-.828 1.161-1.724 2.181-2.834 3.073-.812.652-1.781 1.178-2.588 1.856-8.724 4.068-16.208 11.092-22.43 18.354a119.556 119.556 0 0 0-4.05 5.01c-.185.002-.315.185-.284.364a155.007 155.007 0 0 0-4.647 6.424c-1.6 2.332-3.151 4.705-4.461 7.22-1.063 2.04-2.411 4.531-2.758 6.874-.168-.089-.337-.175-.505-.265-.362-.197-.68.348-.323.56 8.25 4.894 17.494 7.798 26.716 10.155 9.557 2.442 19.233 4.672 29.062 5.612 18.073 1.728 36.492-.572 53.66-6.528a127.162 127.162 0 0 0 27.262-13.285.549.549 0 0 0 .342-.258c.209-.278.043-.694-.246-.794" mask="url(#d)"/>
            </g>
            <path fill="#000" d="M59.83 90.77l.044.004-.402.32c.12-.107.24-.215.358-.323M38.754 64.376c-.292.289-.788.747-.585 1.203.043.1.204.168.306.127.365-.148.425-.655.652-.952.203-.264-.122-.626-.373-.378M44.478 66.13c-.105.533-.229 1.088-.236 1.634-.002.176.13.367.306.406a.662.662 0 0 0 .11.015.423.423 0 0 0 .4-.309c.128-.532.145-1.099.173-1.642.023-.434-.668-.537-.753-.104M53.263 67.036c-.027.442-.205.934.013 1.352.13.25.521.25.65 0 .218-.418.04-.91.013-1.352-.028-.44-.649-.44-.676 0M63.588 62.353c-.174.048-.308.256-.245.438.073.218.1.406.11.632.012.233.021.453.185.63.12.127.301.1.424 0 .392-.323.118-1.067-.04-1.45-.074-.179-.234-.307-.434-.25M49.85 62.294c.044-.365-.568-.45-.636-.087-.035.188-.13.33-.196.504a.882.882 0 0 0-.023.514c.024.123.174.205.29.167.503-.164.51-.64.565-1.098M42.772 60.51c-.178.221-.502.588-.377.893.057.14.192.26.355.205.276-.096.34-.387.509-.603.117-.149.14-.349 0-.495-.12-.125-.37-.146-.487 0M34.013 58.938c-.403.291-.895.736-.762 1.293.029.12.173.173.275.113.364-.215.546-.627.879-.89.288-.227-.094-.733-.392-.517M60.328 68.578c-.01.352-.042.71.008 1.059.06.42.776.42.837 0 .05-.35.016-.707.007-1.06-.015-.555-.836-.556-.852 0M58.526 61.93c-.22-.218-.598.061-.431.336.103.17.179.367.393.4.176.027.316-.069.33-.255.017-.225-.147-.339-.292-.482M67.301 56.908c.107.339.19.932.531 1.11.166.088.328.006.394-.161.138-.356-.198-.88-.333-1.202-.144-.342-.704-.1-.592.253M70.095 61.498c-.026.332.016.743.376.857.092.03.222.001.285-.076.18-.218.1-.418.134-.672.08-.587-.748-.706-.795-.109M49.891 71.21c-.094.29-.268.538-.383.818-.114.28.258.518.487.379.36-.218.535-.591.67-.981.171-.493-.613-.714-.774-.216M39.291 69.264c0 .224-.151.42-.082.644a.273.273 0 0 0 .329.189c.394-.086.405-.6.306-.91-.095-.3-.553-.255-.553.077M33.522 65.425c-.077.183-.13.36-.187.549-.056.183-.124.359-.106.553.02.233.293.384.474.199.137-.14.194-.301.268-.482.073-.181.153-.35.207-.54.112-.383-.493-.665-.656-.28M73.61 58.481c.033.22.048.46.228.613.119.104.327.14.442 0 .348-.42.024-1.107-.164-1.544-.165-.384-.802-.11-.67.286.07.21.13.425.164.645M40.051 82.585c-.468-.47-1.266-.597-1.737-.062-.402.455-.316 1.17.245 1.446.41.201 1.231-.018.992-.614-.064-.158-.288-.1-.256.072-.153.201-.312.255-.477.161a.434.434 0 0 1-.298-.295c-.047-.16.042-.39.145-.508.34-.389.933-.184 1.222.145.487.556.401 1.358.367 2.044-.012.225.325.22.343 0 .067-.81.068-1.77-.546-2.389M44.291 85.132c-.27-.882-1.234-1.028-1.853-.396-.944.964-.35 2.54.131 3.582.044.095.174.023.157-.067-.13-.713-.46-1.426-.455-2.159.004-.485.151-1.027.596-1.3.421-.269.786-.179 1.096.27.236.368.184.622-.152.762a.108.108 0 0 0-.012-.079c-.298-.523-.895.113-.459.495.697.611 1.11-.592.951-1.108M46.64 88.6c-.31-.625-1.09-.74-1.639-.347-.515.368-.672 1.212-.155 1.656.45.387 1.176.102 1.005-.535-.049-.182-.312-.14-.318.043-.629-.056-.758-.303-.387-.74a.842.842 0 0 1 .62-.23c.447.036.561.398.633.765.13.652.076 1.326-.072 1.97-.043.184.221.256.28.077.263-.793.422-1.875.032-2.659M50.282 84.474c-.535-.403-1.268-.157-1.55.42-.438.904-.041 2.318.215 3.219.028.098.196.084.184-.025-.081-.678-.17-1.36-.192-2.042-.01-.325-.036-.713.136-1.004.479-.574.888-.483 1.226.274a2.006 2.006 0 0 0-.167.574c-.023-.014-.043-.03-.076-.028l-.214.005c-.06.002-.131.034-.16.092-.231.503.359.678.67.323.438-.498.482-1.392-.072-1.808M53.8 88.294c-.174-.557-.684-1.04-1.28-.772-.522.23-.916 1.066-.636 1.609.223.43.86.615 1.123.145.063-.11-.04-.253-.164-.217-.306.137-.507-.052-.603-.566.17-.66.56-.69 1.165-.09.14.226.101.619.104.874.01.679-.103 1.36-.2 2.029-.022.135.157.19.203.057.324-.932.59-2.09.287-3.07M59.385 87.596c-.218-.507-.783-.456-1.156-.164-.354.277-.669.812-.415 1.26.156.274.757.56.881.114.021-.08-.029-.148-.1-.176-.224-.09-.483-.034-.4-.409.046-.212.443-.716.718-.547.194.12.125.51.117.692-.015.31-.022.618-.013.926.005.167.27.221.3.041.087-.506.281-1.24.068-1.737M57.102 84.082c-.464-.066-.816.202-.913.66-.157.737-.009 1.627.028 2.374.007.138.207.14.213 0a51.88 51.88 0 0 0 .04-1.576c.003-.213-.034-.508.037-.71.36-1.013 1.645.284.676.615-.154.054-.127.278.038.286.44.023.771-.36.726-.805-.045-.436-.425-.784-.845-.844M63.947 83.964c-.133-.351-.532-.345-.828-.253-.335.104-.628.263-.695.639-.086.472-.016 1.056.058 1.527.022.136.2.082.216-.03.052-.397-.004-.8.039-1.195.028-.271.106-.544.409-.584.17-.098.289-.018.356.238a.39.39 0 0 0-.074.13c-.045.094.032.225.144.189.268-.088.486-.366.375-.661M50.359 92.335c-.528-.263-1.021.14-1.161.657-.225.826.07 1.885.34 2.659.068.193.365.116.306-.085a6.647 6.647 0 0 1-.284-1.772c-.004-.172-.031-.532.045-.688.675-.243.972-.1.89.427.038.117.033.215-.013.294-.02-.013-.038-.028-.065-.03l-.166-.006a.16.16 0 0 0-.143.083l-.04.082c-.03.06-.041.14 0 .199.27.39.686.232.808-.192.156-.547.035-1.354-.517-1.628M55.133 92.473c.246-.165.006-.573-.23-.4a.638.638 0 0 0-.179.824c.13.222.464.025.341-.202-.055-.1-.017-.165.068-.222M60.686 82.196c-.403-.257-.727.284-.771.629-.032.25.374.299.432.059.056-.228.274-.298.392-.483.045-.07.012-.163-.053-.205M39.888 86.905c-.087.165-.123.339.003.489.072.085.19.027.224-.06.032-.086.024-.17.073-.251.115-.195-.195-.377-.3-.178M45.602 82.71c-.053-.079-.051-.157-.05-.249.003-.12-.122-.172-.218-.127-.243.111-.25.402-.121.607.155.25.553.011.389-.23M56.988 47.94c-.46 1.18-1.498 2.123-2.803 2.213-1.026.072-1.848-.384-2.593-1.007-.07-.445-.708-.713-.951-.216-1.296 2.664-5.82 5.404-8.206 2.176-1.511-2.045 1.253-6.205 2.252-7.965 2.428-4.274 5.628-7.719 8.788-11.427.129-.152-.048-.44-.231-.3-2.868 2.196-5.225 5.19-7.275 8.147-1.836 2.648-4.268 6-4.757 9.287-.38 2.546 1.052 4.414 3.65 4.648 2.644.237 5.047-1.252 6.367-3.452 2 2.155 5.8.91 6.75-1.83.22-.634-.755-.879-.991-.274"/>
        </g>
    </g>
</svg>
