<svg xmlns="http://www.w3.org/2000/svg" xmlns:xlink="http://www.w3.org/1999/xlink" width="100" height="100" viewBox="0 0 100 100">
    <defs>
        <path id="a" d="M50 100c27.614 0 50-22.386 50-50S77.614 0 50 0 0 22.386 0 50s22.386 50 50 50z"/>
        <path id="c" d="M0 .57h102.814V119H0z"/>
    </defs>
    <g fill="none" fill-rule="evenodd">
        <mask id="b" fill="#fff">
            <use xlink:href="#a"/>
        </mask>
        <use fill="#8AE5D4" fill-rule="nonzero" xlink:href="#a"/>
        <g mask="url(#b)">
            <path fill="#FFF" d="M34.541 101.328l43.613-1.105L94.62 88.987 78.154 59.142c-3.377-22.915-5.417-34.373-6.12-34.373-.703 0-15.393-2.66-44.072-7.98L16.63 22.87 6.81 43l2.933 30.048 12.124 24.928 12.674 3.352z"/>
            <path fill="#1A1A1A" d="M53.76 51.63c-1.357 1.353-2.88 2.504-4.512 3.505-.642.393-1.274-.606-.627-.984 1.578-.922 3.052-1.968 4.39-3.215.911-.848 1.192-.93.276-1.94-.505-.556-1.072-1.04-1.553-1.627-1.538-1.878-2.748-4.198-3.028-6.633-.038-.338.461-.395.57-.099.694 1.894 1.356 3.745 2.56 5.393a15.215 15.215 0 0 0 2.058 2.312c.33.3 1.056.706 1.173 1.182.211.856-.801 1.6-1.306 2.105M42.677 58.254c-.478-.617.579-1.31 1.033-.657 2.936 4.22 8.204 2.412 11.636-.007.261-.184.553.19.35.42-3.467 3.923-9.63 4.626-13.019.244M64.27 41.984a5.025 5.025 0 0 0-1.248-.339c-2.143-.283-3.988.651-5.415 2.102.853-1.913 2.818-3.212 5.078-2.596a4.124 4.124 0 0 1 1.586.833m3.107 4.218c-.408-2.753-2.241-5.655-5.19-6.082-3.152-.456-5.554 1.86-6.198 4.774-.116.526.402.814.799.729.207.119.49.104.678-.18.594-.896 1.33-1.703 2.204-2.271a.543.543 0 0 0-.038.349c.124.55.239 1.117.775 1.414.13.073.275.116.423.148.522.285 1.153.151 1.604-.34.602-.654 1.095-1.425.937-2.322 1.134.229 1.917.865 2.492 1.733.356.702.659 1.443.976 2.141.116.255.587.24.538-.093M38.648 41.799c-1.273-1.086-2.82-1.938-4.443-2.028-2.152-.12-3.368.956-4.741 2.076 1.223-2.158 3.155-4.141 5.704-3.29 1.528.51 2.62 1.84 3.48 3.242m1.672 1.583c-.672-2.574-3.296-5.681-6.082-6.039-3.164-.407-5.633 3.321-6.688 5.811-.143.339.035.64.286.782.17.156.414.217.654.048 1.16-.823 2.027-1.928 3.163-2.649-.378.769-.293 1.747.409 2.306.799.636 1.882.42 2.419-.424.49-.77.528-1.742.19-2.567 1.917.24 3.562 1.607 4.95 2.891l.07.134c.192.37.724.069.629-.293M20.372 44.849c-.44-.705-.878-1.414-1.337-2.107-.234-.354-.463-.72-.73-1.05l-.539-.59c-.776.239-1.036.65-.779 1.237.118 1.609 1.814 4.7 3.467 5.04.397.083.29.615-.064.666-1.506.219-2.27-1.34-2.875-2.465-.727-1.354-1.762-3.212-1.267-4.81.927-2.988 4.2 3.182 4.491 3.908.087.218-.246.364-.367.17"/>
            <g transform="translate(-9 -.57)">
                <mask id="d" fill="#fff">
                    <use xlink:href="#c"/>
                </mask>
                <path fill="#1A1A1A" d="M83.565 93.537c-11.883 3.826-24.286 3.586-36.662 3.646-12.512.058-25.596.509-37.803-2.584-.021-.006-.04-.005-.06-.01a49.463 49.463 0 0 1 1.99-4.138c.37.425.81.79 1.342 1.077 3.077 1.655 5.507-.364 7.273-3.187.786 1.552 1.956 2.882 3.587 3.756 2.558 1.37 5.693 1.32 7.958-.34 5.392 3.296 11.573 5.329 17.96 4.844 4.353-.33 10.425-2.091 13.609-5.785.109.117.204.245.316.36 1.205 1.24 3.328 3.215 5.21 2.052.519-.32.816-.78.979-1.295.895 1.845 2.212 3.666 4.01 3.246 2.048-.478 2.819-2.96 2.953-5.134 1.41 2.062 3.465 3.949 6.06 2.879.173-.072.32-.16.473-.245.27.282.539.567.805.858m1.21 1.378a53.938 53.938 0 0 1 2.79 3.56c-.024.004-.046.002-.07.007-13.154 2.546-26.404 3.586-39.796 3.518-6.484-.033-12.964-.273-19.44-.606a983.032 983.032 0 0 1-9.707-.555c-3.43-.211-7.145-.061-10.352-1.454a1.19 1.19 0 0 0-.883-.042 52.7 52.7 0 0 1 .889-2.666c.014-.04.032-.077.046-.116.1.066.213.122.349.158 12.418 3.146 25.669 2.667 38.385 2.646 12.204-.02 25.85 1.012 37.287-3.997.238-.104.4-.268.502-.453m3.923 5.215a51.102 51.102 0 0 1 2.133 3.555c-14.14 2.42-28.024 4.022-42.403 4.155-14.287.132-28.551-.672-42.83-.947a53.12 53.12 0 0 1 1.159-5.591c.087.074.187.143.313.197 5.418 2.308 12.257 1.732 18.04 2.056 7.015.393 14.035.707 21.06.775 14.05.138 28.236-.654 41.959-3.846a.934.934 0 0 0 .569-.354m4.29 7.995c-.047.007-.092 0-.141.016-7.111 2.364-14.034 4.222-21.576 4.465-6.918.223-13.866.048-20.788.055l-21.531.02c-7.628.008-15.91.894-23.407-.666a1.184 1.184 0 0 0-.477-.007c.056-.992.13-1.984.24-2.97.107.037.22.064.348.069 14.524.595 29.123 1.068 43.66.889 14.047-.173 28.775-.822 42.355-4.738.474.94.907 1.898 1.317 2.867m.653 1.605c.354.929.685 1.867.977 2.817.007.02.02.032.029.05-2.751 2.209-6.404 2.563-9.785 3.042-3.771.533-7.558.939-11.354 1.243-7.604.607-15.235.803-22.86.85-7.647.05-15.294-.034-22.94-.081-3.833-.023-7.666-.041-11.5-.058-3.677-.018-7.748.406-11.211-1.055a55.42 55.42 0 0 1-.011-2.233l.019.005c7.234 1.485 15.028.714 22.379.7l24.015-.047c14.122-.03 29.12 1.157 42.204-5.203.016-.008.023-.021.038-.03M5.146 73.949c-.555-4.22-.291-8.537.105-12.756.26-2.767.579-5.541.94-8.312-.275 6.78-.192 13.577.01 20.357.054 1.779.14 3.967.953 5.655a1.19 1.19 0 0 1-.618-.236c-1.101-.826-1.24-3.564-1.39-4.708m39.93-40.562c.345-.71.425-1.527.344-2.364.519.708 1.058 1.4 1.657 2.046 1.053 1.137 2.647 2.844 4.349 2.857 2.069.016 2.67-1.386 2.636-3.001 1.46 2.226 3.394 4.297 5.92 4.36 2.506.063 2.704-2.132 2.263-4.278 1.904 2.355 4.22 4.522 7.196 4.952 1.39.2 2.902-.172 3.48-1.586.226-.554.266-1.187.217-1.84 1.294 2.069 2.975 4.038 4.956 5.323.204 3.96-.703 8.079-1.596 11.922-.838 3.605-1.948 7.155-3.58 10.485-1.417 2.887-3.2 5.599-5.39 7.962a26.533 26.533 0 0 1-4.008 3.55c-.66.474-2.8 2.04-4.34 2.394-.74.222-1.518.33-2.332.38a.478.478 0 0 0 .068.15c.212.285.47.478.757.606-.083 4.669 1.494 9.243 4.48 12.819-3.68 3.807-9.643 5.444-14.746 5.458-5.458.015-10.68-1.842-15.317-4.621.16-.17.313-.35.458-.54 2.604-3.431 2.372-8.612 2.434-12.68a98.515 98.515 0 0 0-.972-15.283c1.314 2.34 2.843 4.558 4.663 6.584 3.267 3.636 9.654 9.299 15.02 7.712.364-.108.256-.656-.112-.646-6.043.187-11.566-4.536-15.16-9.01-3.705-4.615-6.055-10.144-7.713-15.783-.014-.047-.04-.076-.061-.114.128-.366-.067-.868-.566-.84-3.02.175-5.388-6.121-6.166-8.345-.226-.647-.722-1.693-.658-2.401.293-3.23 2.892-1.364 3.787-.514.762.725 1.289 1.6 1.825 2.477a.523.523 0 0 0-.027.346c.286 1.096 1.266 2.224 2.496 1.528 1.77-1.003.436-3.923.143-5.296-.72-3.372-1.14-6.874-.761-10.32.304-2.767 1.215-5.193 2.393-7.656.727 5.17 3.358 10.375 7.69 13.439 1.337.946 3.366 1.632 4.273-.232m55.799 30.333c-1.118-4.676-2.448-9.311-3.798-13.924-2.655-9.07-5.447-18.355-9.665-26.84-3.5-7.04-8.632-12.937-15.473-16.888a38.008 38.008 0 0 0-10.261-4.084 30.863 30.863 0 0 0-1.787-.36c-4.886-1.97-11.077-.513-15.86.949a.582.582 0 0 0-.181.1C37.61-.35 30.18-.043 24.022 3.13 19.619 5.4 16.669 8.985 14.5 13.125c-1.985 2.534-3.622 5.352-4.91 8.237-3.577 8.02-5.252 16.892-6.78 25.493C1.215 55.82-.77 65.268.306 74.4c.402 3.404 1.16 7.86 4.855 9.215 1.522.558 3.013.377 4.4-.23-.214 2.142-.09 4.265.704 5.897a58.099 58.099 0 0 0-2.947 6.504 54.65 54.65 0 0 0-3.555 21.124c0 .005.004.009.004.015a.537.537 0 0 0 .328.599c3.313 1.556 6.946 1.352 10.52 1.368 4.107.02 8.214.04 12.32.055 8.192.027 16.386.099 24.578.01 8.168-.086 16.342-.36 24.477-1.136 3.993-.38 7.995-.844 11.945-1.548 2.776-.495 5.486-1.223 7.453-3.356a.402.402 0 0 0 .084-.134.463.463 0 0 0 .165-.56 62.358 62.358 0 0 0-3.364-7.617c.078-.43-.126-.916-.55-1.01-2.247-4.114-4.985-8.027-8.173-11.496.968-.95 1.28-2.326 1.279-3.75.996 1.502 2.395 2.62 4.34 2.086 2.684-.737 3.12-3.218 2.753-5.603 1.366 1.133 3.17 1.709 5.004 1.339 3.825-.773 5.609-4.826 5.837-8.344.304-4.685-.805-9.577-1.888-14.108" mask="url(#d)"/>
            </g>
        </g>
    </g>
</svg>
