<svg xmlns="http://www.w3.org/2000/svg" xmlns:xlink="http://www.w3.org/1999/xlink" width="100" height="100" viewBox="0 0 100 100">
    <defs>
        <path id="a" d="M50 100c27.614 0 50-22.386 50-50S77.614 0 50 0 0 22.386 0 50s22.386 50 50 50z"/>
        <path id="c" d="M0 .2h98.929V113H0z"/>
    </defs>
    <g fill="none" fill-rule="evenodd">
        <mask id="b" fill="#fff">
            <use xlink:href="#a"/>
        </mask>
        <use fill="#B3A6FF" fill-rule="nonzero" xlink:href="#a"/>
        <path fill="#FFF" d="M15.616 68.16l-1.542-5.793 6.278 1.772c-3.157-3.981-4.736-6.58-4.736-7.799 0-1.218 1.579-9.294 4.736-24.229l10.889-20.157 43.972 4.052L79.2 21.5l-.566 23.125c-.371 8.814-1.28 14.295-2.73 16.444-2.172 3.224-6.339 8.982-11.414 9.86-3.383.585-4.414 1.091-3.094 1.519l-.577 4.473 5.707 7.354-.666 11.15-5.04 6.74-18.421.842-26.783-17.29V68.16z" mask="url(#b)"/>
        <g mask="url(#b)">
            <path fill="#000" d="M78.404 21.728c.03 5.701-.108 11.407-.211 17.108-.103 5.703.298 11.797-1.11 17.365-1.28 5.061-4.28 9.816-8.756 12.614-4.408 2.755-11.197 4.13-15.633.73-.222-.17-.484.191-.294.38 3.306 3.288 9.207 2.72 13.21 1.18 4.862-1.872 8.672-5.752 10.869-10.433 2.616-5.576 2.54-11.529 2.672-17.56.154-7.128.16-14.257.283-21.384.012-.663-1.033-.665-1.03 0"/>
            <path fill="#000" d="M61.195 76.725c.17-1.564.414-3.115.521-4.718.021-.325-.503-.486-.638-.172-.735 1.706-1.012 3.704-1.124 5.66a7.734 7.734 0 0 1 1.241-.77M69.46 55.49c-1.307 1.887-3.656 2.807-5.901 2.575-2.082-.215-3.406-1.325-4.806-2.776-.131-.135-.335.037-.253.196 2.466 4.791 8.525 3.942 11.678.56.446-.48-.336-1.108-.718-.556M70.282 47.166c-2.261-.712-3.226-4.535-3.62-6.584-.424-2.207-.182-4.258.012-6.474.01-.119-.161-.126-.197-.026-.99 2.726-.776 5.931.03 8.682.509 1.738 1.236 3.962 2.858 4.954-1.085.985-2.16 1.983-3.237 2.977-.444.41.22 1.073.664.663 1.232-1.142 2.472-2.276 3.69-3.434.257-.243.116-.658-.2-.758M49.567 38.831c-1.328.32-2.544.892-3.451 1.811.707-2.066 2-3.316 4.349-3.686 2.023-.318 4.152.174 5.31 1.884-3.636-.466-6.18-.044-6.208-.009m-1.161 1.026c.044-.018.089-.031.134-.048.017.1.058.201.099.293.02.144.062.289.116.427a1.417 1.417 0 0 1-.35-.672m8.279-.871c-2.265-4.211-11.138-3.282-10.982 2.113-.054.117.057.295.187.195.63-.485 1.305-.887 2.01-1.215.17 1.045 1.464 1.93 2.483 1.755 1.016-.175 2.05-1.747 1.593-2.753 1.42-.066 2.858.138 4.23.627.27.096.45-.136.458-.364a.33.33 0 0 0 .02-.358"/>
            <path fill="#000" d="M72.257 37.68c-.933.053-2.152.35-3.02.959.621-.91 1.421-1.641 2.587-1.917 1.638-.388 3.308.469 3.798 2.004a4.938 4.938 0 0 0-3.365-1.046m-1.814.932a4.48 4.48 0 0 1 .281-.103c-.01.026-.023.05-.024.084-.003.233 0 .514.03.792a4.785 4.785 0 0 1-.273-.746c-.003-.01-.01-.018-.014-.027m5.988.91c.006-.03.014-.06.01-.098-.204-1.93-1.74-3.364-3.697-3.402-2.139-.04-4.012 1.54-4.566 3.564-.063.23.272.39.397.185a.157.157 0 0 0 .085-.041 5.76 5.76 0 0 1 1.301-.9c.156 1.069.872 2.202 2.092 2.105 1.265-.1 1.8-1.408 1.896-2.497 0-.011-.004-.02-.004-.03.77.25 1.467.722 1.995 1.465.25.349.74-.012.491-.351M76.883 28.607c-.513-.396-1.051-.326-1.536-.065.152-.59.099-1.162-.532-1.384-.69-.242-1.534.286-2.216.895.1-1.112-.42-2.146-1.835-1.647-2.161.761-2.877 3.19-3.14 5.234-.03.241.316.321.45.165 1.334-.04 2.644-.452 4-.438 1.56.016 3.054.33 4.514.862.35.128.539-.319.353-.56.422-.88.842-2.366-.058-3.062M56.535 28.675c-.252-.188-.505-.236-.728-.18-.081-1.579-.948-3.124-2.69-3.3-1.603-.162-2.457 1.006-2.704 2.354-.782-1.243-2.166-2.169-3.657-1.484-1.075.493-1.445 1.691-1.286 2.811-1.308-1.043-3.202-1.782-4.142-.26-1.13 1.828 1.12 4.446 2.946 4.827.056.08.16.125.255.063.01-.007.022-.013.033-.019l.015.002a.303.303 0 0 0 .32-.193c1.513-.832 3.565-1.076 5.208-1.339 2.267-.363 4.55-.439 6.825-.102.206.03.394-.08.4-.306.03-.874-.008-2.287-.795-2.874M65.796 52.817a.26.26 0 0 0-.064-.133.62.62 0 0 0-.297-.48c-1.587-1.02-3.29-2.204-5.254-2.263-2.149-.065-4.297 1.248-6.22 2.041-.54.222-.642 1.016 0 1.201 2.94.852 5.164 3.16 8.353 2.66 1.701-.267 3.83-.954 3.482-3.026"/>
            <path fill="#000" d="M75.327 50.298c-1.602-.068-5.958-.59-7.657.864a.328.328 0 0 0-.175.032c-2.257 1.155-.977 3.777 1.18 3.998 2.458.25 5.444-1.501 6.672-3.702.046-.006.092-.016.138-.022.69-.093.48-1.143-.158-1.17"/>
            <g transform="translate(-6 -6.2)">
                <mask id="d" fill="#fff">
                    <use xlink:href="#c"/>
                </mask>
                <path fill="#000" d="M32.098 64.285c.024-.13.047-.273.071-.41.251.51.591.949 1.167 1.195.281.119.551.153.81.13-.42.649-.877 1.269-1.379 1.85.011.05.014.1.023.152l-.007.003-1.326-.753c.32-.71.517-1.498.641-2.167m13.86 17.617c3.347 1.548 7.134 2.756 10.782 3.293 3.143.462 6.342.25 9.26-1.017-2.03 2.277-8.006 2.228-10.127 2.22-3.895-.011-7.098-.451-10.494-2.45-3.125-1.837-5.898-3.231-8.335-6.033-2.259-2.595-4.707-5.96-4.056-9.528 2.496 5.694 7.35 10.916 12.97 13.515m21.55 2.162c.194.575.392 1.144.402 1.783.018 1.31-.449 2.499-1.28 3.495-.849 1.017-1.927 1.674-3.107 2.056 1.194-1.395.893-3.43-.373-4.594 1.82-.518 3.727-1.386 4.357-2.74m-6.349 5.927c.014.726-.252 1.395-.72 1.83-.055-.001-.109-.006-.163-.008a35.169 35.169 0 0 0-.498-3.345c-.059-.295-.247-.45-.465-.495a3.36 3.36 0 0 0-.32-.451 51.66 51.66 0 0 0 1.118-.112c.523.814 1.03 1.554 1.048 2.58m1.431.958a3.011 3.011 0 0 1-.61.44c.075-.171.136-.356.18-.554.26-1.205-.138-2.658-1.013-3.574.394-.07.831-.158 1.285-.268.922 1.14 1.367 2.813.158 3.956m-4.322 8.143c-.159 3.744-.98 7.28-1.683 10.938a.666.666 0 0 0 .001.26c-.187.11-.407-.15-.845-.823-.782-1.202-1.246-2.74-1.766-4.061-.175-.443-.823-.78-1.198-.315a63.746 63.746 0 0 1-3.002 3.466c-.687.73-1.565 1.9-2.53 2.57.257-3.2.646-6.387 1.208-9.55.561-3.16 1.063-6.484 2.577-9.352a.543.543 0 0 0 .037-.091c2.441-.243 4.776-.992 6.84-2.411.114 3.128.496 6.218.361 9.369M35.074 86.63a33.337 33.337 0 0 1-8.509-6.883c-1.418-1.602-2.969-3.58-4.147-5.701.04-.15-.052-.331-.199-.37-.786-1.484-1.38-3.03-1.605-4.563A48.203 48.203 0 0 0 26.6 71.14c.553.147 1.036-.585.58-.995-2.074-1.861-3.81-3.958-4.918-6.414.828.935 1.894 1.025 2.9.479.347.214.697.424 1.048.632.128 1.632.7 3.11 2.04 3.554.693.23 1.274.097 1.763-.265a1.81 1.81 0 0 0 .398-.234c.181-.142.34-.317.486-.504.522.256 1.048.505 1.577.742-.91 3.199 1.143 6.586 3.03 9.082 3.041 4.025 6.923 6.732 11.46 8.883 3.013 1.429 6.747 1.71 10.223 1.546-5.206 1.46-10.446 2.483-15.016-1.126-.12-.095-.344.03-.236.182 3.19 4.434 9.022 3.808 13.841 2.69-6.31 3.195-14.975.484-20.7-2.762M98.255 8.067c-1.806-2.212-5.83-3.345-8.452-4.263-3.67-1.286-7.493-2.093-11.34-2.623C64.471-.747 48.661-.213 35.798 6.248c-.046-1.06-.33-2.19-.537-3.005-.139-.55-.899-.498-1.062 0a12.228 12.228 0 0 0-.615 3.759c-.819-1.265-1.29-2.78-2.292-3.936-.319-.368-.915.025-.793.462a8.99 8.99 0 0 0 1.362 2.81c.272.384.566.809.9 1.19.054.093.11.186.17.277-3.023-.056-6.44 5.04-7.522 7.078-2.785 5.24-3.62 11.467-4.445 17.268-.802 5.643-1.217 11.363-.906 17.06-.024.733-.195 7.359.375 10.944a.644.644 0 0 0-.293.644c.631 3.31 2.301 6.117 4.524 8.532a46.422 46.422 0 0 1-4.437-1.648c-.38-.164-.914.017-.89.51.09 1.829.678 3.659 1.522 5.404-1.51.683-2.868 1.93-4.166 2.96l-.729.582c-3.373 2.52-6.28 5.718-8.976 8.917-2.116 2.51-4.32 4.986-5.727 7.98-.917 1.954-2.176 4.02-.258 5.626 2.573 2.153 6.452 3.163 9.602 4.036 2.167.6 4.36 1.1 6.561 1.553 1.635.422 3.271.839 4.907 1.255 4.167 1.06 8.333 1.963 12.59 2.59 3.701.546 7.504 1.262 11.26 1.062-.078.71-.15 1.422-.214 2.134-.044.499.493.776.911.693 1.403-.278 2.351-1.507 3.315-2.5a59.138 59.138 0 0 0 3.135-3.505c.441 1.086.902 2.167 1.428 3.21.38.75.791 1.889 1.815 1.965 1.31.098 1.95-1.586 2.31-2.867 3.913-.252 7.924-1.105 11.71-2.1 3.45-.907 7.718-2.087 10.617-4.248 1.296-.966 1.165-2.38.605-3.736-.499-2.19-2.186-4.841-2.753-5.791-2.787-4.671-6.218-9.835-11.429-12.074-.303-.131-.574.193-.354.459l.031.035a.44.44 0 0 0-.176.33.462.462 0 0 0-.19.36 2.63 2.63 0 0 1-.113.654.407.407 0 0 0-.392-.01c-3.216 1.593-6.865 1.697-10.342 1.054-3.388-.627-7.019-1.71-10.106-3.252-5.622-2.811-9.698-7.77-12.453-13.3-.004-.025-.02-.05-.03-.073 2.426-2.813 4.26-6.02 4.881-9.831a.162.162 0 0 0-.044-.135c.064-.37.117-.725.16-1.057.354-2.815.274-5.897.002-8.713a.377.377 0 0 0-.196-.308.456.456 0 0 0-.299-.181c-2.388-.311-4.01-2.68-4.919-4.68a11.949 11.949 0 0 1-.858-2.703c-.128-.69-.9-2.304 1.067-4.764 1.477-.492 2.31-.55 3.034 1.048.236.489 2.31 8.523 2.341 9.046.054.888 2.073.143 2.007-.744-.505-6.768-.506-12.71 1.134-19.28 2.067.476 4.178.807 6.24 1.087 7.015.95 14.104.897 21.167 1.017 3.664.062 7.33.166 10.982.479 3.286.28 6.624.94 9.926.527 1.154-.145 3.933-.554 3.478-2.413-.107-.44-.427-.791-.863-1.082 1.315-.26 2.388-.832 2.687-1.964.512-1.945-1.619-3.06-3.843-3.708 2.298-.48 4.44-1.515 4.052-3.88-.204-1.244-1.279-1.808-2.38-2.144-.348-.105-.7-.2-1.058-.285 4.337-.614 8.685-1.954 6.31-4.861" mask="url(#d)"/>
            </g>
        </g>
    </g>
</svg>
