<svg xmlns="http://www.w3.org/2000/svg" width="100" height="82" viewBox="0 0 100 82">
    <path fill-rule="evenodd" d="M68.255 51.416c1.645 6.983-.701 13.18-4.875 18.77-5.665 7.587-13.617 10.893-22.82 11.28-6.423.271-12.872-.127-19.31-.12-5.92.006-11.842.155-17.763.237-.727.01-1.454.002-2.348.002V78.18c2.127-.169 4.18-.318 6.229-.498 3.723-.328 4.757-1.243 4.798-4.916.182-16.45.276-32.9.397-49.35.001-.21-.073-.42-.15-.826H.21c2.11-6.111 6.854-6.377 12.419-5.528-.267-3.7-.335-7.052-.863-10.332-.14-.872-1.583-1.876-2.621-2.188-1.595-.48-3.353-.499-5.048-.564C.7 3.848.619 3.792 1.206.385c2.482 0 4.969.019 7.456-.004C16.803.308 24.944.225 33.086.133c1.264-.014 2.498-.316 2.51 1.73.012 1.957-1.02 2.06-2.517 2.118-1.986.077-3.975.297-5.94.6-1.627.252-2.632 1.227-2.723 2.971-.157 2.991-.34 5.981-.534 9.346H55.09c-1.836 2.05-3.209 3.722-4.755 5.217-.42.406-1.366.373-2.071.375-7.257.025-14.514.015-21.771.015h-2.535v12.512c1.714 0 3.327-.094 4.926.017 7.513.522 15.13.501 22.502 1.82 8.183 1.463 14.81 5.817 16.87 14.562zM91.841 0c3.28 0 6.925.723 7.046 4.097 0 1.205-.121 2.892-.365 4.7-.849 9.277-3.279 30.967-4.251 45.307h-4.737c-1.094-14.34-3.28-35.427-4.252-45.187-.122-1.567-.364-3.736-.364-4.94C84.918.842 88.44 0 91.841 0zm.122 81.697c-4.373 0-7.41-3.132-7.41-7.711 0-4.339 3.037-7.712 7.41-7.712s7.653 3.373 7.653 7.712c0 4.579-3.28 7.711-7.653 7.711zM56.376 60.28c1.471-9.652-3.328-17.105-12.809-19.667-6.364-1.72-12.89-1.158-19.757-1.23 0 5.377-.03 10.423.008 15.468.045 6.16.082 12.32.255 18.477.078 2.801.96 3.759 3.75 3.89 3.672.17 7.4.365 11.03-.062 10.078-1.184 16.03-7.082 17.523-16.876z"/>
</svg>
