<svg xmlns="http://www.w3.org/2000/svg" width="72" height="15" viewBox="0 0 72 15">
    <path fill="#1A1A1A" fill-rule="evenodd" d="M57.792 8.354c-3.366 2.193-5.132 2.928-6.018 2.928-.993 0-1.599-.366-2.76-1.587 1.218-.672 2.154-1.28 4.583-2.866 1.6-1.038 4.138-2.746 5.686-2.746.993 0 1.93.49 2.866 1.525-1.268.731-2.866 1.77-4.357 2.746zm-21.8 2.193c-1.6 0-2.54-1.583-2.54-4.021 0-2.26 1.049-3.967 2.65-3.967 1.545 0 2.537 1.649 2.537 3.905 0 2.438-.992 4.083-2.647 4.083zm-15.562.735c-.94 0-2.65-.735-6.018-2.928C12.87 7.378 11.322 6.34 10 5.608c.936-1.035 1.875-1.525 2.871-1.525 1.599 0 4.139 1.708 5.737 2.746 2.372 1.587 3.368 2.194 4.582 2.866-1.161 1.222-1.823 1.587-2.76 1.587zm51.099 1.385c1.178-2.797.088-5.982-2.614-7.627-.21-.128-.337-.202-.337-.202l.002.003c-.632-.486-1.332-.758-2.068-.758-.996 0-2.21.307-3.421.915-1.822-2.742-3.146-3.718-4.803-3.718-2.263 0-4.8 1.769-8.61 4.328-2.205 1.466-3.423 2.015-4.634 2.015-1.049 0-1.988-.61-3.477-2.256C41.29 2.684 39.8.669 37.591.059c-.275 0-.55-.059-.719-.059-3.473 0-5.849 2.073-6.342 5.425-1.435 1.587-2.375 2.198-3.368 2.198-1.214 0-2.428-.549-4.635-2.015-3.808-2.56-6.349-4.328-8.608-4.328-1.714 0-3.037.976-4.857 3.718-1.161-.608-2.375-.914-3.367-.914-.75 0-1.459.27-2.097.754l-.231.113C.358 6.427-.852 9.858.635 12.705a.102.102 0 0 1 .002.004C1.62 13.973 2.39 14.575 3.432 15c1.492-1.035 2.206-1.89 2.815-3.476-.5.182-.83.244-1.217.244-1.542 0-2.813-1.096-2.813-2.5 0-1.4 1.102-2.439 2.538-2.439.553 0 1.105.121 1.601.304 1.27.548 2.65 1.283 4.03 2.259 6.014 4.208 7.834 5.06 8.883 5.06 1.657 0 3.09-1.22 5.025-4.208.88.427 1.38.61 1.872.61 1.271 0 2.985-1.22 4.364-2.986.384 2.866 2.204 4.998 4.413 4.997 3.753 0 6.071-1.89 6.568-5.184 1.436 1.894 3.202 3.173 4.47 3.173.552 0 1.048-.183 1.879-.61 1.928 2.987 3.42 4.207 5.075 4.207.992 0 2.815-.851 8.883-5.06a21.934 21.934 0 0 1 3.976-2.258 4.758 4.758 0 0 1 1.655-.304c1.435 0 2.484 1.039 2.484 2.439 0 1.403-1.214 2.5-2.759 2.5-.443 0-.718-.062-1.27-.244.661 1.586 1.38 2.441 2.815 3.476 1.094-.425 1.865-1.027 2.792-2.29l.018-.043z"/>
</svg>
