<svg xmlns="http://www.w3.org/2000/svg" width="56" height="20" viewBox="0 0 56 20">
    <g fill="none" fill-rule="evenodd">
        <path fill="#1A1A1A" fill-rule="nonzero" d="M1.636 6.458l.023.134a2.022 2.022 0 0 1-.028-.334v.138l.005.062zm5.244 4.66c.012.497.019.996.02 1.499a8.401 8.401 0 0 0 .863-.226 15.572 15.572 0 0 0-.046-.79c-.008-.097-.013-.132.017-.022.032.114-.008.02-.082-.137a2 2 0 0 0-.242-.342 2.136 2.136 0 0 0-.436-.378.369.369 0 0 0-.103-.032l.01.429zm.03-4.045a2.242 2.242 0 0 1-.791-.829c-.65.607-1.59.934-2.531.723.798.187 1.632.296 2.469.32.28.009.561.022.842.04.004-.084.008-.169.01-.254zm.007-.424h-3.36l3.358.128a19.797 19.797 0 0 0 .002-.128zm0-1.77a2.43 2.43 0 0 1-.098.334l.078.008.02-.209V4.88zm-.17-.026v.352l.052.006.036-.358h-.088zm0-1.834a2.457 2.457 0 0 0-.293.287c-.28.323-.501.735-.61 1.23l.003-.017a3.066 3.066 0 0 0-.043.237l.014-.078a2.316 2.316 0 0 0-.018.175h.947V3.02zm-3.19 1.834l2.239.247a2.4 2.4 0 0 1 .004-.247H3.557zM6.12 6.244c.264-.246.48-.538.628-.86v-.18L5.796 5.1c.014.392.122.79.323 1.144zm.628-.86v.34l.044-.441a2.542 2.542 0 0 1-.044.102zm-.913-.8l.01-.049-.026.143.016-.094zM7.04 2.809l.04-.401a20.227 20.227 0 0 0-.2-.017h-.134v.628a2.65 2.65 0 0 1 .294-.21zm5.566 4.065a8.35 8.35 0 0 1 1.12 1.72c.236.495.388.856.49 1.231.103.372.157.751.197 1.223a22.796 22.796 0 0 1 .074 2.192c-.01.506-.05.938-.148 1.358l-.061.225c-.373 1.212-1.166 2.196-2.246 2.886a9.492 9.492 0 0 1-2.287 1.052c-.706.221-1.422.39-2.147.504-.6.095-1.119.169-1.488.213a5.21 5.21 0 0 1-1.35.018 4.273 4.273 0 0 1-1.75-.602 6.676 6.676 0 0 1-1.766-1.503C.468 16.44.132 15.288.162 14.07a57.45 57.45 0 0 0 0-2.79C.138 10.282.125 9.277.125 8.267c0-.371.017-.74.05-1.104.015-.168.022-.34.022-.514L.2 6.52c.01-.244.011-.478.007-.702-.007-.313-.01-.635-.01-.966V4.67l.02-.184c.005-.041.009-.087.012-.136.015-.295.055-.588.13-.917C.86 1.312 2.826-.038 5.096.471c.39.091.776.142 1.157.153.645.018 1.289.058 1.932.118a4.85 4.85 0 0 1 .852.107 4.45 4.45 0 0 1 2.6 1.622 4.133 4.133 0 0 1 .796 3.366c-.04.223-.1.437-.177.64.121.13.238.261.35.397zm-.715 2.77c.105 1.076-.119 2.137-1.049 3.06l-.169.167-.19.142a4.532 4.532 0 0 1-.73.457l-.111.053a9.97 9.97 0 0 1-1.802.617 11.89 11.89 0 0 1-1.64.272l-.297.028-.296-.025c-.847-.07-1.554-.25-2.28-.77-1.024-.734-1.457-1.73-1.567-2.767-.03-.26-.054-.517-.07-.768l-.038-.62c-.107-2.024 1.333-3.595 3.343-3.879.36-.04.702-.034 1.163-.004.373.024.763.067 1.17.128.447.067.877.157 1.29.27.768.21 1.423.516 2.012 1.082a4.032 4.032 0 0 1 1.261 2.556zm-6.689.642c.06.608.337 1.176.755 1.59l-.028-.026a3.066 3.066 0 0 0 .105.1l-.008-.008c.078.071.156.134.232.19a3.03 3.03 0 0 0 1.913-1.801l-.278-.553-1.75-1.737-.257 3.052-.243-2.566a2.615 2.615 0 0 0-.44 1.759zm2.404-1.077l-.56-1.11c-.153-.093-.3-.161-.44-.213l1 1.323zm.149.197l.502.665c.038-.133.066-.27.084-.409-.15-.487-.472-.987-1.08-1.422a3.353 3.353 0 0 0-.06-.042l.554 1.208zm.197.431l.223.485c.024-.065.047-.13.067-.198l-.29-.287zm10.63 2.266c.345-.247.583-.543.746-.92.129-.303.217-.599.269-.892.086-.492.162-.997.227-1.513a.621.621 0 0 0-.017-.304c-.11-.3-.251-.585-.401-.827l-.739.045c-.275.016-.61.07-1 .166-.302.074-.62.198-.959.378a.5.5 0 0 0-.117.083 4.042 4.042 0 0 0-.343 1.313c-.047.567.006 1.154.184 1.845.014.063.039.107.138.208.025.025.06.052.12.084.194.102.38.18.559.236a4.262 4.262 0 0 0 .796.176c.188-.016.367-.042.536-.078zm-.495 6.75c-.412 0-.847-.043-1.34-.123a10.938 10.938 0 0 1-1.532-.37 10.094 10.094 0 0 1-1.682-.706 7.106 7.106 0 0 1-1.792-1.334c-.927-.94-1.56-2.07-1.837-3.262a11.9 11.9 0 0 1-.354-3.97 10.773 10.773 0 0 1 1.141-3.983l.09-.178.11-.167a7.222 7.222 0 0 1 2.642-2.4c.82-.436 1.661-.763 2.52-.974a12.413 12.413 0 0 1 2.206-.349l1.038-.062c1.228-.074 2.4.173 3.43.778.86.505 1.584 1.194 2.197 2.084a11.32 11.32 0 0 1 1.19 2.338 7.2 7.2 0 0 1 .378 3.43c-.078.62-.17 1.23-.275 1.828-.14.798-.373 1.58-.707 2.364-.7 1.612-1.811 2.936-3.357 3.957-.659.411-1.381.7-2.15.865-.56.12-1.135.195-1.725.229l-.191.005zm-4.04-7.517a9.765 9.765 0 0 0-.068-.505l-.015-.106a8.268 8.268 0 0 1 .31-3.569 9.715 9.715 0 0 1 1.497-2.887c.226-.305.45-.573.692-.813a4.247 4.247 0 0 1 1.663-1.027 4.44 4.44 0 0 1 1.742-.206c.33.025.667.08 1.026.159l.126.027.124.038a5.484 5.484 0 0 1 1.789.908 5.361 5.361 0 0 1 1.368 1.605c.465.806.755 1.681.86 2.6a9.13 9.13 0 0 1 .042 1.857c-.038.605-.195 1.168-.46 1.865-.2.525-.437 1.056-.711 1.594a14.32 14.32 0 0 1-.924 1.562c-.553.811-1.17 1.432-2.033 1.833-.636.309-1.262.502-1.972.527-1.13.04-2.021-.363-2.844-1.016a5.433 5.433 0 0 1-1.464-1.794 6.596 6.596 0 0 1-.555-1.571 7.765 7.765 0 0 1-.194-1.081zm4.46-2.463c.004-.058.018-.13.03-.178a2.773 2.773 0 0 1-.026.082c0 .034-.002.067-.004.096zm10.829-2.15a3.514 3.514 0 0 0-1.667-.192l1.045.06c-.01.175-.09.426-.273.684-.12.17-.247.277-.335.324.288-.142.632-.24.97-.269a8.7 8.7 0 0 1 .507-.028 3.42 3.42 0 0 0-.247-.58zm1.067.596c-.14-.11-.29-.213-.454-.307l-.011.288c.154.002.31.008.465.019zm.373.031l.032-.3a2.483 2.483 0 0 1-.13-.098l-.059.378a9.692 9.692 0 0 0 .157.02zm-.782-1.294l-.01.069v.005c.01.052.02.1.028.15A1.257 1.257 0 0 1 30 6.07a1.987 1.987 0 0 1-.005-.014zM31.5 12.33c-.028-.001-.142-.003-.245-.007a6.016 6.016 0 0 0-1.084.057c.264-.031.515-.012.813.092.22-.104.392-.138.516-.142zm-3.269-1.313a.85.85 0 0 1-.256.493c.05-.043.095-.078.161-.127l.081-.06.014-.306zM22.001 6.4l.005-.19c.058-1.006.359-1.95.936-2.765.515-.727 1.197-1.302 2.08-1.769a9.633 9.633 0 0 1 3.485-.988 15.738 15.738 0 0 1 2.978.033l.157.02c.071.01.142.019.213.024l.419.032c2.07.112 3.706 1.442 4.16 3.408.079.314.146.629.202.945.09.515.108 1.037.051 1.555-.034.907-.072 1.806-.112 2.697-.038.86-.058 1.724-.06 2.59.013.327.019.647.019.96 0 .34-.013.687-.038 1.04a5.553 5.553 0 0 1-.242 1.544c-.312 1.054-.846 1.948-1.763 2.599-.835.591-1.771.83-2.894.86-.203 0-.399-.003-.587-.01.051 0 .073 0 .022.006-.81.093-1.608.022-2.371-.264a5.055 5.055 0 0 1-.417-.179 3.99 3.99 0 0 1-1.71.663 4.121 4.121 0 0 1-2.637-.51 3.99 3.99 0 0 1-1.831-2.251c-.132-.391-.243-.787-.333-1.187a9.606 9.606 0 0 1-.206-1.354 18.921 18.921 0 0 1-.055-1.702c.007-.517.023-1.028.048-1.519a5.92 5.92 0 0 1 .704-2.561C22.064 7.584 22 7.014 22 6.4zm9.676-.16c0 .122-.004.211-.015.386l-.002.12c0 .185-.005.361-.015.532a3.652 3.652 0 0 1-.194 1.083c-.304.906-.922 1.587-1.756 2.058-1.057.565-2.191.583-3.238.237-1.08-.357-1.996-1.089-2.499-2.253-.386-.926-.533-1.88-.307-2.877.19-.84.59-1.61 1.242-2.228a4.45 4.45 0 0 1 1.895-1.071c.717-.196 1.388-.258 2.202-.028l.13.037.126.047c1.173.437 1.938 1.368 2.248 2.446.142.49.183.954.183 1.511zm-6.644.32a2.99 2.99 0 0 0 1.854 1.966l1.18-3.122-.924 3.206c.406.114.756.134 1.076.105.15-.014.264-.037.356-.062a2.28 2.28 0 0 0 .963-.538 2.26 2.26 0 0 0 .669-1.126c.07-.308.075-.592.036-.84a1.325 1.325 0 0 0-.092-.333c-.342-.794-.955-1.282-1.568-1.485-.58-.192-1.327-.18-2.148.26a2.988 2.988 0 0 0-1.359 1.662c-.028.084-.05.155-.068.218l.025.09zm12.388.215a2.34 2.34 0 0 1-.6.472 4.086 4.086 0 0 0-.007.007c.017-.004.059-.017.097-.026a.739.739 0 0 1-.08.01 4.078 4.078 0 0 0-.009.008c.263.036.498.05.85.066.107.005.217.01.33.013.004-.129.008-.258.014-.388l.02-.48a3.841 3.841 0 0 0-.615.318zm-1.625 7.779l.008-.02c.008-.103.027-.206.055-.308l-.065.237.002.09zm-.085.246l1 .284 1.05-1.654a2.7 2.7 0 0 0-.293-.4c-.255.072-.507.19-.74.355-.428.304-.741.71-.924 1.148-.004.05-.005.1-.004.148l-.003-.073-.001-.054a2.475 2.475 0 0 0-.085.246zm1.003.396l.068-.093-.07-.02-.062.098.064.015zm1.149-1.567l-1.081 1.474 1.348.383-.267-1.857zm-.096-.662l.096.662.202-.276-.003-.158a6.555 6.555 0 0 0-.747-.453 8.787 8.787 0 0 0-.542-.257c.242.125.48.304.695.545.1-.028.2-.05.3-.063zm.252-.026a5.769 5.769 0 0 1-.672.006c.234.011.452.082.607.179l-.193.304c.042.071.083.145.12.223.123.251.184.49.203.699-.002-.22-.006-.41-.01-.597l-.055-.814zm-1.237-.448c-.05-.025-.1-.048-.15-.068l.141.06.01.008zm1.302 1.859c.004.047.006.093.006.137l-.003-.163-.003.026zm5.106-12.68a6.463 6.463 0 0 1 1.49 1.28c.4.475.722.988.95 1.547.187.455.315.883.372 1.349.12.825.108 1.613-.07 2.372a5.54 5.54 0 0 1-2.455 3.47 7.533 7.533 0 0 1-1.055.554l.017.29c.037.63.063 1.262.076 1.893a5.059 5.059 0 0 1-.187 1.604c-.04.143-.079.293-.116.448l-.04.152a4.006 4.006 0 0 1-1.537 2.18 4.356 4.356 0 0 1-1.917.755l-.126.018-.126.009c-.489.032-.976.036-1.46.012a5.461 5.461 0 0 1-2.632-.838l-.18-.12a2.89 2.89 0 0 0-.102-.05c-.966-.383-1.78-1.057-2.262-2.046a4.566 4.566 0 0 1-.459-1.984 556.178 556.178 0 0 1-.108-6.034c0-.626.013-1.25.038-1.87l.072-1.737c.057-1.535.916-2.83 2.338-3.587a7.587 7.587 0 0 1 1.823-.636 6.21 6.21 0 0 1 2.22-.058c-.026-.006.075.001.217.007.24.01.5.019.784.024.356.007.706.02 1.05.041.382.023.694.05.966.091.88.124 1.695.405 2.419.864zm-7.487 5.155c.014-.154.031-.32.051-.502l.056-.485c.02-.181.04-.327.056-.445l.02-.125c.12-.654.391-1.276.826-1.815a3.728 3.728 0 0 1 2.928-1.384c.519 0 1.04.064 1.563.186a4.81 4.81 0 0 1 2.318 1.27c.602.597.997 1.341 1.171 2.155.125.584.143 1.18.056 1.772a4.76 4.76 0 0 1-.676 1.833 4.24 4.24 0 0 1-1.828 1.627c-.478.221-.983.37-1.506.446-.362.053-.722.08-1.08.08-1.194 0-2.354-.431-3.174-1.5-.623-.811-.845-1.722-.812-2.653.003-.136.013-.262.03-.46zm6.126-.927c-.616-.802-1.418-1.113-2.124-1.126-.099.02-.2.051-.29.093a2.426 2.426 0 0 0-1.053.904 1.873 1.873 0 0 0-.263.713c-.028.188-.022.388.02.581.09.422.312.84.65 1.176a1.926 1.926 0 0 0 .871.497c.852 0 1.727-.383 2.32-1.118a2.67 2.67 0 0 0 .383-.639 2.453 2.453 0 0 0-.202-.582l-2.949-.532 2.885.408a3.032 3.032 0 0 0-.248-.375zm6.206.693a2.597 2.597 0 0 1-.227-.446 2.734 2.734 0 0 1-.509.595c-.542.48-1.081.653-1.544.676.217-.008.48-.01.748-.005.309.005.62.014.935.025l.73.026a52.275 52.275 0 0 1-.009-.701 1.918 1.918 0 0 1-.124-.17zm-.226-.93a2.55 2.55 0 0 0-.133.034c.031.156.076.307.132.45l.001-.484zm-.156-.1l-.13-.012a5.49 5.49 0 0 0-1.268.036c-.708.111-1.389.39-1.984.922a3.643 3.643 0 0 0-1.049 1.606c.18.537.482 1.042.921 1.478.6.595 1.327.937 2.1 1.085.347.066.72.101 1.158.12l.032.01a2.73 2.73 0 0 1-.943-.555 2.285 2.285 0 0 1-.365-.422c-.468-.654-.61-1.702-.183-2.633a2.762 2.762 0 0 1 1.734-1.5 2.651 2.651 0 0 1-.023-.135zm.362.062l.144-.016v-.012a10.02 10.02 0 0 0-.1-.003c-.053.18-.134.366-.25.551v2.78l.304-3.32-.137-.013h-.167v.07c.069-.015.137-.028.206-.037zM42.998 9.67h3.36l-3.349-.277a8.43 8.43 0 0 0-.01.135l-.001.142zm.063 1.401l3.315-.548-3.337.39a6.83 6.83 0 0 0 .022.158zm3.478 3.279l.392-3.311-.6 3.28a5.267 5.267 0 0 0 .208.03zm2.757.177l-.216-.086c.047-.117.104-.23.169-.34a2.548 2.548 0 0 1-.214-.19.924.924 0 0 1-.199-.275c-.058-.135-.06-.146-.05-.082a13.607 13.607 0 0 1 .103.946l.407.027zm1.739.69v-2.385a2.788 2.788 0 0 0-1.786 1.27c.418.33.868.466 1.23.466a16.806 16.806 0 0 1-1.183-.041l1.739.69zm.264-2.428l.002-.024-.114-.009a7.637 7.637 0 0 0-.152-.001v.077c.087-.018.175-.033.264-.043zm-4.442-.397a1.638 1.638 0 0 1-.214-.021c.33.081.75.33 1.078.745.32.404.456.848.456 1.212V12.5c-.436-.037-.876-.073-1.32-.108zm1.147-6.61l.055-.163.038-.168a2.12 2.12 0 0 1-.033.126 2.74 2.74 0 0 1-.06.205zm.324 1.564c-.337.062-.337.062-.454.07a1.88 1.88 0 0 1-.083.005h.574c.17 0 .347.005.53.014.222.01.413.022.572.032l-.11-.009a1.481 1.481 0 0 1-.506-.149 2.132 2.132 0 0 1-.143-.078c-.155.063-.218.078-.38.115zM47.791.756h.574c.283 0 .572.007.866.021.257.013.484.026.683.04l.111.008c.64.064 1.257.238 1.832.522.749.372 1.367.93 1.84 1.655.708 1.113.91 2.481.293 3.794a3.775 3.775 0 0 1-1.365 1.577c.42.204.811.477 1.162.826a5.73 5.73 0 0 1 1.232 1.826c.208.48.33.983.416 1.57.058.394.104.797.14 1.212.039.461.055.902.047 1.325-.013.626-.059 1.079-.235 1.602l-.068.184c-.631 1.566-2.1 2.556-3.814 2.522a6.692 6.692 0 0 1-.468-.019l-.135.001-.133-.01c-.764-.06-1.517-.124-2.258-.19-.717-.064-1.445-.125-2.08-.177a7.233 7.233 0 0 1-1.297-.177c-1.066-.226-2.015-.77-2.702-1.638-.666-.843-.975-1.85-.975-2.901V7.963c-.012-.48-.018-.962-.018-1.447v-1.33a3.826 3.826 0 0 1 .13-1.313c.199-.79.59-1.514 1.25-2.1.768-.682 1.66-.967 2.644-1.015.384-.014.772-.018 1.162-.01.259.004.52.01.782.018.125-.008.245-.01.384-.01z"/>
        <path fill="#1A1A1A" d="M4.48 11.453l5.936 3.113 40.046-1.086 1.567-9.501H41.141L12.525 5.545 9.167 2.404l-3.854-.182z"/>
        <path fill="#FDE44F" d="M6.747 5.724a15.29 15.29 0 0 0-.69-.053c-.221-.012-.451-.024-.69-.035-.287-.012-.418.124-.394.408.012.072.018.143.018.214v.213c.012.26.053.427.125.498.072.071.227.124.466.16.287.047.574.086.86.115.287.03.568.075.842.134.622.095 1.156.296 1.604.604a5.43 5.43 0 0 1 1.12 1.005c.299.361.526.705.681 1.03.156.327.251.555.287.685.036.13.066.338.09.622a19.509 19.509 0 0 1 .062 1.85 3.502 3.502 0 0 1-.062.675c-.132.427-.416.78-.852 1.058a6.13 6.13 0 0 1-1.478.675c-.55.172-1.105.302-1.667.391-.561.09-1.039.157-1.433.205a1.834 1.834 0 0 1-.475.009 1.002 1.002 0 0 1-.421-.151 3.337 3.337 0 0 1-.887-.747c-.233-.285-.344-.664-.332-1.138.024-.995.024-1.98 0-2.951-.024-.972-.036-1.95-.036-2.933 0-.273.012-.543.036-.81a9.06 9.06 0 0 0 .036-.808c.012-.308.015-.608.01-.898-.007-.29-.01-.59-.01-.898a5.64 5.64 0 0 0 .027-.329c.006-.112.02-.222.045-.328.095-.403.328-.563.699-.48.609.142 1.218.222 1.828.24.609.017 1.218.056 1.827.115a1.555 1.555 0 0 1 .34.036c.276.059.494.192.655.4a.829.829 0 0 1 .152.72.493.493 0 0 1-.125.249.712.712 0 0 1-.215.177 2.141 2.141 0 0 1-.77.125 9.255 9.255 0 0 1-.798-.036 4.102 4.102 0 0 0-.34-.018h-.135zm-.86 5.37a8.51 8.51 0 0 0 1.173-.196c.4-.095.798-.231 1.192-.41.048-.023.12-.07.215-.141.072-.071.099-.199.08-.383a.713.713 0 0 0-.241-.47c-.108-.107-.302-.2-.582-.276a7.69 7.69 0 0 0-.896-.187c-.317-.047-.613-.08-.888-.098a3.866 3.866 0 0 0-.573-.009c-.25.036-.37.166-.358.392l.035.586c.012.19.03.385.054.587.024.225.09.376.197.453.108.077.305.128.592.151zm12.2 4.426a5.21 5.21 0 0 1-.797-.08 7.586 7.586 0 0 1-1.057-.258 6.723 6.723 0 0 1-1.12-.47 3.801 3.801 0 0 1-.968-.72 3.663 3.663 0 0 1-.985-1.76 8.595 8.595 0 0 1-.26-2.872 7.464 7.464 0 0 1 .797-2.764c.37-.557.846-.99 1.425-1.298a7.52 7.52 0 0 1 1.738-.676 9.07 9.07 0 0 1 1.604-.258l1.04-.062c.585-.035 1.09.071 1.514.32.424.25.791.599 1.102 1.05.346.52.627 1.072.842 1.652.215.581.28 1.203.197 1.867a35.064 35.064 0 0 1-.25 1.671 7.374 7.374 0 0 1-.485 1.618 5.514 5.514 0 0 1-2.06 2.453 3.295 3.295 0 0 1-1.067.427 7.93 7.93 0 0 1-1.21.16zm-.788-5.209c.036.225.066.45.09.676.024.225.066.45.125.675.06.297.156.575.287.836.131.26.323.492.573.693.24.19.442.282.61.276.167-.006.382-.074.645-.205.215-.095.448-.326.699-.693.25-.368.487-.768.708-1.2.22-.433.409-.853.564-1.262.155-.41.239-.708.25-.898.037-.38.028-.803-.026-1.271-.054-.468-.2-.91-.439-1.325a2.097 2.097 0 0 0-.52-.63 2.137 2.137 0 0 0-.699-.347 4.084 4.084 0 0 0-.555-.09 1.073 1.073 0 0 0-.421.045.896.896 0 0 0-.35.222 3.743 3.743 0 0 0-.358.427 6.438 6.438 0 0 0-1.004 1.92 4.966 4.966 0 0 0-.179 2.151zm9.083-1.955c.012-.06-.036-.116-.143-.17a1.546 1.546 0 0 1-.359-.266 1.737 1.737 0 0 1-.358-.533c-.108-.231-.161-.56-.161-.987.024-.415.134-.761.331-1.04a2.33 2.33 0 0 1 .833-.702 6.257 6.257 0 0 1 2.267-.65c.77-.064 1.55-.055 2.339.028.155.023.31.041.466.053l.466.035c.609.024.98.32 1.11.89.06.236.111.473.153.71.042.237.045.475.009.712-.036.948-.075 1.887-.116 2.817-.042.93-.063 1.864-.063 2.8.012.308.018.608.018.898 0 .29-.012.59-.036.898 0 .272-.036.521-.108.747-.12.403-.283.678-.492.826-.21.148-.523.228-.941.24-.167 0-.326-.003-.475-.009a2.641 2.641 0 0 0-.475.027c-.31.036-.576.012-.797-.071a1.518 1.518 0 0 1-.565-.365 2.08 2.08 0 0 1-.385-.56 2.861 2.861 0 0 1-.224-.693 7.4 7.4 0 0 1-.126-1.147c-.012-.385-.03-.767-.053-1.146a5.76 5.76 0 0 1-.027-.72 5.76 5.76 0 0 0-.027-.72c-.024-.19-.09-.314-.197-.374-.108-.059-.245-.041-.412.054-.12.07-.242.148-.368.23a.838.838 0 0 0-.278.285c-.19.344-.36.688-.51 1.031-.15.344-.212.723-.188 1.138.023.332.041.658.053.978.012.32.03.646.054.978.012.095.018.192.018.293v.293c-.012.226-.066.4-.161.525a.578.578 0 0 1-.394.222.741.741 0 0 1-.484-.098.702.702 0 0 1-.323-.417 8.811 8.811 0 0 1-.242-.863 6.263 6.263 0 0 1-.134-.88c-.036-.462-.051-.93-.045-1.404.006-.474.02-.942.045-1.405.036-.758.34-1.38.914-1.866.095-.083.212-.175.35-.276a.56.56 0 0 0 .241-.346zm1.935-2.116c0-.273-.017-.471-.053-.596-.036-.124-.102-.204-.197-.24-.084-.023-.212-.011-.386.036a1.086 1.086 0 0 0-.466.267c-.137.13-.233.314-.286.55-.054.238-.01.528.134.872.072.166.224.287.457.364.233.077.427.074.582-.009a.329.329 0 0 0 .162-.177.982.982 0 0 0 .027-.214c.006-.106.009-.222.009-.346a5.3 5.3 0 0 1 .008-.33c.006-.094.01-.153.01-.177zm11.968-2.133c.43.059.795.183 1.094.373.298.19.54.394.725.613.185.22.323.439.412.658.09.22.14.394.153.525.071.462.068.859-.01 1.19a2.24 2.24 0 0 1-.375.845 2.228 2.228 0 0 1-.6.56 4.066 4.066 0 0 1-.655.338 3.092 3.092 0 0 1-.815.213c-.275.024-.496.045-.663.062a.653.653 0 0 0-.386.152c-.09.083-.149.222-.179.417-.03.196-.033.477-.009.845l.108 1.83c.036.605.06 1.21.071 1.814.012.202-.008.397-.062.587-.054.19-.105.385-.153.587a.682.682 0 0 1-.26.382.986.986 0 0 1-.438.169 9.155 9.155 0 0 1-1.067.009 2.087 2.087 0 0 1-1.012-.33 3.215 3.215 0 0 0-.403-.248 5.42 5.42 0 0 0-.421-.196c-.24-.095-.4-.228-.484-.4a1.389 1.389 0 0 1-.126-.613 552.89 552.89 0 0 1-.107-5.956c0-.58.012-1.158.036-1.733l.071-1.751c.012-.32.173-.563.484-.729a4.214 4.214 0 0 1 1.013-.356 2.92 2.92 0 0 1 1.066-.017c.083.012.26.023.528.035.27.012.559.021.87.027.31.006.615.018.913.035.3.018.526.039.681.063zm-1.254 3.27c-.012.238.03.419.125.543.096.124.263.187.502.187.191 0 .389-.015.592-.045.203-.03.394-.086.573-.169a.921.921 0 0 0 .394-.364c.108-.172.176-.359.206-.56.03-.202.024-.4-.018-.596a.951.951 0 0 0-.26-.489 1.447 1.447 0 0 0-.707-.382 3.53 3.53 0 0 0-.798-.098.369.369 0 0 0-.304.134.72.72 0 0 0-.144.329 111.554 111.554 0 0 0-.099.827c-.017.16-.032.305-.044.435-.012.13-.018.213-.018.249zm10.66-3.235c.239.024.46.086.663.187.203.1.37.252.502.453.143.225.173.427.09.605-.084.177-.258.278-.52.302a1.854 1.854 0 0 1-.681-.053 6.29 6.29 0 0 0-1.371-.134c-.46.006-.917.015-1.371.027-.275.012-.448.062-.52.151-.071.089-.113.27-.125.542 0 .285.006.504.018.658a.54.54 0 0 0 .143.356c.084.083.203.139.358.168.156.03.377.05.663.063.323.012.658.077 1.004.195.072.024.14.065.206.125.066.059.123.124.17.195.144.202.17.4.081.596-.09.195-.26.31-.51.346a2.048 2.048 0 0 1-.332.01 6.703 6.703 0 0 0-.35-.01l-.591-.053a2.057 2.057 0 0 0-.44.009.499.499 0 0 0-.259.107.448.448 0 0 0-.125.249 2.163 2.163 0 0 0-.036.435 5.095 5.095 0 0 0-.018.427c0 .142.012.284.036.426.024.202.071.332.143.392.072.059.21.1.412.124.132.024.26.033.385.027a2.81 2.81 0 0 1 .386.009c.19.011.409.026.654.044l.735.053c.244.018.486.033.725.045.24.012.46.018.663.018.407 0 .717.106.932.32.215.213.388.474.52.782.072.166.131.412.18.738.047.325.086.663.116 1.013.03.35.041.675.035.978-.006.302-.026.506-.062.613-.12.296-.335.439-.645.427a3.44 3.44 0 0 1-.26-.01 3.44 3.44 0 0 0-.26-.008c-.753-.06-1.493-.122-2.222-.187-.729-.065-1.47-.127-2.222-.186a4.112 4.112 0 0 1-.753-.107c-.334-.071-.588-.216-.762-.436-.173-.219-.26-.5-.26-.844V7.876c-.011-.45-.017-.904-.017-1.36v-1.36c0-.072-.003-.143-.01-.214a.526.526 0 0 1 .028-.213c.047-.213.128-.37.242-.471.113-.101.29-.157.528-.17.323-.011.648-.014.977-.008.328.006.66.015.994.027 0-.012.078-.018.233-.018h.574c.227 0 .46.006.699.018.239.012.448.023.627.035z"/>
    </g>
</svg>
