<svg xmlns="http://www.w3.org/2000/svg" width="47" height="20" viewBox="0 0 47 20">
    <g fill="none" fill-rule="evenodd">
        <path fill="#1A1A1A" fill-rule="nonzero" d="M8.297 12.634a62.59 62.59 0 0 0-.008.79h3.133l-3.12-.287c-.106 1.174.356 2.357 1.376 3.11.205.153.422.279.646.38.2-.057.394-.131.584-.226a2.758 2.758 0 0 1-.284-.273 2.614 2.614 0 0 1-.63-1.22c-.012-.058-.013-.06-.01-.028a1.64 1.64 0 0 1 .085-.662c.062-.168.155-.322.264-.444a1.115 1.115 0 0 1 .731-.383l-.137.01-.137.023c.66-.11 1.39.02 2.013.435.046-.267.065-.541.065-.823 0-.247-.002-.528-.006-.845a3.573 3.573 0 0 0-.852-.362l-.839 3.043 1.402-2.825a3.27 3.27 0 0 0-1.357-.348c.407.017.818.119 1.206.314l-.626-.315-.7-.017c-.444-.01-.887-.027-1.33-.048a22.62 22.62 0 0 0-1.455-.023l-.014 1.024zm3.543 4.318v-.05c-.002-.002-.005-.002-.007-.003a2.547 2.547 0 0 1-.361-.138l-.02.166c.054.007.11.013.164.018.075.004.15.007.224.007zm0-3.158l-.27 2.171a3.894 3.894 0 0 0 .27-.249v-1.922zm-.932 2.607c.178.148.368.268.564.36l.098-.796c-.214.18-.434.323-.662.436zm-4.46-4.718a2.954 2.954 0 0 1-.793-.075c.03.007.005 0-.014-.007l-.52-.191-.158-.04c.53.134 1.118.569 1.433 1.322a.815.815 0 0 1 .07.265l-2.054.074a2.267 2.267 0 0 1 0 .038h2.055V11.9v-.217h-.019zm.024-4.713a2.06 2.06 0 0 1-.784-.245c-.032.02-.064.039-.096.056a1.338 1.338 0 0 1-.07.042l.066-.04c-.104.057-.21.102-.316.136-.158.05-.322.08-.487.091l.07-.002c.313-.02.624-.035.936-.045.227-.008.454-.005.68.008V6.97zm-1.818.045c.044 0 .087-.002.13-.005l-.13.005zm-.228-1.967l-.01.041a6.584 6.584 0 0 0-.016.078l.004.151a1.559 1.559 0 0 1 .022-.27zm2.175 7.962c0-.27-.003-.596-.008-.975a926.035 926.035 0 0 0-.033-2.08l-.009-.387V6.097a4.043 4.043 0 0 1 2.034-3.532c.385-.22.797-.37 1.222-.452.616.77.855 1.664.855 2.603 0 .146.002.289.006.429.016.482-.039.962-.162 1.429L7.478 5.76l3.062.67a2.275 2.275 0 0 0-.03.348c-.01.303-.012.598-.008.883.006.308.013.566.023.773.023.497.02.433.019.603-.009.343.002.68.03 1.012.052.593.063 1.19.034 1.797-.002.043 0 .09.006.142.043.356.064.711.064 1.065 0-.137-.017-.3-.07-.51a2.752 2.752 0 0 0-.73-1.269 2.69 2.69 0 0 0-1.155-.702 1.932 1.932 0 0 0-.397-.08c.209.013.423.012.645-.002l.195 3.152-.312-3.142c-.104.01-.232.035-.399.092a2.655 2.655 0 0 0-1.053.666c-.397.4-.62.837-.73 1.267a2.117 2.117 0 0 0-.07.44l-.001.045zm3.852-10.97a4.08 4.08 0 0 1 1.986.44l.187.103c1.03.61 1.682 1.63 1.858 2.875.034.29.057.661.077 1.15.019.462.028.973.028 1.535v1.634c0 .534-.003 1.04-.007 1.518.245.162.473.357.68.585.459.51.734 1.103.864 1.726.056.27.09.549.113.897a4.782 4.782 0 0 1-.29 1.898 4.942 4.942 0 0 1-.965 1.606 5.119 5.119 0 0 1-3.335 1.672c-1.203.144-2.458-.307-3.235-1.481a3.604 3.604 0 0 1-.162-.269l-1.548.064a9.27 9.27 0 0 1-2.51-.243c-.237-.06-.468-.131-.694-.214l-.253-.092C2.09 17.1 1.122 16.34.623 15.148a5.57 5.57 0 0 1-.42-1.966L.2 13.07V11.9c0-.327-.01-.657-.022-.895-.066-.759-.09-1.511-.07-2.256.019-.668.052-1.345.098-2.006.023-.374.049-.752.078-1.132.027-.35.05-.697.071-1.03.054-.919.4-1.8 1.088-2.493a4.714 4.714 0 0 1 1.024-.78c.29-.172.597-.31.917-.41.37-.119.751-.184 1.138-.196.355-.022.71-.04 1.066-.05.446-.015.893-.008 1.378.024 1.032.08 1.989.458 2.73 1.306.038.044.074.088.11.132.213-.041.429-.066.646-.073zm11.43 10.172c.032.003.049.007.044.005.196.087.37.19.529.326a2.32 2.32 0 0 1 .48-.252 4.22 4.22 0 0 1-.005-.083c-.14-.004-.284-.006-.432-.006h-.125l-.125.01c-.113.01-.237.01-.372 0h.006zM20.066 8.57a11.378 11.378 0 0 0-.12-.377l-.046.165-.073.254c.092.019.182.04.27.065l-.03-.107zm-.786-.032l-.153 2.157.065-.19.224-1.955a9.542 9.542 0 0 0-.136-.012zm.404-1.945c-.078.037-.164.07-.258.097a8.714 8.714 0 0 0 .06.177c.187.035.385.084.594.146.089.026.155.05.198.07a2.44 2.44 0 0 1-.594-.49zm-.532-.95a14.169 14.169 0 0 1-.006-.038l.006.037zm2.25 12.865c-.628-.048-1.244-.199-1.93-.482a4.265 4.265 0 0 1-1.543-1.141 3.738 3.738 0 0 1-.644.498 4.533 4.533 0 0 1-1.44.567c-1.145.231-2.367-.043-3.277-1.02-.787-.847-1.056-1.931-.908-2.978l.03-.172c.046-.238.107-.47.182-.696.214-.987.482-1.954.803-2.9.285-.84.573-1.683.888-2.594.115-.313.217-.628.305-.944.12-.429.246-.855.366-1.239.11-.372.228-.742.351-1.108.103-.306.2-.608.313-.97.316-.958.89-1.78 1.835-2.306.481-.267.998-.45 1.546-.53.404-.057.724-.046 1.21 0a12.588 12.588 0 0 1 2.354.459c.529.156 1.02.355 1.471.603a3.785 3.785 0 0 1 1.468 1.416c.249.426.413.886.489 1.31.04.2.084.369.13.502l.262.766c.149.395.284.797.405 1.206.12.4.225.8.335 1.277.19.926.378 1.853.563 2.78.183.917.37 1.84.565 2.802.21 1.094.107 2.165-.558 3.154-.694 1.033-1.688 1.516-2.727 1.678a5.352 5.352 0 0 1-1.313.082 6.905 6.905 0 0 0-.332-.01 8.663 8.663 0 0 1-1.198-.01zm-4.697-5.547a10.866 10.866 0 0 1-.022-.267c.005.074.014.148.028.221l-.006.046zm4.572-7.623c.159.234.272.457.368.692.085.209.16.428.227.664.056.193.108.391.154.595l.02.082.05.168c.097.356.174.715.23 1.075.03.188.067.383.11.584l.032.15.018.152c.106.908-.019 1.79-.644 2.649-.593.816-1.337 1.199-2.185 1.4l-.136.032-.138.02c-.126.018-.255.039-.387.062a8.121 8.121 0 0 1-.888.102c-2.142.083-3.747-1.6-3.67-3.71l.005-.138.017-.137c.025-.204.062-.407.11-.61.025-.109.05-.216.077-.32l.038-.142c.245-.82.506-1.647.785-2.478l.07-.206.096-.195c.057-.116.11-.208.182-.33.785-1.318 2.384-1.945 3.881-1.398.75.268 1.22.71 1.578 1.237zm-3.619 4.734l1.104-.13-1.076-.326 1.119.282-.311-1.334-2.102.706c.302.331.696.61 1.256.799l.01.003zm-1.38-.934l-.228.062.015.057.036.111.24-.08.018-.055a3.05 3.05 0 0 1-.08-.095zm2.582.774l.048.012.466-.056-.366.08.51.13a3.053 3.053 0 0 0 1.076-.611 2.861 2.861 0 0 0-2.072-1.935l.135.952.416-.114-.412.138.199 1.404zm-.62-2.431a2.82 2.82 0 0 0-.228-.02c-.404.135-.822.401-1.223.953-.175.24-.299.47-.384.689l2.08-.572-.244-1.05zm-.31 2.704l-.36-.013.267.033.092-.02zm.253.01l.604.022.09-.007-.05-.221-.811.177c.055.011.111.02.167.029zm.719.012a3.01 3.01 0 0 0 .461-.084l-.483-.146-.01.002.032.228zm.006.133l.013.002-.017-.12-.024-.001.028.12zm.892-.085l.888.268.021-.072.017-.07-.43-.108-.496-.018zm-2.325-.25c.057.022.113.043.17.062l-.17-.062zm11.358-3.588a2.187 2.187 0 0 1-.56.448 3.83 3.83 0 0 0-.006.007c.015-.005.055-.017.09-.025a.679.679 0 0 1-.075.01 3.826 3.826 0 0 0-.008.007c.245.033.465.048.793.062l.307.013.013-.368.019-.455a3.562 3.562 0 0 0-.573.301zm-1.516 7.37l.008-.02c.008-.097.025-.194.051-.29l-.06.224.001.086zm-.08.233l.934.269.979-1.566a2.557 2.557 0 0 0-.274-.38c-.237.069-.472.18-.689.337-.4.288-.692.673-.862 1.087a1.46 1.46 0 0 0-.004.14l-.003-.07v-.05a2.37 2.37 0 0 0-.08.233zm.937.375l.063-.087-.066-.02-.057.093.06.014zm1.07-1.484l-1.007 1.397 1.257.362-.25-1.76zm-.088-.628l.089.628.188-.262-.003-.15a6.095 6.095 0 0 0-.696-.428 8.137 8.137 0 0 0-.505-.244c.225.119.448.288.647.517.094-.027.187-.047.28-.06zm.235-.024a5.296 5.296 0 0 1-.627.005c.218.011.421.078.566.17l-.18.289c.04.067.077.137.112.21.114.238.172.464.19.662l-.01-.565-.051-.771zm-1.154-.425a1.707 1.707 0 0 0-.14-.064l.132.057.008.007zm1.214 1.761c.004.045.006.088.006.13l-.004-.154-.002.024zm4.761-12.012c.535.345 1.001.746 1.39 1.213a5.5 5.5 0 0 1 .886 1.465c.174.432.294.837.347 1.278.112.782.101 1.529-.065 2.248a5.23 5.23 0 0 1-2.29 3.286c-.323.206-.65.382-.984.526l.016.274c.035.597.059 1.195.071 1.793a4.865 4.865 0 0 1-.174 1.52 10.24 10.24 0 0 0-.108.425l-.038.144a3.795 3.795 0 0 1-1.433 2.064 4.025 4.025 0 0 1-1.788.717l-.117.017-.118.007c-.456.031-.91.035-1.361.012a5.037 5.037 0 0 1-2.455-.793l-.168-.115a2.677 2.677 0 0 0-.095-.047c-.9-.363-1.66-1-2.11-1.938a4.383 4.383 0 0 1-.427-1.88 535.293 535.293 0 0 1-.101-5.716c0-.593.012-1.184.036-1.772.022-.543.045-1.095.066-1.646.054-1.454.855-2.68 2.182-3.398a7.001 7.001 0 0 1 1.7-.602 5.701 5.701 0 0 1 2.07-.055c-.025-.005.07.001.201.007.224.01.468.017.732.023.332.006.658.019.98.038.356.022.646.049.9.087.82.117 1.58.383 2.255.818zM27.23 6.468a110.466 110.466 0 0 1 .1-.935c.02-.172.037-.31.053-.422l.019-.118c.112-.62.364-1.209.77-1.72a3.455 3.455 0 0 1 2.73-1.31c.484 0 .97.06 1.458.175.821.193 1.563.6 2.162 1.204.56.565.93 1.27 1.092 2.04a4.78 4.78 0 0 1 .051 1.68 4.555 4.555 0 0 1-.63 1.736 3.976 3.976 0 0 1-1.705 1.542 5.02 5.02 0 0 1-1.404.422c-.337.05-.673.076-1.007.076-1.113 0-2.195-.409-2.96-1.421-.581-.768-.788-1.632-.757-2.514.003-.129.012-.248.028-.435zm5.714-.879c-.575-.76-1.323-1.054-1.98-1.066a1.188 1.188 0 0 0-.272.088c-.44.204-.772.516-.981.856-.127.206-.211.44-.246.676-.026.178-.02.367.018.55.085.4.292.797.608 1.115a1.789 1.789 0 0 0 .811.47c.795 0 1.61-.363 2.163-1.059.153-.192.271-.397.358-.605a2.35 2.35 0 0 0-.189-.552l-2.75-.504 2.69.387a2.877 2.877 0 0 0-.23-.356zm6.215 6.047c.144-.014.308-.042.491-.085.091-.021.177-.047.258-.077a.97.97 0 0 0 .042-.41 3.055 3.055 0 0 0-.288-.944 21.41 21.41 0 0 0-.851-.048l.001.108.02 1.48c.093-.004.202-.012.327-.024zm-.253-6.65c-.017.14-.045.27-.08.394l.026.006c.021-.106.038-.212.05-.32l.004-.08zm-2.511-.192l-.24.048.11.022.238-.065-.108-.005zm-2.552.736c.247.912.982 1.585 1.79 1.788l-.045-.01a2.84 2.84 0 0 0 .145.033l-.012-.003c.498.1.963.052 1.361-.088a2.759 2.759 0 0 0 1.657-1.614 2.67 2.67 0 0 0 .087-.256l-2.561-.516-2.422.666zm4.404 4.5l.227-.022.221-.056c-.381.075-.381.075-.514.082l-.112.004c.005 0 .032 0 .074.003l.104-.01zm-.06 1.633v.487a2.595 2.595 0 0 1 .208.251l.063-.726a13.017 13.017 0 0 1-.129-.012h-.143zm.609 1.895c0-.349-.118-.765-.401-1.157l-.1 1.157h.501zm-6.25-3.292c-.011-.834-.017-1.673-.016-2.589.012-.53.03-1.052.053-1.565l.066-1.486.011-.242.017-.084a3.37 3.37 0 0 1 .219-.946 3.45 3.45 0 0 1 2.116-2.065 3.599 3.599 0 0 1 2.013-.128c1.354.295 2.445 1.255 2.846 2.642l.16.011c.302.022.498.04.679.067.81.113 1.572.37 2.263.777a5.376 5.376 0 0 1 1.944 1.982 9.579 9.579 0 0 1 1.248 3.619c.187 1.467-.08 2.925-.742 4.278a5.058 5.058 0 0 1-1.477 1.838 6.796 6.796 0 0 1-1.452.857 8.335 8.335 0 0 1-1.427.471c-.441.104-.873.177-1.297.219-.38.037-.734.057-1.066.057h-.654l-.135-.012c-.307-.027-.608-.06-.904-.101-.194-.027-.394-.05-.636-.07-2.26-.225-3.846-1.927-3.846-4.238l.008-.225c.01-.127.016-.242.02-.344.005-.122.012-.24.02-.356l-.03-2.367zm3.027 5.498c-.912-.574-1.436-1.472-1.597-2.445l-.024-.142-.01-.144-.103-1.4c-.024-.39-.042-.772-.055-1.146a14.03 14.03 0 0 0-.04-.731l-.017-.197.008-.198c.013-.354.031-.644.056-.886.076-.738.304-1.428.842-2.069.657-.783 1.525-1.158 2.424-1.233.234-.02.498-.028.812-.028.798 0 1.573.196 2.272.665.902.606 1.407 1.497 1.602 2.48.152.764.228 1.53.228 2.295 0 1.168-.336 2.284-.967 3.293l-.101.151a6.34 6.34 0 0 1-.762.887c-.206.2-.42.388-.641.566-1.063.885-2.592 1.123-3.927.282zm4.424-6.16l.008-.179a15.972 15.972 0 0 0-.008-.106c-.018.092-.041.186-.072.282l.072.002zm-1.103.804a2.873 2.873 0 0 0-2.969-.083c.059.09.125.178.199.264l1.006.724c.2.08.393.124.573.14.529-.07 1.078-.31 1.545-.782a2.898 2.898 0 0 0-.354-.263zm-3.19.057a2.82 2.82 0 0 1 .13-.086l-.03-.02a2.936 2.936 0 0 1-.1.093v.013z"/>
        <path fill="#1A1A1A" d="M4.654 12.962l5.526 5.017h2.688l3.843-3.158 22.537-4.356.708-4.822-1.887-2.028-9.972.289C13.789 7.087 6.607 8.678 6.55 8.678c-.056 0-.688 1.428-1.897 4.284z"/>
        <path fill="#FDE44F" d="M9.684 9.499V6.097a.876.876 0 0 1 .443-.783.97.97 0 0 1 .91-.008c.19.112.301.286.335.521.022.191.042.494.058.91.017.415.025.884.025 1.406v1.634c0 .567-.002 1.1-.008 1.6-.005.5-.011.935-.017 1.305-.005.37-.008.618-.008.741-.011.124.025.216.109.278a.506.506 0 0 0 .309.093c.089.01.17.014.242.008.073-.006.153-.003.242.009.168.01.298.03.393.058.095.029.17.073.226.135a.532.532 0 0 1 .117.253c.022.107.039.244.05.412.011.214-.022.427-.1.64a1.78 1.78 0 0 1-.351.582 1.99 1.99 0 0 1-1.354.648c-.134.022-.228-.008-.284-.093-.056-.084-.056-.188 0-.311.056-.157.117-.306.184-.447.067-.14.128-.289.184-.446.055-.19-.017-.314-.218-.37a.165.165 0 0 0-.075-.017.165.165 0 0 1-.075-.017 58.613 58.613 0 0 1-1.404-.05 19.51 19.51 0 0 0-1.403-.017l-1.638.067a6.064 6.064 0 0 1-1.621-.152 3.85 3.85 0 0 1-.385-.118l-.367-.134c-.357-.09-.588-.261-.694-.514a2.406 2.406 0 0 1-.175-.85v-1.171c0-.387-.011-.778-.034-1.17a16.681 16.681 0 0 1-.058-1.895c.017-.623.047-1.255.092-1.895.022-.36.047-.721.075-1.086.028-.365.053-.727.075-1.087.011-.19.07-.34.176-.446a1.6 1.6 0 0 1 .376-.278c.089-.056.186-.1.292-.135.106-.033.215-.05.326-.05.345-.023.69-.04 1.036-.05.345-.012.69-.006 1.036.016.29.023.496.104.619.244.122.14.183.357.183.649 0 .18.003.356.009.53.005.174-.014.346-.059.514-.055.258-.089.564-.1.918-.011.354-.014.699-.008 1.036A29.945 29.945 0 0 0 7.41 8.96c-.01.46.003.915.042 1.364.04.45.048.904.025 1.364-.01.225-.003.452.025.683.028.23.042.457.042.682 0 .224.04.376.117.454.078.079.228.124.451.135.346.023.697.023 1.053 0 .223-.022.373-.073.451-.151.078-.08.117-.23.117-.455 0-.292-.003-.64-.008-1.044a929.225 929.225 0 0 0-.034-2.106L9.684 9.5zM22.5 15.36a5.504 5.504 0 0 1-.86 0 2.933 2.933 0 0 1-.895-.219c-.2-.09-.35-.2-.45-.328-.101-.13-.168-.295-.201-.497a14.96 14.96 0 0 0-.159-.918 7 7 0 0 1-.125-.918c-.034-.494-.284-.758-.752-.792a6.514 6.514 0 0 0-.878-.042c-.295.006-.587.009-.877.009-.156 0-.26.053-.31.16-.05.106-.097.216-.141.328a89.32 89.32 0 0 0-.903 2.156.733.733 0 0 1-.292.387c-.128.079-.27.135-.426.169-.167.033-.293.005-.376-.084-.084-.09-.114-.214-.092-.371a2.68 2.68 0 0 1 .083-.32 3.07 3.07 0 0 0 .084-.303c.19-.876.426-1.732.71-2.569.284-.836.571-1.675.86-2.517.146-.393.274-.79.385-1.188.112-.398.229-.794.351-1.187.1-.337.206-.671.318-1.002.111-.332.217-.66.317-.986.09-.27.215-.449.376-.539.162-.09.32-.145.476-.168.078-.011.237-.006.477.017a9.544 9.544 0 0 1 1.763.345c.323.096.607.21.852.345a.674.674 0 0 1 .267.245.997.997 0 0 1 .117.328c.067.337.148.643.243.918l.292.85c.123.326.234.657.334.994.1.337.19.674.268 1.01.19.921.376 1.842.56 2.763.183.92.37 1.847.56 2.779.066.348.041.609-.076.783-.117.174-.354.289-.71.345a2.244 2.244 0 0 1-.552.034c-.189-.011-.395-.017-.618-.017zm-3.86-8.286c-.056-.023-.1-.006-.134.05a2.102 2.102 0 0 0-.067.118 72.642 72.642 0 0 0-.752 2.375l-.067.278a2.668 2.668 0 0 0-.05.278c-.01.303.128.449.418.438.156-.012.315-.031.476-.06.162-.027.32-.053.477-.075.19-.045.314-.11.376-.194.06-.084.08-.222.058-.413-.056-.258-.103-.51-.142-.757a7.035 7.035 0 0 0-.159-.741 4.159 4.159 0 0 1-.1-.371 7.687 7.687 0 0 0-.109-.421 3.494 3.494 0 0 0-.117-.345c-.039-.096-.075-.15-.108-.16zM31.504 3.89c.401.056.74.174 1.02.353.278.18.504.374.676.581.173.208.301.416.385.623.083.208.13.374.142.497.066.438.064.814-.009 1.129-.072.314-.19.58-.35.8a2.091 2.091 0 0 1-.56.53 3.77 3.77 0 0 1-.61.32 2.85 2.85 0 0 1-.76.202c-.257.023-.463.042-.62.06a.604.604 0 0 0-.358.142c-.084.079-.14.21-.168.396-.027.185-.03.452-.008.8l.1 1.735c.034.573.056 1.145.067 1.718.011.19-.008.376-.058.556-.05.18-.098.365-.142.555a.646.646 0 0 1-.243.363.911.911 0 0 1-.409.16 8.404 8.404 0 0 1-.994.008 1.926 1.926 0 0 1-.945-.312 2.99 2.99 0 0 0-.376-.235 5.018 5.018 0 0 0-.392-.186c-.223-.09-.373-.216-.451-.379a1.334 1.334 0 0 1-.117-.58 532.102 532.102 0 0 1-.1-5.643c0-.55.01-1.097.033-1.642l.067-1.659c.01-.303.161-.533.45-.69.313-.158.627-.27.945-.337.317-.068.649-.073.994-.017.078.011.243.022.493.034.25.01.521.02.81.025.29.006.574.017.853.034.279.016.49.036.635.059zm-1.17 3.098c-.01.225.028.396.117.514.09.118.245.177.468.177.178 0 .362-.014.552-.042.189-.028.367-.082.534-.16a.864.864 0 0 0 .368-.345c.1-.163.164-.34.192-.53.028-.192.022-.38-.017-.565a.906.906 0 0 0-.242-.463c-.178-.18-.398-.3-.66-.362a3.243 3.243 0 0 0-.744-.093.342.342 0 0 0-.284.126.688.688 0 0 0-.133.312c-.011.078-.025.19-.042.337-.017.146-.034.294-.05.446-.017.152-.03.29-.042.413a3.59 3.59 0 0 0-.017.235zm5.379 5.76l-.034-2.526a182.17 182.17 0 0 1-.016-2.476c.01-.505.028-1.002.05-1.49l.067-1.49a.786.786 0 0 0 .016-.152c0-.045.012-.096.034-.152.033-.09.106-.154.217-.194a.518.518 0 0 1 .3-.025c.28.056.452.208.519.455.011.056.02.14.025.253.006.112.006.235 0 .37l-.017.38a6.131 6.131 0 0 0-.008.26c.011.225.03.402.058.53.028.13.078.228.15.295a.514.514 0 0 0 .318.118c.14.011.32.006.543-.017.045-.01.179-.01.401 0 .223.012.466.023.727.034.262.011.51.025.744.042.234.017.384.031.451.042.424.056.802.183 1.137.38.334.196.607.48.818.85.457.786.739 1.594.844 2.425.106.83-.047 1.667-.46 2.51-.133.28-.32.513-.559.698-.24.186-.501.34-.785.464a5.22 5.22 0 0 1-.894.294c-.312.073-.61.124-.895.152a7.82 7.82 0 0 1-.76.042h-.518c-.256-.022-.507-.05-.752-.084a15.395 15.395 0 0 0-.752-.084c-.68-.068-1.02-.433-1.02-1.095.012-.157.02-.303.026-.438.005-.135.014-.258.025-.37zm1.153-3.267c.022.258.039.559.05.901.011.343.028.693.05 1.053l.1 1.364c.023.135.078.23.168.286.089.056.183.04.284-.05.156-.124.306-.256.45-.396.146-.14.274-.29.385-.446.323-.517.485-1.053.485-1.609s-.056-1.114-.167-1.676c-.045-.224-.134-.381-.268-.471-.133-.09-.312-.135-.534-.135-.234 0-.418.006-.552.017-.134.011-.231.053-.292.126-.062.073-.1.191-.117.354-.017.163-.031.39-.042.682z"/>
    </g>
</svg>
