<svg xmlns="http://www.w3.org/2000/svg" width="61" height="20" viewBox="0 0 61 20">
    <g fill="none" fill-rule="evenodd">
        <path fill="#979797" fill-rule="nonzero" d="M4.03 15.09c-.005-.016.002-.033.045-.018.257.098.38.059.535-.17.229-.332.443-.67.643-1.013.21-.36.422-.714.627-1.045.034-.059.06-.114.08-.163.044-.116.101-.227.175-.337.358-.524.959-.568 1.329-.115.097.098.18.21.247.334.044.082.085.161.129.25a61.717 61.717 0 0 1 .571 1.252c.149.33.287.574.41.729.095.121.197.2.31.246.137.054.322.084.558.084.291 0 .67-.011 1.135-.034.422-.022.721-.067.883-.127.104-.038.138-.064.13-.047-.008.017-.008.008-.028-.051-.066-.191-.14-.412-.219-.647-.18-.493-.348-.983-.504-1.47a8.17 8.17 0 0 0-.55-1.311c-.238-.463-.365-.909-.372-1.338-.007-.413.08-.856.26-1.341.209-.536.4-1.07.574-1.606.191-.586.451-1.152.768-1.676.047-.085.082-.18.107-.285.032-.141.059-.282.078-.403.011-.095.04-.06-.063-.074a.98.98 0 0 0-.49.069c-.114.05-.21.142-.3.299a5.3 5.3 0 0 0-.28.547 9.791 9.791 0 0 1-.305.628c-.08.161-.158.323-.232.484-.084.18-.177.36-.293.562-.17.267-.406.443-.71.46-.345.02-.612-.173-.771-.465-.099-.173-.191-.342-.277-.509a4.069 4.069 0 0 1-.247-.587 2.09 2.09 0 0 0-.204-.427 5.08 5.08 0 0 0-.648-.85 6.757 6.757 0 0 1-.274-.301c-.066-.066-.2-.12-.42-.143a3.606 3.606 0 0 0-.908.024c-.332.05-.64.12-.923.21-.262.085-.437.162-.498.206-.09.07-.115.1-.105.011.006-.054.025-.003.077.078.06.086.119.168.173.247.063.09.122.184.185.296.331.626.619 1.267.864 1.924.224.6.51 1.18.853 1.736.146.23.215.48.191.74a1.99 1.99 0 0 1-.16.603c-.296.603-.589 1.204-.878 1.802-.289.597-.575 1.196-.864 1.81-.078.157-.15.313-.217.469-.062.145-.12.296-.172.452l-.026.002zm5.245-8.817c.079-.171.161-.342.252-.524.1-.19.192-.38.276-.569.097-.221.21-.442.336-.656.198-.347.469-.605.805-.756.314-.14.662-.193 1.066-.158.718.1 1.126.598 1.04 1.328a6.914 6.914 0 0 1-.097.502 2.253 2.253 0 0 1-.225.59c-.286.473-.51.962-.675 1.467-.18.555-.38 1.11-.593 1.656-.131.354-.192.663-.187.926.004.246.084.53.247.844.251.48.459.974.622 1.485.152.473.315.949.495 1.443l.22.653c.11.32.11.632-.028.909s-.394.465-.739.593c-.288.106-.686.167-1.211.193-.482.024-.878.037-1.19.037-.368 0-.69-.053-.969-.165-.3-.12-.559-.32-.77-.59-.186-.235-.367-.554-.551-.962a65.102 65.102 0 0 0-.532-1.167c-.01.02-.022.04-.034.061-.21.34-.418.685-.622 1.036-.214.368-.444.729-.685 1.08-.44.653-1.11.863-1.83.587-.622-.215-.905-.74-.7-1.358.064-.193.135-.379.212-.56.075-.175.157-.35.239-.515.284-.606.572-1.21.863-1.81.29-.6.583-1.201.866-1.776a.847.847 0 0 0 .066-.245c0-.002-.003-.012-.026-.048a10.956 10.956 0 0 1-.953-1.938 15.209 15.209 0 0 0-.796-1.777 2.728 2.728 0 0 0-.125-.2 30.957 30.957 0 0 0-.179-.254c-.194-.3-.292-.557-.263-.825.034-.302.222-.532.545-.78.188-.137.457-.255.822-.372a6.88 6.88 0 0 1 1.1-.252 4.71 4.71 0 0 1 1.186-.03c.454.048.822.196 1.117.494.064.074.152.171.265.29a6.188 6.188 0 0 1 .79 1.034c.133.219.237.438.31.657a2.957 2.957 0 0 0 .21.485l.03-.063zm10.96 8.544c.322-.07.613-.187.865-.346a4.943 4.943 0 0 0 1.837-2.207c.209-.495.357-.994.444-1.497a34.83 34.83 0 0 0 .244-1.645 3.378 3.378 0 0 0-.165-1.606 7.455 7.455 0 0 0-.771-1.531 2.91 2.91 0 0 0-.916-.885c-.32-.19-.71-.272-1.185-.243l-1.028.062c-.45.027-.946.108-1.489.243-.527.13-1.058.339-1.592.625a3.282 3.282 0 0 0-1.177 1.057 6.964 6.964 0 0 0-.733 2.561c-.072.88.009 1.775.245 2.7.13.564.406 1.06.836 1.502.23.241.503.445.818.614.338.18.677.324 1.017.432.348.11.67.19.969.239.289.047.519.071.685.072.38-.022.745-.071 1.096-.147zm-1.05 1.258h-.031c-.236 0-.527-.029-.88-.087a8 8 0 0 1-1.125-.276 7.176 7.176 0 0 1-1.202-.51 4.313 4.313 0 0 1-1.094-.823 4.216 4.216 0 0 1-1.117-2.01 9.232 9.232 0 0 1-.272-3.054c.082-1.014.365-2.005.88-3.025a4.403 4.403 0 0 1 1.61-1.482 7.956 7.956 0 0 1 1.85-.725 9.446 9.446 0 0 1 1.689-.273l1.029-.062c.685-.042 1.295.088 1.815.396.492.292.915.698 1.272 1.221.367.557.664 1.147.892 1.768.244.666.318 1.377.225 2.127a35.943 35.943 0 0 1-.252 1.697 7.992 7.992 0 0 1-.517 1.743 6.067 6.067 0 0 1-2.254 2.703 3.798 3.798 0 0 1-1.235.5c-.413.09-.84.146-1.283.172zm-1.36-5.677l-.002-.018a5.568 5.568 0 0 1 .199-2.387 7.008 7.008 0 0 1 1.075-2.082 4.26 4.26 0 0 1 .41-.49c.165-.166.354-.287.563-.357.197-.066.41-.089.635-.071.182.014.39.048.669.111.334.102.626.248.872.44.25.197.468.463.654.794.274.48.443.994.505 1.537.057.504.067.966.029 1.369-.016.259-.111.602-.283 1.059-.161.428-.356.867-.584 1.317-.229.453-.474.873-.736 1.26-.301.446-.599.744-.903.88-.325.162-.609.253-.867.262-.325.011-.64-.132-.972-.4a2.65 2.65 0 0 1-.715-.876 3.766 3.766 0 0 1-.324-.942 5.068 5.068 0 0 1-.14-.76 12.639 12.639 0 0 0-.085-.646zm1.188.53c.02.197.057.395.117.625.05.249.128.48.236.696.094.188.232.358.418.508.143.115.23.155.237.154.073-.002.215-.048.434-.156.099-.045.262-.208.458-.498.235-.347.457-.727.665-1.14.21-.414.388-.817.535-1.206.136-.361.206-.616.215-.754a5.656 5.656 0 0 0-.025-1.156 2.877 2.877 0 0 0-.367-1.114 1.556 1.556 0 0 0-.373-.467 1.53 1.53 0 0 0-.471-.242 3.484 3.484 0 0 0-.472-.077.509.509 0 0 0-.2.017.34.34 0 0 0-.129.088 3.241 3.241 0 0 0-.302.366 5.905 5.905 0 0 0-.91 1.755 4.454 4.454 0 0 0-.157 1.907c.036.231.067.463.091.695zm15.523 4.108c.01 0-.044.058-.039-.027.011-.198.014-.399.009-.603a3.737 3.737 0 0 0-.052-.537c-.15-.751-.216-1.5-.197-2.247.018-.716.057-1.435.117-2.156.057-.709.066-1.406.026-2.091-.042-.713-.08-1.432-.115-2.14-.017-.216-.09-.304-.309-.363a4.781 4.781 0 0 0-1.32-.192c-.445 0-.89.049-1.35.15a4.333 4.333 0 0 0-1.624.662c-.518.35-1.014.75-1.492 1.207-.31.29-.539.619-.692.989-.179.434-.343.87-.492 1.305-.108.327-.19.664-.244 1.013l-.18 1.153a11.035 11.035 0 0 0-.074 3.605c.013.06.048.123.115.194.09.094.196.17.32.23.137.067.282.113.438.14.14.024.257.024.357.003.322-.065.615-.15.878-.256.166-.066.329-.138.489-.215.124-.06.23-.131.32-.213a.854.854 0 0 0 .193-.266.858.858 0 0 0 .07-.372 41.042 41.042 0 0 1 .09-2.125c.035-.547.086-1.138.152-1.772.067-.647.161-1.266.284-1.86a8.583 8.583 0 0 1 .485-1.616c.223-.527.51-.915.894-1.16.353-.207.732-.243 1.082-.074.326.158.543.447.648.853.037.185.071.373.102.563.034.213.051.43.051.637.012.563.015 1.12.009 1.671-.006.543-.009 1.092-.009 1.647v.898c0 .283.006.575.018.898 0 .337.006.671.017 1.003l.035 1.004c.008.12.026.231.053.337.332.082.644.123.937.123zm-2.364-8.612c-.153.098-.31.309-.452.646a7.491 7.491 0 0 0-.42 1.407c-.115.556-.204 1.14-.267 1.75a46.533 46.533 0 0 0-.219 3.097c-.012.378-.017.61-.017.685 0 .316-.058.603-.18.855a1.962 1.962 0 0 1-.446.605 2.44 2.44 0 0 1-.584.391c-.183.089-.37.171-.559.247a6.078 6.078 0 0 1-1.065.312 2.019 2.019 0 0 1-.77.004 2.735 2.735 0 0 1-.733-.234 2.21 2.21 0 0 1-.638-.462 1.527 1.527 0 0 1-.405-.766 12.125 12.125 0 0 1 .071-3.989l.178-1.138c.064-.41.16-.807.29-1.196.157-.461.33-.92.517-1.375.214-.518.535-.978.955-1.372.52-.495 1.064-.936 1.635-1.32a5.418 5.418 0 0 1 2.018-.83 7.31 7.31 0 0 1 1.574-.172c.538 0 1.08.078 1.618.232.664.18 1.064.661 1.119 1.363.035.721.074 1.436.115 2.146.043.737.034 1.486-.028 2.247a36.23 36.23 0 0 0-.113 2.093c-.017.663.042 1.33.178 2.013.04.23.064.467.07.713.007.235.003.466-.01.7-.041.645-.439 1.07-1.068 1.07-.39 0-.795-.053-1.238-.164-.371-.11-.644-.35-.748-.704-.06-.2-.096-.41-.112-.646l-.035-1.021a28.456 28.456 0 0 1-.018-1.02 23.972 23.972 0 0 1-.018-.92v-.898c0-.559.003-1.112.009-1.659.006-.54.003-1.084-.009-1.647 0-.16-.012-.318-.037-.472-.029-.177-.06-.35-.087-.49-.019-.071-.032-.092-.048-.101.005.002.005.004-.023.02zm11.233 8.393c.322-.07.613-.187.865-.346a4.943 4.943 0 0 0 1.838-2.207c.208-.495.356-.994.443-1.497a34.83 34.83 0 0 0 .245-1.645 3.378 3.378 0 0 0-.166-1.606 7.455 7.455 0 0 0-.77-1.531 2.91 2.91 0 0 0-.917-.885c-.32-.19-.71-.272-1.184-.243l-1.028.062c-.45.027-.947.108-1.49.243-.527.13-1.058.339-1.592.625a3.282 3.282 0 0 0-1.176 1.057 6.964 6.964 0 0 0-.733 2.561c-.072.88.008 1.775.244 2.7.13.564.406 1.06.837 1.502.23.241.502.445.818.614.337.18.676.324 1.016.432.348.11.671.19.97.239.288.047.518.071.684.072.38-.022.745-.071 1.096-.147zm-1.05 1.258h-.03c-.236 0-.528-.029-.88-.087a8 8 0 0 1-1.125-.276 7.176 7.176 0 0 1-1.202-.51 4.313 4.313 0 0 1-1.095-.823 4.216 4.216 0 0 1-1.116-2.01 9.232 9.232 0 0 1-.273-3.054c.083-1.014.366-2.005.88-3.025a4.403 4.403 0 0 1 1.611-1.482 7.956 7.956 0 0 1 1.85-.725 9.446 9.446 0 0 1 1.688-.273l1.03-.062c.685-.042 1.295.088 1.815.396.492.292.914.698 1.272 1.221.366.557.664 1.147.891 1.768.245.666.319 1.377.225 2.127a35.943 35.943 0 0 1-.252 1.697 7.992 7.992 0 0 1-.516 1.743 6.067 6.067 0 0 1-2.255 2.703 3.798 3.798 0 0 1-1.234.5c-.413.09-.84.146-1.283.172zm-1.36-5.677l-.002-.018a5.568 5.568 0 0 1 .199-2.387 7.008 7.008 0 0 1 1.075-2.082 4.26 4.26 0 0 1 .41-.49c.166-.166.354-.287.563-.357.198-.066.41-.089.635-.071.183.014.391.048.67.111.334.102.626.248.871.44.251.197.468.463.655.794.274.48.442.994.504 1.537.057.504.067.966.03 1.369-.017.259-.112.602-.284 1.059-.16.428-.355.867-.583 1.317-.23.453-.475.873-.737 1.26-.3.446-.599.744-.903.88-.325.162-.608.253-.867.262-.324.011-.639-.132-.972-.4a2.65 2.65 0 0 1-.715-.876 3.766 3.766 0 0 1-.324-.942 5.068 5.068 0 0 1-.14-.76 12.639 12.639 0 0 0-.084-.646zm1.189.53c.02.197.057.395.116.625.05.249.128.48.236.696.094.188.233.358.419.508.142.115.23.155.237.154.072-.002.215-.048.433-.156.099-.045.263-.208.458-.498.235-.347.457-.727.666-1.14.21-.414.388-.817.534-1.206.136-.361.207-.616.216-.754a5.656 5.656 0 0 0-.026-1.156 2.877 2.877 0 0 0-.366-1.114 1.556 1.556 0 0 0-.374-.467 1.53 1.53 0 0 0-.47-.242 3.484 3.484 0 0 0-.473-.077.509.509 0 0 0-.2.017.34.34 0 0 0-.128.088 3.241 3.241 0 0 0-.303.366 5.905 5.905 0 0 0-.91 1.755 4.454 4.454 0 0 0-.156 1.907c.036.231.066.463.09.695zm7.471-4.324c0 .565-.003 1.107-.009 1.625-.006.516-.012.953-.018 1.31-.003.183-.007.321-.011.418-.004.071-.004.071-.01.136l-.003.022c.022.75.04 1.497.05 2.24.013.762.03 1.527.054 2.312 0 .076.019.167.065.287.02-.01.008.008-.024.052a.205.205 0 0 0-.005-.002.608.608 0 0 0 .054-.175 3.48 3.48 0 0 0 .061-.651c0-.281.02-.56.06-.847a6.16 6.16 0 0 0 .03-.432c.011-.261.026-.578.044-.952a59.104 59.104 0 0 0 .061-2.498c0-.43-.003-.839-.009-1.227-.005-.379-.02-.698-.04-.93a4.662 4.662 0 0 1-.04-.616l.004-.622c.02-.18.072-.348.158-.499a.807.807 0 0 1 .724-.403c.276-.012.549-.021.819-.027.287-.007.576.003.893.031.311.042.553.14.716.36.14.186.191.413.191.672.012.408.018.814.018 1.216 0 .392.006.78.017 1.161a413.9 413.9 0 0 0 .247 5.5c.01.113.025.222.046.329l.076.414c.028.218.104.302.324.35.232.055.463.099.695.132l.747.105c.583.066.906-.12 1.123-.665.092-.193.152-.408.184-.668.088-.542.118-1.08.09-1.616a34.206 34.206 0 0 0-.13-1.71c-.06-.634-.108-1.26-.144-1.877a9.744 9.744 0 0 1 .096-2.004 4.93 4.93 0 0 0 .072-1.079c-.012-.264-.129-.53-.367-.804a1.611 1.611 0 0 0-.407-.346.586.586 0 0 0-.347-.055c-.224.022-.45.053-.68.092-.255.044-.508.078-.763.104-.535.047-1.07.092-1.604.134-.55.042-1.107.058-1.685.045l-.71-.036a3.006 3.006 0 0 0-.73.051v.169c.011.419.017.91.017 1.474zm-1.118 1.612c.006-.514.009-1.05.009-1.612 0-.558-.006-1.041-.018-1.45v-.016c0-.166.003-.298.01-.402a.975.975 0 0 1 .154-.484.814.814 0 0 1 .523-.342c.095-.02.223-.043.389-.068.273-.041.546-.055.82-.041l.694.035c.526.011 1.046-.003 1.56-.043.53-.042 1.06-.086 1.584-.132.224-.023.451-.054.68-.093.256-.044.508-.078.763-.103.367-.034.704.028.996.193.247.139.478.333.697.582.397.457.617.956.641 1.486.02.438-.01.879-.085 1.307a8.606 8.606 0 0 0-.084 1.761c.035.604.082 1.217.14 1.834.06.59.105 1.177.135 1.761a8.613 8.613 0 0 1-.1 1.828 3.088 3.088 0 0 1-.266.957c-.39.983-1.19 1.448-2.276 1.323-.262-.036-.517-.071-.767-.107a8.694 8.694 0 0 1-.784-.15c-.668-.144-1.088-.605-1.174-1.26a46 46 0 0 0-.07-.378 4.528 4.528 0 0 1-.062-.458 454.604 454.604 0 0 1-.25-5.54 39.658 39.658 0 0 1-.017-1.2c0-.376-.006-.754-.016-1.15a6.816 6.816 0 0 0-.668-.019c-.202.005-.405.011-.62.02v.42c0 .16.01.316.033.495.025.287.04.631.046 1.035.006.394.01.809.01 1.244a60.206 60.206 0 0 1-.063 2.55l-.045.95a5.79 5.79 0 0 1-.04.552 4.789 4.789 0 0 0-.048.677c0 .29-.027.576-.078.847-.035.21-.107.406-.256.646-.132.165-.314.265-.547.336a1.577 1.577 0 0 1-.454.086.856.856 0 0 1-.496-.162.844.844 0 0 1-.302-.358c-.154-.31-.236-.612-.236-.89a151.77 151.77 0 0 1-.053-2.31c-.012-.762-.03-1.526-.053-2.294l-.018-.572h.045l.017-1.291z"/>
        <path fill="#1A1A1A" fill-rule="nonzero" d="M9.708 12.347c.131.01.271.04.454.114.065.026.128.055.19.087.113-.07.228-.125.342-.17l-.028-.062c-.402.02-.724.03-.958.03zm-.284-2.082l-2.352 2.357 2.568-2.119C8.778 9.455 7.57 9.03 6.421 9.171a3.469 3.469 0 0 0 3.02 1.365c.073-.004.145-.01.216-.018a4.172 4.172 0 0 0-.233-.253zM3.397 11.62c.026-.06.051-.11.076-.154l2.889 1.654-2.827-1.758a47.01 47.01 0 0 0-.095.154c-.015.034-.03.069-.043.104zm5.278.158l.084-.185c.184-.443.305-.906.348-1.389a3.937 3.937 0 0 0-.612-2.482 6.912 6.912 0 0 1-.38-.705 27.25 27.25 0 0 1-.273.728c-.31.836-.464 1.617-.45 2.402.015.888.258 1.742.679 2.562.027.05.052.1.077.15.174-.359.35-.72.527-1.08zM6.992 4.452l-.223.191.005.064.23-.231a19.372 19.372 0 0 0-.012-.024zM4.896 6.588c.29.29.588.468.861.565l.035-.025c.089-.068.194-.165.323-.324.32-.39.569-.89.643-1.565.021-.189.025-.366.016-.532L4.896 6.588zm.56.77c.147-.044.3-.079.478-.105a.86.86 0 0 1 .213-.01 1.69 1.69 0 0 1-.39-.09 3.541 3.541 0 0 1-.3.205zm-.044-.137a.86.86 0 0 1-.06-.14l.035.1.025.04zm4.96-2.619l1.384.84.092-.666-1.477-.174zm-.261-.03l-.913-.108-.001.005c-.166 1.441.955 2.808 2.28 2.993l.275-1.993-1.641-.897zm-.914-.108a2.44 2.44 0 0 1 .04-.114l-.022-.003a4.502 4.502 0 0 1-.041.207 1.862 1.862 0 0 1 .023-.09zm1.174.138l-.17-.103-.311-.048.22.12.261.031zm-1.039-.456a1.742 1.742 0 0 0-.095.204l.653.1-.558-.304zm5.45 7.413c.14.437.292.878.486 1.414.08.24.15.449.212.628.334.975.334 2.042-.17 3.054-.506 1.012-1.315 1.608-2.261 1.957-.607.224-1.25.323-2.031.362-.525.026-.965.04-1.329.04a5.31 5.31 0 0 1-1.999-.364 4.525 4.525 0 0 1-.89-.477 4.123 4.123 0 0 1-4.007.57C.775 18.044-.335 15.986.366 13.878c.088-.264.186-.523.293-.774.097-.227.202-.452.279-.604a172.188 172.188 0 0 1 1.211-2.528c-.178-.372-.34-.75-.483-1.135-.187-.499-.406-.987-.607-1.37a17.681 17.681 0 0 0-.138-.197l-.086-.127C.322 6.35.025 5.577.145 4.503.286 3.226.88 2.498 1.814 1.784c.48-.349.984-.571 1.606-.771A9.64 9.64 0 0 1 4.962.658 7.474 7.474 0 0 1 6.843.614c.877.092 1.695.38 2.39.932.183-.118.376-.222.579-.313A4.834 4.834 0 0 1 12.21.838l.182.02c2.177.303 3.678 2.136 3.414 4.385l-.016.117c-.036.236-.081.471-.135.705a5.007 5.007 0 0 1-.48 1.273l-.075.129c-.177.294-.313.59-.411.89-.176.541-.367 1.08-.56 1.581.258.525.476 1.066.653 1.621zm4.862.544c.342-.247.577-.543.739-.92.128-.303.215-.599.266-.892.086-.492.16-.997.225-1.513a.627.627 0 0 0-.017-.304c-.11-.3-.249-.585-.397-.827l-.731.045c-.273.016-.605.07-.992.166a4.098 4.098 0 0 0-.948.378.495.495 0 0 0-.116.083 4.074 4.074 0 0 0-.34 1.313c-.047.567.006 1.154.182 1.845.014.063.039.107.137.208a.46.46 0 0 0 .12.084c.19.102.374.18.552.236a4.186 4.186 0 0 0 .788.176c.187-.016.364-.042.532-.078zm-.49 6.75c-.408 0-.84-.043-1.327-.123-.492-.081-.996-.205-1.517-.37a9.943 9.943 0 0 1-1.665-.706 7.042 7.042 0 0 1-1.776-1.334c-.917-.94-1.543-2.07-1.819-3.262a12.012 12.012 0 0 1-.35-3.97 10.853 10.853 0 0 1 1.13-3.983l.089-.178.11-.167a7.177 7.177 0 0 1 2.616-2.4 10.718 10.718 0 0 1 2.494-.974c.76-.188 1.488-.306 2.185-.349l1.028-.062c1.216-.074 2.376.173 3.397.778.851.505 1.569 1.194 2.176 2.084.483.735.877 1.516 1.179 2.338.4 1.09.52 2.248.373 3.43-.077.62-.168 1.23-.272 1.828-.138.798-.37 1.58-.7 2.364-.693 1.612-1.794 2.936-3.325 3.957-.652.411-1.367.7-2.128.865-.555.12-1.125.195-1.708.229l-.19.005zm-4.001-7.517a9.856 9.856 0 0 0-.067-.505l-.015-.106a8.346 8.346 0 0 1 .307-3.569A9.75 9.75 0 0 1 16.86 4.27c.223-.305.446-.573.685-.813a4.2 4.2 0 0 1 1.647-1.027 4.356 4.356 0 0 1 1.724-.206c.327.025.66.08 1.017.159l.125.027.122.038a5.411 5.411 0 0 1 1.772.908c.56.439 1.006.986 1.355 1.605.46.806.747 1.681.851 2.6a9.22 9.22 0 0 1 .042 1.857c-.038.605-.193 1.168-.456 1.865a16.056 16.056 0 0 1-.704 1.594c-.281.555-.586 1.076-.914 1.562-.549.811-1.16 1.432-2.014 1.833-.63.309-1.25.502-1.953.527-1.119.04-2.001-.363-2.816-1.016a5.422 5.422 0 0 1-1.45-1.794 6.64 6.64 0 0 1-.55-1.571 7.834 7.834 0 0 1-.191-1.081zm4.417-2.463c.004-.058.018-.13.03-.178a2.793 2.793 0 0 1-.026.082c0 .034-.002.067-.004.096zm8.313 3.493c-.12.056-.207.094-.296.13-.097.039-.221.076-.374.107.126-.026.253-.037.374-.036.098-.085.199-.152.296-.2zm3.948-4.809c.335-.072.58-.1.824-.1.166 0 .344.026.54.08-.863-.242-1.599-1.133-1.674-2.084a188.364 188.364 0 0 0 .115 2.152 1.94 1.94 0 0 1 .195-.048zm2.559 4.705l.003-.011.03.01a2.78 2.78 0 0 1 .101-.003 1.377 1.377 0 0 1-.263-.043l-.014.058a2.75 2.75 0 0 1 .143-.011zm-3.598 6.1c-.24.116-.485.224-.734.324a8.702 8.702 0 0 1-1.514.449c-.605.13-1.214.13-1.819.026a5.504 5.504 0 0 1-1.472-.472 4.983 4.983 0 0 1-1.433-1.04 4.276 4.276 0 0 1-1.108-2.07l-.038-.21a14.907 14.907 0 0 1 .075-4.826l.177-1.138c.088-.56.22-1.109.406-1.666.176-.516.37-1.028.579-1.537a6.664 6.664 0 0 1 1.605-2.322 15.27 15.27 0 0 1 1.997-1.613 8.085 8.085 0 0 1 2.974-1.238A10.078 10.078 0 0 1 32.655.79c.8 0 1.598.116 2.341.329 1.793.485 3.013 1.951 3.165 3.907.035.713.073 1.42.114 2.121.05.867.04 1.744-.032 2.64a33.448 33.448 0 0 0-.105 1.932 6.5 6.5 0 0 0 .136 1.46c.065.367.102.74.112 1.121.008.31.004.618-.015.954-.13 2.033-1.658 3.67-3.835 3.67a7.764 7.764 0 0 1-1.889-.242l-.132-.036a4.041 4.041 0 0 1-1.197-.577c-.169.107-.344.204-.526.292zm12.022-6.259c.342-.247.578-.543.74-.92.127-.303.215-.599.266-.892.085-.492.16-.997.225-1.513a.627.627 0 0 0-.017-.304c-.11-.3-.25-.585-.398-.827l-.73.045c-.274.016-.606.07-.992.166a4.098 4.098 0 0 0-.949.378.495.495 0 0 0-.116.083 4.074 4.074 0 0 0-.34 1.313c-.046.567.006 1.154.182 1.845.015.063.04.107.137.208a.46.46 0 0 0 .12.084c.191.102.375.18.552.236a4.186 4.186 0 0 0 .789.176c.186-.016.363-.042.531-.078zm-.49 6.75c-.407 0-.839-.043-1.327-.123-.491-.081-.996-.205-1.516-.37a9.943 9.943 0 0 1-1.666-.706 7.042 7.042 0 0 1-1.775-1.334c-.917-.94-1.544-2.07-1.82-3.262a12.012 12.012 0 0 1-.35-3.97A10.853 10.853 0 0 1 35 5.105l.09-.178.109-.167a7.177 7.177 0 0 1 2.616-2.4 10.718 10.718 0 0 1 2.494-.974c.761-.188 1.488-.306 2.185-.349l1.029-.062c1.215-.074 2.375.173 3.397.778.85.505 1.568 1.194 2.175 2.084.484.735.878 1.516 1.18 2.338.399 1.09.52 2.248.373 3.43-.078.62-.168 1.23-.272 1.828-.139.798-.37 1.58-.701 2.364-.692 1.612-1.793 2.936-3.324 3.957-.652.411-1.368.7-2.128.865-.555.12-1.125.195-1.709.229l-.19.005zm-4-7.517a9.856 9.856 0 0 0-.067-.505l-.015-.106a8.346 8.346 0 0 1 .306-3.569 9.75 9.75 0 0 1 1.483-2.887c.223-.305.446-.573.686-.813a4.2 4.2 0 0 1 1.646-1.027 4.356 4.356 0 0 1 1.725-.206c.326.025.66.08 1.016.159l.125.027.122.038a5.411 5.411 0 0 1 1.772.908c.56.439 1.006.986 1.355 1.605.46.806.747 1.681.852 2.6a9.22 9.22 0 0 1 .042 1.857c-.038.605-.194 1.168-.456 1.865a16.056 16.056 0 0 1-.705 1.594c-.28.555-.585 1.076-.914 1.562-.548.811-1.16 1.432-2.013 1.833-.63.309-1.25.502-1.954.527-1.118.04-2-.363-2.815-1.016a5.422 5.422 0 0 1-1.45-1.794 6.64 6.64 0 0 1-.55-1.571 7.834 7.834 0 0 1-.192-1.081zm4.416-2.463c.004-.058.018-.13.03-.178a2.793 2.793 0 0 1-.026.082c0 .034-.002.067-.004.096zm7.301-1.163l.15-.024a.234.234 0 0 1 .039-.001l.71.035a20.56 20.56 0 0 0 1.484-.015c.002-.357.004-.724.004-1.1 0-.593-.007-1.113-.02-1.562l.002.095.001-.143c-.03.452-.17.935-.489 1.414a3.026 3.026 0 0 1-1.891 1.303l.01-.002zm4.571-.176c.35-.035.666-.078.984-.133.167-.028.33-.05.49-.066a2.205 2.205 0 0 1-1.288-.288 1.22 1.22 0 0 1-.314-.237c-.16-.185-.299-.495-.321-.884 0 .18-.01.31-.034.446-.063.422-.106.824-.13 1.215l.613-.053zm1.343 5.1l-.67-.094a4.9 4.9 0 0 1-.394-.073c.205.054.373.126.534.22a1.4 1.4 0 0 1 .53-.052zm.54 1.312l.028-.001-.005-.092a.708.708 0 0 1-.005-.04l-.072.007c.02.042.037.084.053.126zM50.73 2.376l.145 3.33V2.374a3.977 3.977 0 0 0-.145.003zm-3.473 5.282l3.299-.44-3.315.289.004.055.012.096zm2.376 4.546c.556 0 1.063.147 1.492.39.557-.275.652-.488.88-1.004.216-.496.216-.496.274-.728.066-.31.066-.31.081-.447.012-.123.017-.17.02-.217l-.007-.238-3.326.102v2.2c.135-.035.295-.058.586-.058zm2.84 2.266a244.416 244.416 0 0 1 .002-.014l-.002.014zm-6.7-7.866c0-.533-.005-.99-.016-1.371l-.002-.095c0-.222.005-.412.017-.586a3.71 3.71 0 0 1 .613-1.841 3.553 3.553 0 0 1 2.249-1.517c.158-.034.334-.065.558-.1a6.886 6.886 0 0 1 1.37-.068l.616.033c.434.009.863-.003 1.284-.036.52-.04 1.04-.084 1.524-.126a7.11 7.11 0 0 0 .49-.067c.318-.055.634-.098.978-.132a4.433 4.433 0 0 1 2.607.539c.533.3 1 .694 1.427 1.178.79.908 1.268 1.992 1.321 3.187a8.548 8.548 0 0 1-.112 1.838c-.062.417-.08.814-.059 1.193.033.57.078 1.15.13 1.713.065.636.114 1.27.146 1.9.041.792-.001 1.587-.126 2.38a5.95 5.95 0 0 1-.474 1.676c-.88 2.099-2.85 3.216-5.186 2.947-.267-.036-.529-.073-.784-.11-.35-.05-.698-.116-.978-.183a4.365 4.365 0 0 1-1.57-.675 4.237 4.237 0 0 1-.902.383c-.43.132-.785.207-1.261.207-.782 0-1.494-.25-2.086-.665a3.664 3.664 0 0 1-1.23-1.47c-.312-.65-.49-1.335-.49-1.967-.023-.787-.041-1.571-.053-2.353-.012-.747-.03-1.498-.053-2.251l-.105-3.436h.157v-.125zm3.822-.133a67.366 67.366 0 0 0 0-.067v.067z"/>
        <path fill="#1A1A1A" d="M3.397 9.96l-1.56 6.276h8.857l41.787-.334 3.96-11.606-5.566-2.087-21.736 1.36-5.483 1.872-12.994-2.089H4.896z"/>
        <path fill="#FDE44F" d="M10.851 15.644c-.473.024-.86.036-1.162.036-.302 0-.556-.041-.763-.124a1.303 1.303 0 0 1-.541-.418c-.154-.196-.314-.477-.48-.845a65.66 65.66 0 0 0-.567-1.244 8.287 8.287 0 0 0-.116-.222.87.87 0 0 0-.15-.205c-.166-.201-.326-.19-.48.036a1.134 1.134 0 0 0-.115.222 1.76 1.76 0 0 1-.115.24c-.213.344-.423.693-.63 1.049-.207.355-.43.705-.666 1.049-.295.438-.692.563-1.189.373-.343-.118-.461-.338-.355-.658.06-.177.125-.35.196-.515a9.35 9.35 0 0 1 .23-.498c.284-.604.571-1.206.861-1.804.29-.599.583-1.2.878-1.805.06-.142.095-.278.107-.409a.616.616 0 0 0-.107-.39 10.4 10.4 0 0 1-.905-1.84 15.781 15.781 0 0 0-.834-1.859 3.283 3.283 0 0 0-.15-.24l-.17-.24c-.13-.201-.188-.355-.177-.462.012-.107.119-.237.32-.391.13-.095.352-.193.665-.293.314-.101.651-.178 1.012-.231.36-.054.71-.063 1.047-.027.337.035.588.136.754.302.071.083.166.187.284.311a5.638 5.638 0 0 1 .719.942c.112.184.198.365.257.543.06.177.13.346.213.506.083.16.171.323.266.49.071.13.157.192.257.186.1-.006.193-.074.275-.205.095-.165.18-.331.258-.497.077-.166.156-.332.24-.498.106-.202.203-.403.292-.605.089-.201.192-.403.31-.604a1.2 1.2 0 0 1 .55-.524c.226-.101.48-.14.764-.116.426.06.615.29.568.693a6.358 6.358 0 0 1-.09.463 1.673 1.673 0 0 1-.159.426 7.62 7.62 0 0 0-.727 1.582c-.178.546-.373 1.09-.586 1.636-.154.415-.228.791-.222 1.129.006.338.11.702.31 1.093.237.45.433.916.586 1.396.154.48.32.963.497 1.449.083.249.157.468.222.657.065.19.065.35 0 .48s-.21.237-.435.32c-.224.083-.573.137-1.047.16zm8.303-.124a5.11 5.11 0 0 1-.79-.08 7.451 7.451 0 0 1-1.047-.258 6.623 6.623 0 0 1-1.11-.47 3.767 3.767 0 0 1-.957-.72 3.672 3.672 0 0 1-.976-1.76 8.677 8.677 0 0 1-.258-2.872 7.52 7.52 0 0 1 .79-2.764c.367-.557.837-.99 1.41-1.298a7.404 7.404 0 0 1 1.722-.676 8.9 8.9 0 0 1 1.588-.258l1.03-.062c.58-.035 1.08.071 1.5.32.419.25.783.599 1.09 1.05.343.52.622 1.072.834 1.652.213.581.278 1.203.196 1.867a35.386 35.386 0 0 1-.249 1.671 7.428 7.428 0 0 1-.479 1.618 5.501 5.501 0 0 1-2.04 2.453c-.32.202-.672.344-1.056.427a7.78 7.78 0 0 1-1.198.16zm-.781-5.209c.035.225.065.45.089.676.023.225.065.45.124.675.059.297.154.575.284.836.13.26.32.492.568.693.236.19.437.282.603.276.166-.006.379-.074.639-.205.213-.095.443-.326.692-.693.248-.368.482-.768.7-1.2.22-.433.406-.853.56-1.262.154-.41.236-.708.248-.898.036-.38.027-.803-.026-1.271a3.43 3.43 0 0 0-.435-1.325 2.093 2.093 0 0 0-.515-.63 2.108 2.108 0 0 0-.692-.347 4.008 4.008 0 0 0-.55-.09 1.052 1.052 0 0 0-.417.045.886.886 0 0 0-.346.222 3.735 3.735 0 0 0-.355.427 6.46 6.46 0 0 0-.994 1.92 5.012 5.012 0 0 0-.177 2.151zm14.549.462c0-.557.003-1.108.008-1.653.006-.545.003-1.096-.008-1.653 0-.19-.015-.377-.045-.56-.03-.184-.062-.365-.097-.543-.06-.225-.175-.379-.346-.462-.172-.083-.358-.065-.56.054-.26.165-.481.465-.665.897a8.037 8.037 0 0 0-.452 1.511c-.119.575-.21 1.177-.275 1.805a47.085 47.085 0 0 0-.222 3.138c-.012.385-.018.619-.018.702a1.4 1.4 0 0 1-.124.613c-.083.172-.19.317-.32.436-.13.118-.28.219-.452.302-.172.083-.346.16-.524.231a5.557 5.557 0 0 1-.976.285 1.474 1.474 0 0 1-.559 0 2.182 2.182 0 0 1-.585-.187 1.656 1.656 0 0 1-.48-.347.956.956 0 0 1-.257-.462 11.568 11.568 0 0 1 .071-3.822l.178-1.138c.059-.38.148-.747.266-1.102.154-.45.322-.898.506-1.342a3.37 3.37 0 0 1 .825-1.183 11.944 11.944 0 0 1 1.562-1.262 4.887 4.887 0 0 1 1.827-.747c.485-.106.97-.16 1.455-.16.485 0 .976.072 1.473.214.438.118.675.403.71.853.036.723.074 1.44.115 2.151a15.66 15.66 0 0 1-.026 2.17c-.06.71-.098 1.418-.115 2.124a9.589 9.589 0 0 0 .186 2.124c.035.201.056.412.062.631.006.22.003.436-.009.649-.024.367-.195.551-.515.551-.343 0-.703-.047-1.082-.142-.201-.06-.325-.169-.373-.329a2.326 2.326 0 0 1-.088-.507l-.036-1.022a29.204 29.204 0 0 1-.018-1.022 23.416 23.416 0 0 1-.017-.898v-.898zm9.402 4.747a5.11 5.11 0 0 1-.79-.08 7.451 7.451 0 0 1-1.046-.258 6.623 6.623 0 0 1-1.11-.47 3.767 3.767 0 0 1-.958-.72 3.672 3.672 0 0 1-.976-1.76 8.677 8.677 0 0 1-.257-2.872 7.52 7.52 0 0 1 .79-2.764c.366-.557.837-.99 1.41-1.298a7.404 7.404 0 0 1 1.722-.676 8.9 8.9 0 0 1 1.588-.258l1.03-.062c.579-.035 1.079.071 1.499.32.42.25.783.599 1.09 1.05.344.52.622 1.072.835 1.652.213.581.278 1.203.195 1.867a35.386 35.386 0 0 1-.248 1.671 7.428 7.428 0 0 1-.48 1.618 5.501 5.501 0 0 1-2.04 2.453c-.32.202-.672.344-1.056.427a7.78 7.78 0 0 1-1.198.16zm-.78-5.209c.035.225.064.45.088.676.024.225.065.45.124.675.06.297.154.575.284.836.13.26.32.492.568.693.237.19.438.282.603.276.166-.006.379-.074.64-.205.212-.095.443-.326.691-.693.249-.368.482-.768.701-1.2.22-.433.405-.853.56-1.262.153-.41.236-.708.248-.898.035-.38.026-.803-.027-1.271a3.43 3.43 0 0 0-.435-1.325 2.093 2.093 0 0 0-.514-.63 2.108 2.108 0 0 0-.692-.347 4.008 4.008 0 0 0-.55-.09 1.052 1.052 0 0 0-.417.045.886.886 0 0 0-.347.222 3.734 3.734 0 0 0-.354.427 6.46 6.46 0 0 0-.994 1.92 5.012 5.012 0 0 0-.178 2.151zm7.539-5.173c0-.154.003-.276.009-.365a.433.433 0 0 1 .062-.213c.035-.053.094-.089.177-.107.083-.017.201-.038.355-.062.237-.035.473-.047.71-.035l.71.035c.544.012 1.082-.003 1.614-.044a144.98 144.98 0 0 0 1.598-.134c.236-.023.476-.056.718-.097.243-.042.482-.075.719-.098.26-.024.485.018.674.124.19.107.373.261.55.462.32.368.488.75.506 1.147.018.397-.009.797-.08 1.2a9.161 9.161 0 0 0-.088 1.876c.035.61.082 1.23.142 1.857.059.581.103 1.159.133 1.734a8.145 8.145 0 0 1-.098 1.733 2.616 2.616 0 0 1-.23.818c-.296.747-.858 1.072-1.687.978-.26-.036-.514-.071-.763-.107a8.246 8.246 0 0 1-.745-.142c-.438-.095-.686-.368-.745-.818l-.071-.382a3.962 3.962 0 0 1-.053-.382 454.048 454.048 0 0 1-.249-5.53 39.101 39.101 0 0 1-.018-1.182c0-.397-.005-.797-.017-1.2 0-.165-.027-.284-.08-.355-.053-.071-.169-.119-.346-.142a7.4 7.4 0 0 0-.808-.027c-.266.006-.535.015-.807.027-.13 0-.219.041-.266.124a.73.73 0 0 0-.089.285v.56c0 .183.012.364.036.542.023.272.038.604.044.995.006.391.009.803.009 1.236a59.655 59.655 0 0 1-.062 2.524l-.045.951c-.012.261-.023.427-.035.498-.036.25-.053.501-.053.756s-.024.506-.071.755a1.107 1.107 0 0 1-.142.391c-.048.06-.14.11-.275.152a1.166 1.166 0 0 1-.293.062.308.308 0 0 1-.178-.062.336.336 0 0 1-.124-.152 1.486 1.486 0 0 1-.177-.657c-.024-.77-.042-1.538-.054-2.303-.011-.764-.03-1.531-.053-2.302.012 0 .02-.178.027-.533.006-.356.012-.791.018-1.307.005-.515.008-1.055.008-1.618 0-.563-.006-1.051-.017-1.466z"/>
    </g>
</svg>
